Exo-Demibold.ufo
<glyph name=".notdef" format="1">
  <advance width="718"/>
  <unicode hex="0000"/>
  <outline>
    <contour>
      <point x="80" y="0" type="line"/>
      <point x="80" y="531" type="line"/>
      <point x="638" y="531" type="line"/>
      <point x="638" y="0" type="line"/>
    </contour>
    <contour>
      <point x="615" y="518" type="line"/>
      <point x="104" y="518" type="line"/>
      <point x="361" y="276" type="line"/>
    </contour>
    <contour>
      <point x="94" y="22" type="line"/>
      <point x="350" y="266" type="line"/>
      <point x="94" y="507" type="line"/>
    </contour>
    <contour>
      <point x="107" y="13" type="line"/>
      <point x="614" y="13" type="line"/>
      <point x="361" y="256" type="line"/>
    </contour>
    <contour>
      <point x="624" y="506" type="line"/>
      <point x="372" y="266" type="line"/>
      <point x="624" y="25" type="line"/>
    </contour>
  </outline>
</glyph>
<glyph name="numbersign" format="1">
  <advance width="713"/>
  <unicode hex="0023"/>
  <note>
    GF Latin Plus glyph
  </note>
  <outline>
    <contour>
      <point x="276" y="300" type="line"/>
      <point x="298" y="431" type="line"/>
      <point x="426" y="431" type="line"/>
      <point x="404" y="300" type="line"/>
    </contour>
    <contour>
      <point x="17" y="213" type="line"/>
      <point x="173" y="213" type="line"/>
      <point x="135" y="0" type="line"/>
      <point x="222" y="0" type="line"/>
      <point x="260" y="213" type="line"/>
      <point x="385" y="213" type="line"/>
      <point x="347" y="0" type="line"/>
      <point x="434" y="0" type="line"/>
      <point x="472" y="213" type="line"/>
      <point x="651" y="213" type="line"/>
      <point x="663" y="300" type="line"/>
      <point x="491" y="300" type="line"/>
      <point x="513" y="431" type="line"/>
      <point x="686" y="431" type="line"/>
      <point x="698" y="518" type="line"/>
      <point x="527" y="518" type="line"/>
      <point x="565" y="732" type="line"/>
      <point x="478" y="732" type="line"/>
      <point x="440" y="518" type="line"/>
      <point x="315" y="518" type="line"/>
      <point x="354" y="732" type="line"/>
      <point x="267" y="732" type="line"/>
      <point x="228" y="518" type="line"/>
      <point x="65" y="518" type="line"/>
      <point x="51" y="431" type="line"/>
      <point x="211" y="431" type="line"/>
      <point x="189" y="300" type="line"/>
      <point x="31" y="300" type="line"/>
    </contour>
  </outline>
</glyph>
<glyph name="percent" format="1">
  <advance width="963"/>
  <unicode hex="0025"/>
  <note>
    GF Latin Plus glyph
  </note>
  <outline>
    <contour>
      <point x="642" y="153" type="curve" smooth="yes"/>
      <point x="642" y="236" type="line" smooth="yes"/>
      <point x="642" y="291"/>
      <point x="665" y="302"/>
      <point x="709" y="302" type="curve" smooth="yes"/>
      <point x="778" y="302" type="line" smooth="yes"/>
      <point x="826" y="302"/>
      <point x="843" y="286"/>
      <point x="843" y="236" type="curve" smooth="yes"/>
      <point x="843" y="153" type="line" smooth="yes"/>
      <point x="843" y="106"/>
      <point x="826" y="87"/>
      <point x="776" y="87" type="curve" smooth="yes"/>
      <point x="707" y="87" type="line" smooth="yes"/>
      <point x="657" y="87"/>
      <point x="642" y="107"/>
    </contour>
    <contour>
      <point x="558" y="134" type="line" smooth="yes"/>
      <point x="558" y="49"/>
      <point x="593" y="3"/>
      <point x="691" y="3" type="curve" smooth="yes"/>
      <point x="792" y="3" type="line" smooth="yes"/>
      <point x="893" y="3"/>
      <point x="927" y="49"/>
      <point x="927" y="134" type="curve" smooth="yes"/>
      <point x="927" y="255" type="line" smooth="yes"/>
      <point x="927" y="340"/>
      <point x="892" y="386"/>
      <point x="794" y="386" type="curve" smooth="yes"/>
      <point x="693" y="386" type="line" smooth="yes"/>
      <point x="592" y="386"/>
      <point x="558" y="340"/>
      <point x="558" y="255" type="curve" smooth="yes"/>
    </contour>
    <contour>
      <point x="211" y="0" type="line"/>
      <point x="301" y="0" type="line"/>
      <point x="744" y="732" type="line"/>
      <point x="659" y="732" type="line"/>
    </contour>
    <contour>
      <point x="121" y="499" type="curve" smooth="yes"/>
      <point x="121" y="582" type="line" smooth="yes"/>
      <point x="121" y="637"/>
      <point x="144" y="648"/>
      <point x="187" y="648" type="curve" smooth="yes"/>
      <point x="257" y="648" type="line" smooth="yes"/>
      <point x="305" y="648"/>
      <point x="322" y="632"/>
      <point x="322" y="582" type="curve" smooth="yes"/>
      <point x="322" y="499" type="line" smooth="yes"/>
      <point x="322" y="452"/>
      <point x="305" y="433"/>
      <point x="255" y="433" type="curve" smooth="yes"/>
      <point x="185" y="433" type="line" smooth="yes"/>
      <point x="135" y="433"/>
      <point x="121" y="453"/>
    </contour>
    <contour>
      <point x="36" y="480" type="line" smooth="yes"/>
      <point x="36" y="395"/>
      <point x="72" y="349"/>
      <point x="170" y="349" type="curve" smooth="yes"/>
      <point x="271" y="349" type="line" smooth="yes"/>
      <point x="372" y="349"/>
      <point x="406" y="395"/>
      <point x="406" y="480" type="curve" smooth="yes"/>
      <point x="406" y="601" type="line" smooth="yes"/>
      <point x="406" y="686"/>
      <point x="371" y="732"/>
      <point x="273" y="732" type="curve" smooth="yes"/>
      <point x="172" y="732" type="line" smooth="yes"/>
      <point x="71" y="732"/>
      <point x="36" y="686"/>
      <point x="36" y="601" type="curve" smooth="yes"/>
    </contour>
  </outline>
</glyph>
<glyph name="ampersand" format="1">
  <advance width="692"/>
  <unicode hex="0026"/>
  <note>
    GF Latin Plus glyph
  </note>
  <outline>
    <contour>
      <point x="242" y="114" type="curve" smooth="yes"/>
      <point x="186" y="114"/>
      <point x="152" y="152"/>
      <point x="152" y="203" type="curve" smooth="yes"/>
      <point x="152" y="237"/>
      <point x="164" y="268"/>
      <point x="201" y="300" type="curve" smooth="yes"/>
      <point x="244" y="338" type="line"/>
      <point x="359" y="184" type="line"/>
      <point x="327" y="153" type="line" smooth="yes"/>
      <point x="293" y="120"/>
      <point x="272" y="114"/>
    </contour>
    <contour>
      <point x="220" y="-5" type="curve" smooth="yes"/>
      <point x="287" y="-5"/>
      <point x="334" y="10"/>
      <point x="390" y="59" type="curve" smooth="yes"/>
      <point x="430" y="94" type="line"/>
      <point x="504" y="0" type="line"/>
      <point x="653" y="0" type="line"/>
      <point x="522" y="172" type="line"/>
      <point x="573" y="227" type="line"/>
      <point x="641" y="326" type="line"/>
      <point x="594" y="384" type="line"/>
      <point x="456" y="260" type="line"/>
      <point x="295" y="482" type="line" smooth="yes"/>
      <point x="267" y="521"/>
      <point x="251" y="546"/>
      <point x="251" y="570" type="curve" smooth="yes"/>
      <point x="251" y="602"/>
      <point x="285" y="620"/>
      <point x="336" y="620" type="curve" smooth="yes"/>
      <point x="488" y="620" type="line"/>
      <point x="488" y="716" type="line"/>
      <point x="445" y="727"/>
      <point x="377" y="736"/>
      <point x="302" y="736" type="curve" smooth="yes"/>
      <point x="190" y="736"/>
      <point x="102" y="697"/>
      <point x="102" y="596" type="curve" smooth="yes"/>
      <point x="102" y="559"/>
      <point x="117" y="522"/>
      <point x="160" y="459" type="curve" smooth="yes"/>
      <point x="182" y="428" type="line"/>
      <point x="120" y="375" type="line" smooth="yes"/>
      <point x="59" y="323"/>
      <point x="29" y="259"/>
      <point x="29" y="187" type="curve" smooth="yes"/>
      <point x="29" y="72"/>
      <point x="109" y="-5"/>
    </contour>
  </outline>
</glyph>
<glyph name="parenleft" format="1">
  <advance width="373"/>
  <unicode hex="0028"/>
  <note>
    GF Latin Plus glyph
  </note>
  <outline>
    <contour>
      <point x="66" y="326" type="curve" smooth="yes"/>
      <point x="66" y="82"/>
      <point x="145" y="-77"/>
      <point x="243" y="-210" type="curve"/>
      <point x="355" y="-210" type="line"/>
      <point x="255" y="-41"/>
      <point x="190" y="112"/>
      <point x="190" y="326" type="curve" smooth="yes"/>
      <point x="190" y="541"/>
      <point x="267" y="712"/>
      <point x="355" y="860" type="curve"/>
      <point x="243" y="860" type="line"/>
      <point x="149" y="728"/>
      <point x="66" y="559"/>
    </contour>
  </outline>
</glyph>
<glyph name="asterisk" format="1">
  <advance width="437"/>
  <unicode hex="002A"/>
  <note>
    GF Latin Plus glyph
  </note>
  <outline>
    <contour>
      <point x="43" y="576" type="line"/>
      <point x="186" y="570" type="line"/>
      <point x="183" y="638" type="line"/>
      <point x="43" y="625" type="line"/>
    </contour>
    <contour>
      <point x="175" y="722" type="line"/>
      <point x="221" y="587" type="line"/>
      <point x="285" y="613" type="line"/>
      <point x="222" y="738" type="line"/>
    </contour>
    <contour>
      <point x="250" y="564" type="line"/>
      <point x="294" y="511" type="line"/>
      <point x="395" y="606" type="line"/>
      <point x="366" y="646" type="line"/>
    </contour>
    <contour>
      <point x="200" y="473" type="line"/>
      <point x="322" y="405" type="line"/>
      <point x="352" y="444" type="line"/>
      <point x="236" y="531" type="line"/>
    </contour>
    <contour>
      <point x="103" y="415" type="line"/>
      <point x="150" y="400" type="line"/>
      <point x="198" y="535" type="line"/>
      <point x="131" y="551" type="line"/>
    </contour>
  </outline>
</glyph>
<glyph name="comma" format="1">
  <advance width="225"/>
  <unicode hex="002C"/>
  <note>
    GF Latin Plus glyph
  </note>
  <outline>
    <contour>
      <point x="56" y="29" type="line" smooth="yes"/>
      <point x="56" y="16"/>
      <point x="65" y="9"/>
      <point x="76" y="9" type="curve" smooth="yes"/>
      <point x="85" y="9" type="line"/>
      <point x="85" y="-21" type="line" smooth="yes"/>
      <point x="85" y="-36"/>
      <point x="77" y="-40"/>
      <point x="60" y="-40" type="curve"/>
      <point x="60" y="-81" type="line"/>
      <point x="60" y="-81"/>
      <point x="79" y="-87"/>
      <point x="101" y="-87" type="curve" smooth="yes"/>
      <point x="132" y="-87"/>
      <point x="169" y="-76"/>
      <point x="169" y="-21" type="curve" smooth="yes"/>
      <point x="169" y="112" type="line" smooth="yes"/>
      <point x="169" y="125"/>
      <point x="164" y="134"/>
      <point x="149" y="134" type="curve" smooth="yes"/>
      <point x="76" y="134" type="line" smooth="yes"/>
      <point x="63" y="134"/>
      <point x="56" y="127"/>
      <point x="56" y="112" type="curve" smooth="yes"/>
    </contour>
  </outline>
</glyph>
<glyph name="zero" format="1">
  <advance width="649"/>
  <unicode hex="0030"/>
  <note>
    GF Latin Plus glyph
  </note>
  <outline>
    <contour>
      <point x="191" y="203" type="curve" smooth="yes"/>
      <point x="191" y="539" type="line" smooth="yes"/>
      <point x="191" y="597"/>
      <point x="222" y="628"/>
      <point x="277" y="628" type="curve" smooth="yes"/>
      <point x="374" y="628" type="line" smooth="yes"/>
      <point x="427" y="628"/>
      <point x="458" y="602"/>
      <point x="458" y="539" type="curve" smooth="yes"/>
      <point x="458" y="202" type="line" smooth="yes"/>
      <point x="458" y="144"/>
      <point x="431" y="113"/>
      <point x="369" y="113" type="curve" smooth="yes"/>
      <point x="282" y="113" type="line" smooth="yes"/>
      <point x="224" y="113"/>
      <point x="191" y="141"/>
    </contour>
    <contour>
      <point x="60" y="183" type="line" smooth="yes"/>
      <point x="60" y="59"/>
      <point x="132" y="-4"/>
      <point x="252" y="-4" type="curve" smooth="yes"/>
      <point x="403" y="-4" type="line" smooth="yes"/>
      <point x="519" y="-4"/>
      <point x="589" y="61"/>
      <point x="589" y="183" type="curve" smooth="yes"/>
      <point x="589" y="552" type="line" smooth="yes"/>
      <point x="589" y="671"/>
      <point x="528" y="745"/>
      <point x="404" y="745" type="curve" smooth="yes"/>
      <point x="252" y="745" type="line" smooth="yes"/>
      <point x="135" y="745"/>
      <point x="60" y="678"/>
      <point x="60" y="552" type="curve" smooth="yes"/>
    </contour>
  </outline>
</glyph>
<glyph name="two" format="1">
  <advance width="588"/>
  <unicode hex="0032"/>
  <note>
    GF Latin Plus glyph
  </note>
  <outline>
    <contour>
      <point x="68" y="622" type="line"/>
      <point x="273" y="622" type="line" smooth="yes"/>
      <point x="367" y="622"/>
      <point x="395" y="585"/>
      <point x="395" y="526" type="curve" smooth="yes"/>
      <point x="395" y="464"/>
      <point x="367" y="417"/>
      <point x="302" y="354" type="curve" smooth="yes"/>
      <point x="48" y="105" type="line"/>
      <point x="48" y="0" type="line"/>
      <point x="549" y="0" type="line"/>
      <point x="549" y="118" type="line"/>
      <point x="221" y="118" type="line"/>
      <point x="403" y="296" type="line" smooth="yes"/>
      <point x="486" y="377"/>
      <point x="525" y="446"/>
      <point x="525" y="547" type="curve" smooth="yes"/>
      <point x="525" y="669"/>
      <point x="471" y="745"/>
      <point x="299" y="745" type="curve" smooth="yes"/>
      <point x="207" y="745"/>
      <point x="130" y="733"/>
      <point x="68" y="724" type="curve"/>
    </contour>
  </outline>
</glyph>
<glyph name="three" format="1">
  <advance width="581"/>
  <unicode hex="0033"/>
  <note>
    GF Latin Plus glyph
  </note>
  <outline>
    <contour>
      <point x="58" y="622" type="line"/>
      <point x="265" y="622" type="line" smooth="yes"/>
      <point x="351" y="622"/>
      <point x="387" y="593"/>
      <point x="387" y="535" type="curve" smooth="yes"/>
      <point x="387" y="503" type="line" smooth="yes"/>
      <point x="387" y="452"/>
      <point x="349" y="434"/>
      <point x="286" y="431" type="curve" smooth="yes"/>
      <point x="107" y="421" type="line"/>
      <point x="107" y="322" type="line"/>
      <point x="291" y="315" type="line" smooth="yes"/>
      <point x="347" y="313"/>
      <point x="397" y="292"/>
      <point x="397" y="233" type="curve" smooth="yes"/>
      <point x="397" y="197" type="line" smooth="yes"/>
      <point x="397" y="133"/>
      <point x="352" y="117"/>
      <point x="270" y="117" type="curve" smooth="yes"/>
      <point x="39" y="117" type="line"/>
      <point x="39" y="13" type="line"/>
      <point x="115" y="1"/>
      <point x="212" y="-6"/>
      <point x="318" y="-6" type="curve" smooth="yes"/>
      <point x="449" y="-6"/>
      <point x="528" y="57"/>
      <point x="528" y="174" type="curve" smooth="yes"/>
      <point x="528" y="215" type="line" smooth="yes"/>
      <point x="528" y="305"/>
      <point x="473" y="358"/>
      <point x="420" y="372" type="curve"/>
      <point x="469" y="386"/>
      <point x="516" y="426"/>
      <point x="516" y="508" type="curve" smooth="yes"/>
      <point x="516" y="565" type="line" smooth="yes"/>
      <point x="516" y="679"/>
      <point x="446" y="744"/>
      <point x="316" y="745" type="curve" smooth="yes"/>
      <point x="217" y="746"/>
      <point x="129" y="736"/>
      <point x="58" y="725" type="curve"/>
    </contour>
  </outline>
</glyph>
<glyph name="six" format="1">
  <advance width="612"/>
  <unicode hex="0036"/>
  <note>
    GF Latin Plus glyph
  </note>
  <outline>
    <contour>
      <point x="186" y="327" type="curve"/>
      <point x="328" y="327" type="line" smooth="yes"/>
      <point x="397" y="327"/>
      <point x="432" y="313"/>
      <point x="432" y="248" type="curve" smooth="yes"/>
      <point x="432" y="192" type="line" smooth="yes"/>
      <point x="432" y="132"/>
      <point x="401" y="113"/>
      <point x="353" y="113" type="curve" smooth="yes"/>
      <point x="298" y="113" type="line" smooth="yes"/>
      <point x="223" y="113"/>
      <point x="186" y="157"/>
    </contour>
    <contour>
      <point x="56" y="362" type="curve" smooth="yes"/>
      <point x="56" y="70"/>
      <point x="134" y="-4"/>
      <point x="273" y="-4" type="curve" smooth="yes"/>
      <point x="382" y="-4" type="line" smooth="yes"/>
      <point x="486" y="-4"/>
      <point x="562" y="44"/>
      <point x="562" y="167" type="curve" smooth="yes"/>
      <point x="562" y="272" type="line" smooth="yes"/>
      <point x="562" y="379"/>
      <point x="506" y="438"/>
      <point x="363" y="438" type="curve" smooth="yes"/>
      <point x="299" y="438"/>
      <point x="236" y="435"/>
      <point x="186" y="423" type="curve"/>
      <point x="186" y="559"/>
      <point x="237" y="628"/>
      <point x="342" y="628" type="curve" smooth="yes"/>
      <point x="518" y="628" type="line"/>
      <point x="518" y="730" type="line"/>
      <point x="464" y="740"/>
      <point x="394" y="745"/>
      <point x="331" y="745" type="curve" smooth="yes"/>
      <point x="158" y="745"/>
      <point x="56" y="646"/>
    </contour>
  </outline>
</glyph>
<glyph name="seven" format="1">
  <advance width="551"/>
  <unicode hex="0037"/>
  <note>
    GF Latin Plus glyph
  </note>
  <outline>
    <contour>
      <point x="26" y="609" type="line"/>
      <point x="355" y="609" type="line"/>
      <point x="126" y="0" type="line"/>
      <point x="271" y="0" type="line"/>
      <point x="522" y="682" type="line"/>
      <point x="487" y="739" type="line"/>
      <point x="26" y="739" type="line"/>
    </contour>
  </outline>
</glyph>
<glyph name="eight" format="1">
  <advance width="632"/>
  <unicode hex="0038"/>
  <note>
    GF Latin Plus glyph
  </note>
  <outline>
    <contour>
      <point x="206" y="507" type="curve" smooth="yes"/>
      <point x="206" y="560" type="line" smooth="yes"/>
      <point x="206" y="616"/>
      <point x="228" y="634"/>
      <point x="277" y="634" type="curve" smooth="yes"/>
      <point x="361" y="634" type="line" smooth="yes"/>
      <point x="401" y="634"/>
      <point x="426" y="619"/>
      <point x="426" y="560" type="curve" smooth="yes"/>
      <point x="426" y="507" type="line" smooth="yes"/>
      <point x="426" y="467"/>
      <point x="412" y="433"/>
      <point x="358" y="433" type="curve" smooth="yes"/>
      <point x="277" y="433" type="line" smooth="yes"/>
      <point x="227" y="433"/>
      <point x="206" y="456"/>
    </contour>
    <contour>
      <point x="194" y="177" type="curve" smooth="yes"/>
      <point x="194" y="249" type="line" smooth="yes"/>
      <point x="194" y="300"/>
      <point x="239" y="322"/>
      <point x="277" y="322" type="curve" smooth="yes"/>
      <point x="359" y="322" type="line" smooth="yes"/>
      <point x="414" y="322"/>
      <point x="438" y="298"/>
      <point x="438" y="249" type="curve" smooth="yes"/>
      <point x="438" y="177" type="line" smooth="yes"/>
      <point x="438" y="132"/>
      <point x="419" y="107"/>
      <point x="360" y="107" type="curve" smooth="yes"/>
      <point x="277" y="107" type="line" smooth="yes"/>
      <point x="226" y="107"/>
      <point x="194" y="125"/>
    </contour>
    <contour>
      <point x="64" y="153" type="line" smooth="yes"/>
      <point x="64" y="29"/>
      <point x="152" y="-4"/>
      <point x="255" y="-4" type="curve" smooth="yes"/>
      <point x="390" y="-4" type="line" smooth="yes"/>
      <point x="490" y="-4"/>
      <point x="568" y="29"/>
      <point x="568" y="153" type="curve" smooth="yes"/>
      <point x="568" y="260" type="line" smooth="yes"/>
      <point x="568" y="306"/>
      <point x="551" y="373"/>
      <point x="485" y="388" type="curve"/>
      <point x="537" y="399"/>
      <point x="554" y="469"/>
      <point x="554" y="506" type="curve" smooth="yes"/>
      <point x="554" y="590" type="line" smooth="yes"/>
      <point x="554" y="702"/>
      <point x="482" y="745"/>
      <point x="389" y="745" type="curve" smooth="yes"/>
      <point x="249" y="745" type="line" smooth="yes"/>
      <point x="156" y="745"/>
      <point x="79" y="702"/>
      <point x="79" y="590" type="curve" smooth="yes"/>
      <point x="79" y="506" type="line" smooth="yes"/>
      <point x="79" y="453"/>
      <point x="88" y="405"/>
      <point x="149" y="376" type="curve"/>
      <point x="101" y="365"/>
      <point x="64" y="317"/>
      <point x="64" y="256" type="curve" smooth="yes"/>
    </contour>
  </outline>
</glyph>
<glyph name="nine" format="1">
  <advance width="613"/>
  <unicode hex="0039"/>
  <note>
    GF Latin Plus glyph
  </note>
  <outline>
    <contour>
      <point x="433" y="410" type="curve"/>
      <point x="286" y="410" type="line" smooth="yes"/>
      <point x="214" y="410"/>
      <point x="177" y="424"/>
      <point x="177" y="491" type="curve" smooth="yes"/>
      <point x="177" y="550" type="line" smooth="yes"/>
      <point x="177" y="613"/>
      <point x="210" y="632"/>
      <point x="259" y="632" type="curve" smooth="yes"/>
      <point x="318" y="632" type="line" smooth="yes"/>
      <point x="395" y="632"/>
      <point x="433" y="587"/>
    </contour>
    <contour>
      <point x="557" y="376" type="curve" smooth="yes"/>
      <point x="557" y="669"/>
      <point x="479" y="743"/>
      <point x="342" y="743" type="curve" smooth="yes"/>
      <point x="232" y="743" type="line" smooth="yes"/>
      <point x="129" y="743"/>
      <point x="53" y="696"/>
      <point x="53" y="574" type="curve" smooth="yes"/>
      <point x="53" y="469" type="line" smooth="yes"/>
      <point x="53" y="361"/>
      <point x="111" y="304"/>
      <point x="253" y="304" type="curve" smooth="yes"/>
      <point x="316" y="304"/>
      <point x="382" y="307"/>
      <point x="433" y="319" type="curve"/>
      <point x="433" y="177"/>
      <point x="380" y="106"/>
      <point x="274" y="106" type="curve" smooth="yes"/>
      <point x="97" y="106" type="line"/>
      <point x="97" y="9" type="line"/>
      <point x="151" y="0"/>
      <point x="222" y="-5"/>
      <point x="284" y="-5" type="curve" smooth="yes"/>
      <point x="456" y="-5"/>
      <point x="557" y="95"/>
    </contour>
  </outline>
</glyph>
<glyph name="at" format="1">
  <advance width="879"/>
  <unicode hex="0040"/>
  <note>
    GF Latin Plus glyph
  </note>
  <outline>
    <contour>
      <point x="335" y="144" type="curve" smooth="yes"/>
      <point x="335" y="170" type="line" smooth="yes"/>
      <point x="335" y="217"/>
      <point x="369" y="222"/>
      <point x="402" y="224" type="curve" smooth="yes"/>
      <point x="533" y="232" type="line"/>
      <point x="533" y="131" type="line"/>
      <point x="504" y="106"/>
      <point x="442" y="86"/>
      <point x="401" y="86" type="curve" smooth="yes"/>
      <point x="357" y="86"/>
      <point x="335" y="107"/>
    </contour>
    <contour>
      <point x="58" y="12" type="line" smooth="yes"/>
      <point x="58" y="-142"/>
      <point x="153" y="-202"/>
      <point x="267" y="-202" type="curve" smooth="yes"/>
      <point x="592" y="-202" type="line" smooth="yes"/>
      <point x="735" y="-202"/>
      <point x="804" y="-127"/>
      <point x="804" y="24" type="curve" smooth="yes"/>
      <point x="804" y="477" type="line" smooth="yes"/>
      <point x="804" y="648"/>
      <point x="697" y="709"/>
      <point x="586" y="709" type="curve" smooth="yes"/>
      <point x="494" y="709" type="line" smooth="yes"/>
      <point x="368" y="709"/>
      <point x="236" y="699"/>
      <point x="188" y="689" type="curve"/>
      <point x="188" y="614" type="line"/>
      <point x="586" y="614" type="line" smooth="yes"/>
      <point x="665" y="614"/>
      <point x="710" y="561"/>
      <point x="710" y="477" type="curve" smooth="yes"/>
      <point x="710" y="24" type="line" smooth="yes"/>
      <point x="710" y="-59"/>
      <point x="677" y="-106"/>
      <point x="586" y="-106" type="curve" smooth="yes"/>
      <point x="267" y="-106" type="line" smooth="yes"/>
      <point x="216" y="-106"/>
      <point x="153" y="-78"/>
      <point x="153" y="24" type="curve" smooth="yes"/>
      <point x="153" y="307" type="line" smooth="yes"/>
      <point x="153" y="396"/>
      <point x="203" y="418"/>
      <point x="267" y="418" type="curve" smooth="yes"/>
      <point x="453" y="418" type="line" smooth="yes"/>
      <point x="504" y="418"/>
      <point x="533" y="400"/>
      <point x="533" y="347" type="curve" smooth="yes"/>
      <point x="533" y="298" type="line"/>
      <point x="381" y="298" type="line" smooth="yes"/>
      <point x="288" y="298"/>
      <point x="234" y="252"/>
      <point x="234" y="167" type="curve" smooth="yes"/>
      <point x="234" y="126" type="line" smooth="yes"/>
      <point x="234" y="58"/>
      <point x="276" y="-9"/>
      <point x="362" y="-9" type="curve" smooth="yes"/>
      <point x="453" y="-9"/>
      <point x="533" y="58"/>
      <point x="535" y="58" type="curve"/>
      <point x="552" y="0" type="line"/>
      <point x="628" y="0" type="line"/>
      <point x="628" y="354" type="line" smooth="yes"/>
      <point x="628" y="493"/>
      <point x="537" y="512"/>
      <point x="451" y="512" type="curve" smooth="yes"/>
      <point x="267" y="512" type="line" smooth="yes"/>
      <point x="95" y="512"/>
      <point x="58" y="402"/>
      <point x="58" y="313" type="curve" smooth="yes"/>
    </contour>
  </outline>
</glyph>
<glyph name="B" format="1">
  <advance width="619"/>
  <unicode hex="0042"/>
  <note>
    GF Latin Plus glyph
  </note>
  <outline>
    <contour>
      <point x="192" y="426" type="line"/>
      <point x="192" y="627" type="line"/>
      <point x="350" y="627" type="line" smooth="yes"/>
      <point x="400" y="627"/>
      <point x="438" y="602"/>
      <point x="437" y="526" type="curve" smooth="yes"/>
      <point x="435" y="466"/>
      <point x="403" y="426"/>
      <point x="353" y="426" type="curve" smooth="yes"/>
    </contour>
    <contour>
      <point x="192" y="111" type="line"/>
      <point x="192" y="330" type="line"/>
      <point x="359" y="330" type="line" smooth="yes"/>
      <point x="418" y="330"/>
      <point x="461" y="292"/>
      <point x="461" y="225" type="curve" smooth="yes"/>
      <point x="461" y="139"/>
      <point x="421" y="111"/>
      <point x="359" y="111" type="curve" smooth="yes"/>
    </contour>
    <contour>
      <point x="69" y="0" type="line"/>
      <point x="363" y="0" type="line" smooth="yes"/>
      <point x="500" y="0"/>
      <point x="579" y="51"/>
      <point x="579" y="204" type="curve" smooth="yes"/>
      <point x="579" y="317"/>
      <point x="511" y="369"/>
      <point x="451" y="384" type="curve"/>
      <point x="512" y="400"/>
      <point x="555" y="457"/>
      <point x="555" y="546" type="curve" smooth="yes"/>
      <point x="555" y="671"/>
      <point x="490" y="738"/>
      <point x="351" y="738" type="curve" smooth="yes"/>
      <point x="69" y="738" type="line"/>
    </contour>
    <contour>
      <point x="294" y="810" type="move" name="top"/>
    </contour>
  </outline>
</glyph>
<glyph name="C" format="1">
  <advance width="585"/>
  <unicode hex="0043"/>
  <note>
    GF Latin Plus glyph
  </note>
  <outline>
    <contour>
      <point x="49" y="372" type="curve" smooth="yes"/>
      <point x="49" y="54"/>
      <point x="142" y="-6"/>
      <point x="314" y="-6" type="curve" smooth="yes"/>
      <point x="410" y="-6"/>
      <point x="487" y="5"/>
      <point x="543" y="22" type="curve"/>
      <point x="543" y="122" type="line"/>
      <point x="504" y="116"/>
      <point x="443" y="111"/>
      <point x="343" y="111" type="curve" smooth="yes"/>
      <point x="215" y="111"/>
      <point x="179" y="157"/>
      <point x="179" y="371" type="curve" smooth="yes"/>
      <point x="179" y="588"/>
      <point x="223" y="629"/>
      <point x="343" y="629" type="curve" smooth="yes"/>
      <point x="428" y="629"/>
      <point x="508" y="619"/>
      <point x="543" y="613" type="curve"/>
      <point x="543" y="713" type="line"/>
      <point x="492" y="729"/>
      <point x="407" y="746"/>
      <point x="317" y="746" type="curve" smooth="yes"/>
      <point x="145" y="746"/>
      <point x="49" y="675"/>
    </contour>
    <contour>
      <point x="318" y="810" type="move" name="top"/>
    </contour>
    <contour>
      <point x="336" y="-150" type="move" name="bottom"/>
    </contour>
  </outline>
</glyph>
<glyph name="D" format="1">
  <advance width="678"/>
  <unicode hex="0044"/>
  <note>
    GF Latin Plus glyph
  </note>
  <outline>
    <contour>
      <point x="198" y="117" type="line"/>
      <point x="198" y="622" type="line"/>
      <point x="362" y="622" type="line" smooth="yes"/>
      <point x="454" y="622"/>
      <point x="499" y="569"/>
      <point x="499" y="369" type="curve" smooth="yes"/>
      <point x="499" y="207"/>
      <point x="460" y="117"/>
      <point x="362" y="117" type="curve" smooth="yes"/>
    </contour>
    <contour>
      <point x="67" y="0" type="line"/>
      <point x="375" y="0" type="line" smooth="yes"/>
      <point x="544" y="0"/>
      <point x="629" y="125"/>
      <point x="629" y="369" type="curve" smooth="yes"/>
      <point x="629" y="593"/>
      <point x="569" y="739"/>
      <point x="375" y="739" type="curve" smooth="yes"/>
      <point x="67" y="739" type="line"/>
    </contour>
    <contour>
      <point x="325" y="810" type="move" name="top"/>
    </contour>
    <contour>
      <point x="298" y="-150" type="move" name="bottom"/>
    </contour>
  </outline>
</glyph>
<glyph name="E" format="1">
  <advance width="595"/>
  <unicode hex="0045"/>
  <note>
    GF Latin Plus glyph
  </note>
  <outline>
    <contour>
      <point x="67" y="147" type="line" smooth="yes"/>
      <point x="67" y="7"/>
      <point x="176" y="-5"/>
      <point x="241" y="-5" type="curve" smooth="yes"/>
      <point x="304" y="-5"/>
      <point x="492" y="1"/>
      <point x="547" y="9" type="curve"/>
      <point x="547" y="117" type="line"/>
      <point x="267" y="117" type="line" smooth="yes"/>
      <point x="230" y="117"/>
      <point x="198" y="131"/>
      <point x="198" y="189" type="curve" smooth="yes"/>
      <point x="198" y="310" type="line"/>
      <point x="500" y="317" type="line"/>
      <point x="500" y="419" type="line"/>
      <point x="198" y="427" type="line"/>
      <point x="198" y="551" type="line" smooth="yes"/>
      <point x="198" y="597"/>
      <point x="224" y="619"/>
      <point x="268" y="619" type="curve" smooth="yes"/>
      <point x="547" y="619" type="line"/>
      <point x="547" y="727" type="line"/>
      <point x="504" y="732"/>
      <point x="335" y="739"/>
      <point x="230" y="739" type="curve" smooth="yes"/>
      <point x="154" y="739"/>
      <point x="67" y="704"/>
      <point x="67" y="581" type="curve" smooth="yes"/>
    </contour>
    <contour>
      <point x="313" y="810" type="move" name="top"/>
    </contour>
    <contour>
      <point x="537" y="9" type="move" name="ogonek"/>
    </contour>
    <contour>
      <point x="329" y="-150" type="move" name="bottom"/>
    </contour>
  </outline>
</glyph>
<glyph name="F" format="1">
  <advance width="577"/>
  <unicode hex="0046"/>
  <note>
    GF Latin Plus glyph
  </note>
  <outline>
    <contour>
      <point x="69" y="0" type="line"/>
      <point x="192" y="0" type="line"/>
      <point x="192" y="295" type="line"/>
      <point x="499" y="302" type="line"/>
      <point x="499" y="399" type="line"/>
      <point x="192" y="406" type="line"/>
      <point x="192" y="555" type="line" smooth="yes"/>
      <point x="192" y="598"/>
      <point x="217" y="624"/>
      <point x="262" y="624" type="curve" smooth="yes"/>
      <point x="544" y="624" type="line"/>
      <point x="544" y="727" type="line"/>
      <point x="476" y="736"/>
      <point x="265" y="738"/>
      <point x="229" y="738" type="curve" smooth="yes"/>
      <point x="154" y="739"/>
      <point x="69" y="704"/>
      <point x="69" y="583" type="curve" smooth="yes"/>
    </contour>
    <contour>
      <point x="312" y="810" type="move" name="top"/>
    </contour>
  </outline>
</glyph>
<glyph name="G" format="1">
  <advance width="663"/>
  <unicode hex="0047"/>
  <note>
    GF Latin Plus glyph
  </note>
  <outline>
    <contour>
      <point x="49" y="370" type="curve" smooth="yes"/>
      <point x="49" y="135"/>
      <point x="94" y="-6"/>
      <point x="279" y="-5" type="curve" smooth="yes"/>
      <point x="363" y="-5"/>
      <point x="439" y="27"/>
      <point x="480" y="51" type="curve"/>
      <point x="498" y="0" type="line"/>
      <point x="595" y="0" type="line"/>
      <point x="595" y="412" type="line"/>
      <point x="569" y="414"/>
      <point x="536" y="415"/>
      <point x="495" y="415" type="curve" smooth="yes"/>
      <point x="436" y="415"/>
      <point x="366" y="411"/>
      <point x="325" y="405" type="curve"/>
      <point x="325" y="303" type="line"/>
      <point x="470" y="303" type="line"/>
      <point x="470" y="140" type="line"/>
      <point x="435" y="128"/>
      <point x="378" y="115"/>
      <point x="320" y="115" type="curve" smooth="yes"/>
      <point x="212" y="115"/>
      <point x="179" y="166"/>
      <point x="179" y="369" type="curve" smooth="yes"/>
      <point x="179" y="562"/>
      <point x="207" y="629"/>
      <point x="339" y="629" type="curve" smooth="yes"/>
      <point x="430" y="629"/>
      <point x="519" y="620"/>
      <point x="562" y="615" type="curve"/>
      <point x="562" y="715" type="line"/>
      <point x="488" y="733"/>
      <point x="411" y="746"/>
      <point x="316" y="746" type="curve" smooth="yes"/>
      <point x="99" y="746"/>
      <point x="49" y="610"/>
    </contour>
    <contour>
      <point x="326" y="810" type="move" name="top"/>
    </contour>
    <contour>
      <point x="349" y="-150" type="move" name="bottom"/>
    </contour>
  </outline>
</glyph>
<glyph name="J" format="1">
  <advance width="399"/>
  <unicode hex="004A"/>
  <note>
    GF Latin Plus glyph
  </note>
  <outline>
    <contour>
      <point x="26" y="15" type="line"/>
      <point x="56" y="4"/>
      <point x="103" y="-6"/>
      <point x="146" y="-6" type="curve" smooth="yes"/>
      <point x="276" y="-6"/>
      <point x="332" y="52"/>
      <point x="332" y="176" type="curve" smooth="yes"/>
      <point x="332" y="739" type="line"/>
      <point x="201" y="739" type="line"/>
      <point x="201" y="195" type="line" smooth="yes"/>
      <point x="201" y="132"/>
      <point x="171" y="111"/>
      <point x="117" y="111" type="curve" smooth="yes"/>
      <point x="106" y="111"/>
      <point x="37" y="115"/>
      <point x="26" y="118" type="curve"/>
    </contour>
    <contour>
      <point x="267" y="810" type="move" name="top"/>
    </contour>
  </outline>
</glyph>
<glyph name="K" format="1">
  <advance width="635"/>
  <unicode hex="004B"/>
  <note>
    GF Latin Plus glyph
  </note>
  <outline>
    <contour>
      <point x="67" y="0" type="line"/>
      <point x="198" y="0" type="line"/>
      <point x="198" y="309" type="line"/>
      <point x="304" y="309" type="line"/>
      <point x="474" y="0" type="line"/>
      <point x="613" y="0" type="line"/>
      <point x="407" y="368" type="line"/>
      <point x="607" y="739" type="line"/>
      <point x="469" y="739" type="line"/>
      <point x="304" y="426" type="line"/>
      <point x="198" y="426" type="line"/>
      <point x="198" y="739" type="line"/>
      <point x="67" y="739" type="line"/>
    </contour>
    <contour>
      <point x="314" y="810" type="move" name="top"/>
    </contour>
    <contour>
      <point x="314" y="-150" type="move" name="bottom"/>
    </contour>
  </outline>
</glyph>
<glyph name="L" format="1">
  <advance width="534"/>
  <unicode hex="004C"/>
  <note>
    GF Latin Plus glyph
  </note>
  <outline>
    <contour>
      <point x="69" y="159" type="line" smooth="yes"/>
      <point x="69" y="42"/>
      <point x="127" y="0"/>
      <point x="228" y="0" type="curve" smooth="yes"/>
      <point x="510" y="0" type="line"/>
      <point x="510" y="112" type="line"/>
      <point x="265" y="112" type="line" smooth="yes"/>
      <point x="224" y="112"/>
      <point x="192" y="127"/>
      <point x="192" y="185" type="curve" smooth="yes"/>
      <point x="192" y="738" type="line"/>
      <point x="69" y="738" type="line"/>
    </contour>
    <contour>
      <point x="131" y="810" type="move" name="top"/>
    </contour>
    <contour>
      <point x="232" y="650" type="move" name="altcaron"/>
    </contour>
    <contour>
      <point x="284" y="-150" type="move" name="bottom"/>
    </contour>
  </outline>
</glyph>
<glyph name="M" format="1">
  <advance width="871"/>
  <unicode hex="004D"/>
  <note>
    GF Latin Plus glyph
  </note>
  <outline>
    <contour>
      <point x="47" y="0" type="line"/>
      <point x="133" y="739" type="line"/>
      <point x="259" y="739" type="line"/>
      <point x="436" y="154" type="line"/>
      <point x="611" y="739" type="line"/>
      <point x="736" y="739" type="line"/>
      <point x="823" y="0" type="line"/>
      <point x="698" y="0" type="line"/>
      <point x="631" y="571" type="line"/>
      <point x="651" y="569" type="line"/>
      <point x="495" y="0" type="line"/>
      <point x="374" y="0" type="line"/>
      <point x="216" y="569" type="line"/>
      <point x="238" y="570" type="line"/>
      <point x="173" y="0" type="line"/>
    </contour>
    <contour>
      <point x="429" y="810" type="move" name="top"/>
    </contour>
    <contour>
      <point x="429" y="-150" type="move" name="bottom"/>
    </contour>
  </outline>
</glyph>
<glyph name="O" format="1">
  <advance width="696"/>
  <unicode hex="004F"/>
  <note>
    GF Latin Plus glyph
  </note>
  <outline>
    <contour>
      <point x="179" y="368" type="curve" smooth="yes"/>
      <point x="179" y="594"/>
      <point x="226" y="629"/>
      <point x="348" y="629" type="curve" smooth="yes"/>
      <point x="474" y="629"/>
      <point x="517" y="594"/>
      <point x="517" y="368" type="curve" smooth="yes"/>
      <point x="517" y="151"/>
      <point x="475" y="111"/>
      <point x="348" y="111" type="curve" smooth="yes"/>
      <point x="218" y="111"/>
      <point x="179" y="151"/>
    </contour>
    <contour>
      <point x="49" y="368" type="curve" smooth="yes"/>
      <point x="49" y="50"/>
      <point x="149" y="-6"/>
      <point x="348" y="-6" type="curve" smooth="yes"/>
      <point x="547" y="-6"/>
      <point x="647" y="50"/>
      <point x="647" y="368" type="curve" smooth="yes"/>
      <point x="647" y="686"/>
      <point x="548" y="746"/>
      <point x="348" y="746" type="curve" smooth="yes"/>
      <point x="151" y="746"/>
      <point x="49" y="686"/>
    </contour>
    <contour>
      <point x="348" y="810" type="move" name="top"/>
    </contour>
    <contour>
      <point x="412" y="0" type="move" name="ogonek"/>
    </contour>
    <contour>
      <point x="348" y="-150" type="move" name="bottom"/>
    </contour>
  </outline>
</glyph>
<glyph name="P" format="1">
  <advance width="617"/>
  <unicode hex="0050"/>
  <note>
    GF Latin Plus glyph
  </note>
  <outline>
    <contour>
      <point x="198" y="351" type="line"/>
      <point x="198" y="622" type="line"/>
      <point x="362" y="622" type="line" smooth="yes"/>
      <point x="414" y="622"/>
      <point x="451" y="589"/>
      <point x="451" y="489" type="curve" smooth="yes"/>
      <point x="451" y="387"/>
      <point x="415" y="351"/>
      <point x="358" y="351" type="curve" smooth="yes"/>
    </contour>
    <contour>
      <point x="67" y="0" type="line"/>
      <point x="198" y="0" type="line"/>
      <point x="198" y="249" type="line"/>
      <point x="233" y="245"/>
      <point x="332" y="234"/>
      <point x="378" y="234" type="curve" smooth="yes"/>
      <point x="466" y="234"/>
      <point x="582" y="269"/>
      <point x="582" y="490" type="curve" smooth="yes"/>
      <point x="582" y="709"/>
      <point x="468" y="739"/>
      <point x="375" y="739" type="curve" smooth="yes"/>
      <point x="67" y="739" type="line"/>
    </contour>
    <contour>
      <point x="301" y="810" type="move" name="top"/>
    </contour>
  </outline>
</glyph>
<glyph name="Q" format="1">
  <advance width="696"/>
  <unicode hex="0051"/>
  <note>
    GF Latin Plus glyph
  </note>
  <outline>
    <contour>
      <point x="325" y="-36" type="line"/>
      <point x="331" y="-142"/>
      <point x="422" y="-190"/>
      <point x="512" y="-190" type="curve" smooth="yes"/>
      <point x="530" y="-190"/>
      <point x="547" y="-186"/>
      <point x="566" y="-183" type="curve"/>
      <point x="566" y="-86" type="line"/>
      <point x="548" y="-90"/>
      <point x="527" y="-96"/>
      <point x="506" y="-96" type="curve" smooth="yes"/>
      <point x="466" y="-96"/>
      <point x="425" y="-79"/>
      <point x="415" y="-36" type="curve"/>
    </contour>
    <component base="O"/>
  </outline>
</glyph>
<glyph name="R" format="1">
  <advance width="622"/>
  <unicode hex="0052"/>
  <note>
    GF Latin Plus glyph
  </note>
  <outline>
    <contour>
      <point x="67" y="0" type="line"/>
      <point x="198" y="0" type="line"/>
      <point x="198" y="283" type="line"/>
      <point x="222" y="282"/>
      <point x="315" y="282"/>
      <point x="335" y="281" type="curve"/>
      <point x="461" y="0" type="line"/>
      <point x="593" y="0" type="line"/>
      <point x="452" y="301" type="line"/>
      <point x="511" y="322"/>
      <point x="575" y="363"/>
      <point x="575" y="508" type="curve" smooth="yes"/>
      <point x="575" y="696"/>
      <point x="480" y="739"/>
      <point x="369" y="739" type="curve" smooth="yes"/>
      <point x="67" y="739" type="line"/>
    </contour>
    <contour>
      <point x="198" y="386" type="line"/>
      <point x="198" y="622" type="line"/>
      <point x="347" y="622" type="line" smooth="yes"/>
      <point x="403" y="622"/>
      <point x="445" y="602"/>
      <point x="445" y="507" type="curve" smooth="yes"/>
      <point x="445" y="409"/>
      <point x="404" y="386"/>
      <point x="347" y="386" type="curve" smooth="yes"/>
    </contour>
    <contour>
      <point x="298" y="810" type="move" name="top"/>
    </contour>
    <contour>
      <point x="302" y="-150" type="move" name="bottom"/>
    </contour>
  </outline>
</glyph>
<glyph name="S" format="1">
  <advance width="587"/>
  <unicode hex="0053"/>
  <note>
    GF Latin Plus glyph
  </note>
  <outline>
    <contour>
      <point x="50" y="503" type="line" smooth="yes"/>
      <point x="50" y="359"/>
      <point x="126" y="306"/>
      <point x="262" y="306" type="curve" smooth="yes"/>
      <point x="330" y="306" type="line" smooth="yes"/>
      <point x="384" y="306"/>
      <point x="414" y="278"/>
      <point x="414" y="228" type="curve" smooth="yes"/>
      <point x="414" y="195" type="line" smooth="yes"/>
      <point x="414" y="128"/>
      <point x="360" y="111"/>
      <point x="281" y="111" type="curve" smooth="yes"/>
      <point x="205" y="111"/>
      <point x="114" y="114"/>
      <point x="57" y="119" type="curve"/>
      <point x="57" y="17" type="line"/>
      <point x="116" y="3"/>
      <point x="215" y="-6"/>
      <point x="287" y="-6" type="curve" smooth="yes"/>
      <point x="433" y="-6"/>
      <point x="538" y="31"/>
      <point x="538" y="199" type="curve" smooth="yes"/>
      <point x="538" y="245" type="line" smooth="yes"/>
      <point x="538" y="351"/>
      <point x="475" y="430"/>
      <point x="346" y="430" type="curve" smooth="yes"/>
      <point x="269" y="430" type="line" smooth="yes"/>
      <point x="207" y="430"/>
      <point x="174" y="452"/>
      <point x="174" y="512" type="curve" smooth="yes"/>
      <point x="174" y="535" type="line" smooth="yes"/>
      <point x="174" y="610"/>
      <point x="221" y="628"/>
      <point x="297" y="628" type="curve" smooth="yes"/>
      <point x="361" y="628"/>
      <point x="442" y="623"/>
      <point x="503" y="619" type="curve"/>
      <point x="503" y="721" type="line"/>
      <point x="449" y="732"/>
      <point x="358" y="745"/>
      <point x="282" y="745" type="curve" smooth="yes"/>
      <point x="132" y="745"/>
      <point x="50" y="684"/>
      <point x="50" y="541" type="curve" smooth="yes"/>
    </contour>
    <contour>
      <point x="288" y="810" type="move" name="top"/>
    </contour>
    <contour>
      <point x="288" y="-150" type="move" name="bottom"/>
    </contour>
  </outline>
</glyph>
<glyph name="W" format="1">
  <advance width="991"/>
  <unicode hex="0057"/>
  <note>
    GF Latin Plus glyph
  </note>
  <outline>
    <contour>
      <point x="23" y="738" type="line"/>
      <point x="204" y="0" type="line"/>
      <point x="332" y="0" type="line"/>
      <point x="496" y="559" type="line"/>
      <point x="659" y="0" type="line"/>
      <point x="787" y="0" type="line"/>
      <point x="968" y="738" type="line"/>
      <point x="840" y="738" type="line"/>
      <point x="707" y="180" type="line"/>
      <point x="554" y="738" type="line"/>
      <point x="438" y="738" type="line"/>
      <point x="284" y="180" type="line"/>
      <point x="151" y="738" type="line"/>
    </contour>
    <contour>
      <point x="517" y="810" type="move" name="top"/>
    </contour>
  </outline>
</glyph>
<glyph name="X" format="1">
  <advance width="653"/>
  <unicode hex="0058"/>
  <note>
    GF Latin Plus glyph
  </note>
  <outline>
    <contour>
      <point x="25" y="0" type="line"/>
      <point x="168" y="0" type="line"/>
      <point x="337" y="289" type="line"/>
      <point x="270" y="399" type="line"/>
    </contour>
    <contour>
      <point x="316" y="442" type="line"/>
      <point x="381" y="331" type="line"/>
      <point x="631" y="739" type="line"/>
      <point x="488" y="739" type="line"/>
    </contour>
    <contour>
      <point x="22" y="739" type="line"/>
      <point x="484" y="0" type="line"/>
      <point x="628" y="0" type="line"/>
      <point x="165" y="739" type="line"/>
    </contour>
    <contour>
      <point x="309" y="810" type="move" name="top"/>
    </contour>
    <contour>
      <point x="309" y="-150" type="move" name="bottom"/>
    </contour>
  </outline>
</glyph>
<glyph name="bracketleft" format="1">
  <advance width="337"/>
  <unicode hex="005B"/>
  <note>
    GF Latin Plus glyph
  </note>
  <outline>
    <contour>
      <point x="76" y="-9" type="line" smooth="yes"/>
      <point x="76" y="-91"/>
      <point x="98" y="-210"/>
      <point x="247" y="-210" type="curve" smooth="yes"/>
      <point x="320" y="-210" type="line"/>
      <point x="320" y="-110" type="line"/>
      <point x="282" y="-110" type="line" smooth="yes"/>
      <point x="226" y="-110"/>
      <point x="200" y="-71"/>
      <point x="200" y="-3" type="curve" smooth="yes"/>
      <point x="200" y="635" type="line" smooth="yes"/>
      <point x="200" y="713"/>
      <point x="233" y="742"/>
      <point x="282" y="742" type="curve" smooth="yes"/>
      <point x="320" y="742" type="line"/>
      <point x="320" y="842" type="line"/>
      <point x="247" y="842" type="line" smooth="yes"/>
      <point x="115" y="842"/>
      <point x="76" y="755"/>
      <point x="76" y="652" type="curve" smooth="yes"/>
    </contour>
  </outline>
</glyph>
<glyph name="a" format="1">
  <advance width="548"/>
  <unicode hex="0061"/>
  <note>
    GF Latin Plus glyph
  </note>
  <outline>
    <contour>
      <point x="161" y="150" type="curve" smooth="yes"/>
      <point x="161" y="172" type="line" smooth="yes"/>
      <point x="161" y="216"/>
      <point x="187" y="244"/>
      <point x="248" y="249" type="curve" smooth="yes"/>
      <point x="364" y="255" type="line"/>
      <point x="364" y="115" type="line"/>
      <point x="358" y="112"/>
      <point x="278" y="81"/>
      <point x="234" y="81" type="curve" smooth="yes"/>
      <point x="196" y="82"/>
      <point x="161" y="99"/>
    </contour>
    <contour>
      <point x="38" y="129" type="line" smooth="yes"/>
      <point x="38" y="45"/>
      <point x="94" y="-6"/>
      <point x="174" y="-6" type="curve" smooth="yes"/>
      <point x="264" y="-6"/>
      <point x="354" y="43"/>
      <point x="370" y="58" type="curve"/>
      <point x="391" y="0" type="line"/>
      <point x="488" y="0" type="line"/>
      <point x="488" y="369" type="line" smooth="yes"/>
      <point x="488" y="500"/>
      <point x="416" y="544"/>
      <point x="283" y="543" type="curve" smooth="yes"/>
      <point x="191" y="543"/>
      <point x="127" y="532"/>
      <point x="77" y="518" type="curve"/>
      <point x="77" y="446" type="line"/>
      <point x="239" y="446" type="line" smooth="yes"/>
      <point x="343" y="446"/>
      <point x="364" y="417"/>
      <point x="364" y="361" type="curve" smooth="yes"/>
      <point x="364" y="314" type="line"/>
      <point x="211" y="314" type="line" smooth="yes"/>
      <point x="93" y="314"/>
      <point x="38" y="256"/>
      <point x="38" y="174" type="curve" smooth="yes"/>
    </contour>
    <contour>
      <point x="270" y="650" type="move" name="top"/>
    </contour>
    <contour>
      <point x="478" y="0" type="move" name="ogonek"/>
    </contour>
    <contour>
      <point x="270" y="-150" type="move" name="bottom"/>
    </contour>
  </outline>
</glyph>
<glyph name="b" format="1">
  <advance width="583"/>
  <unicode hex="0062"/>
  <note>
    GF Latin Plus glyph
  </note>
  <outline>
    <contour>
      <point x="192" y="131" type="curve"/>
      <point x="192" y="405" type="line"/>
      <point x="224" y="423"/>
      <point x="262" y="439"/>
      <point x="306" y="439" type="curve" smooth="yes"/>
      <point x="362" y="439"/>
      <point x="408" y="417"/>
      <point x="408" y="269" type="curve" smooth="yes"/>
      <point x="408" y="143"/>
      <point x="368" y="100"/>
      <point x="306" y="100" type="curve" smooth="yes"/>
      <point x="257" y="100"/>
      <point x="221" y="116"/>
    </contour>
    <contour>
      <point x="62" y="0" type="line"/>
      <point x="170" y="0" type="line"/>
      <point x="192" y="52" type="line"/>
      <point x="232" y="22"/>
      <point x="281" y="-6"/>
      <point x="354" y="-6" type="curve" smooth="yes"/>
      <point x="481" y="-6"/>
      <point x="538" y="86"/>
      <point x="538" y="263" type="curve" smooth="yes"/>
      <point x="538" y="465"/>
      <point x="483" y="544"/>
      <point x="348" y="544" type="curve" smooth="yes"/>
      <point x="298" y="544"/>
      <point x="237" y="521"/>
      <point x="192" y="496" type="curve"/>
      <point x="192" y="763" type="line"/>
      <point x="62" y="763" type="line"/>
    </contour>
  </outline>
</glyph>
<glyph name="d" format="1">
  <advance width="581"/>
  <unicode hex="0064"/>
  <note>
    GF Latin Plus glyph
  </note>
  <outline>
    <contour>
      <point x="175" y="269" type="curve" smooth="yes"/>
      <point x="175" y="410"/>
      <point x="206" y="446"/>
      <point x="288" y="446" type="curve" smooth="yes"/>
      <point x="327" y="446"/>
      <point x="360" y="435"/>
      <point x="391" y="424" type="curve"/>
      <point x="391" y="133" type="line"/>
      <point x="365" y="117"/>
      <point x="327" y="99"/>
      <point x="281" y="99" type="curve" smooth="yes"/>
      <point x="204" y="99"/>
      <point x="175" y="137"/>
    </contour>
    <contour>
      <point x="45" y="263" type="curve" smooth="yes"/>
      <point x="45" y="71"/>
      <point x="110" y="-6"/>
      <point x="237" y="-6" type="curve" smooth="yes"/>
      <point x="293" y="-6"/>
      <point x="358" y="22"/>
      <point x="391" y="52" type="curve"/>
      <point x="413" y="0" type="line"/>
      <point x="522" y="0" type="line"/>
      <point x="522" y="763" type="line"/>
      <point x="391" y="763" type="line"/>
      <point x="391" y="517" type="line"/>
      <point x="352" y="531"/>
      <point x="299" y="544"/>
      <point x="247" y="544" type="curve" smooth="yes"/>
      <point x="95" y="544"/>
      <point x="45" y="462"/>
    </contour>
    <contour>
      <point x="542" y="650" type="move" name="altcaron"/>
    </contour>
    <contour>
      <point x="284" y="-150" type="move" name="bottom"/>
    </contour>
  </outline>
</glyph>
<glyph name="e" format="1">
  <advance width="538"/>
  <unicode hex="0065"/>
  <note>
    GF Latin Plus glyph
  </note>
  <outline>
    <contour>
      <point x="173" y="300" type="line"/>
      <point x="173" y="418"/>
      <point x="199" y="449"/>
      <point x="279" y="449" type="curve" smooth="yes"/>
      <point x="351" y="449"/>
      <point x="378" y="427"/>
      <point x="378" y="360" type="curve" smooth="yes"/>
      <point x="378" y="315"/>
      <point x="358" y="300"/>
      <point x="312" y="300" type="curve" smooth="yes"/>
    </contour>
    <contour>
      <point x="45" y="268" type="curve" smooth="yes"/>
      <point x="45" y="56"/>
      <point x="107" y="-5"/>
      <point x="282" y="-5" type="curve" smooth="yes"/>
      <point x="365" y="-5"/>
      <point x="422" y="5"/>
      <point x="477" y="16" type="curve"/>
      <point x="477" y="92" type="line"/>
      <point x="316" y="92" type="line" smooth="yes"/>
      <point x="201" y="92"/>
      <point x="177" y="126"/>
      <point x="174" y="221" type="curve"/>
      <point x="326" y="221" type="line" smooth="yes"/>
      <point x="428" y="221"/>
      <point x="493" y="256"/>
      <point x="493" y="361" type="curve" smooth="yes"/>
      <point x="493" y="504"/>
      <point x="433" y="544"/>
      <point x="279" y="544" type="curve" smooth="yes"/>
      <point x="104" y="544"/>
      <point x="45" y="485"/>
    </contour>
    <contour>
      <point x="270" y="650" type="move" name="top"/>
    </contour>
    <contour>
      <point x="467" y="24" type="move" name="ogonek"/>
    </contour>
    <contour>
      <point x="270" y="-150" type="move" name="bottom"/>
    </contour>
  </outline>
</glyph>
<glyph name="g" format="1">
  <advance width="580"/>
  <unicode hex="0067"/>
  <note>
    GF Latin Plus glyph
  </note>
  <outline>
    <contour>
      <point x="171" y="354" type="curve" smooth="yes"/>
      <point x="171" y="416"/>
      <point x="201" y="439"/>
      <point x="258" y="439" type="curve" smooth="yes"/>
      <point x="314" y="439" type="line" smooth="yes"/>
      <point x="367" y="439"/>
      <point x="399" y="415"/>
      <point x="399" y="350" type="curve" smooth="yes"/>
      <point x="399" y="303"/>
      <point x="380" y="268"/>
      <point x="309" y="268" type="curve" smooth="yes"/>
      <point x="252" y="268" type="line" smooth="yes"/>
      <point x="199" y="268"/>
      <point x="171" y="293"/>
    </contour>
    <contour>
      <point x="53" y="362" type="curve" smooth="yes"/>
      <point x="53" y="302"/>
      <point x="74" y="242"/>
      <point x="141" y="208" type="curve"/>
      <point x="86" y="196"/>
      <point x="52" y="159"/>
      <point x="52" y="106" type="curve" smooth="yes"/>
      <point x="52" y="42"/>
      <point x="107" y="-5"/>
      <point x="217" y="-5" type="curve" smooth="yes"/>
      <point x="347" y="-5" type="line" smooth="yes"/>
      <point x="411" y="-5"/>
      <point x="436" y="-30"/>
      <point x="436" y="-71" type="curve" smooth="yes"/>
      <point x="436" y="-87" type="line" smooth="yes"/>
      <point x="436" y="-133"/>
      <point x="399" y="-155"/>
      <point x="342" y="-155" type="curve" smooth="yes"/>
      <point x="234" y="-155" type="line" smooth="yes"/>
      <point x="178" y="-155"/>
      <point x="146" y="-134"/>
      <point x="146" y="-89" type="curve" smooth="yes"/>
      <point x="146" y="-74" type="line" smooth="yes"/>
      <point x="146" y="-28"/>
      <point x="184" y="-5"/>
      <point x="232" y="-5" type="curve"/>
      <point x="193" y="37" type="line"/>
      <point x="108" y="37"/>
      <point x="23" y="-11"/>
      <point x="23" y="-99" type="curve" smooth="yes"/>
      <point x="23" y="-117" type="line" smooth="yes"/>
      <point x="23" y="-202"/>
      <point x="97" y="-247"/>
      <point x="199" y="-247" type="curve" smooth="yes"/>
      <point x="357" y="-247" type="line" smooth="yes"/>
      <point x="493" y="-247"/>
      <point x="559" y="-185"/>
      <point x="559" y="-81" type="curve" smooth="yes"/>
      <point x="559" y="-64" type="line" smooth="yes"/>
      <point x="559" y="48"/>
      <point x="491" y="93"/>
      <point x="368" y="93" type="curve" smooth="yes"/>
      <point x="212" y="93" type="line" smooth="yes"/>
      <point x="187" y="93"/>
      <point x="163" y="102"/>
      <point x="163" y="127" type="curve" smooth="yes"/>
      <point x="163" y="158"/>
      <point x="190" y="169"/>
      <point x="231" y="169" type="curve" smooth="yes"/>
      <point x="324" y="169" type="line" smooth="yes"/>
      <point x="465" y="169"/>
      <point x="516" y="242"/>
      <point x="516" y="333" type="curve" smooth="yes"/>
      <point x="516" y="404"/>
      <point x="490" y="432"/>
      <point x="469" y="451" type="curve"/>
      <point x="561" y="465" type="line"/>
      <point x="561" y="537" type="line"/>
      <point x="272" y="537" type="line" smooth="yes"/>
      <point x="127" y="537"/>
      <point x="53" y="482"/>
    </contour>
    <contour>
      <point x="290" y="650" type="move" name="top"/>
    </contour>
  </outline>
</glyph>
<glyph name="h" format="1">
  <advance width="593"/>
  <unicode hex="0068"/>
  <note>
    GF Latin Plus glyph
  </note>
  <outline>
    <contour>
      <point x="62" y="0" type="line"/>
      <point x="192" y="0" type="line"/>
      <point x="192" y="385" type="line"/>
      <point x="230" y="410"/>
      <point x="269" y="428"/>
      <point x="319" y="428" type="curve" smooth="yes"/>
      <point x="369" y="428"/>
      <point x="404" y="396"/>
      <point x="404" y="341" type="curve" smooth="yes"/>
      <point x="404" y="0" type="line"/>
      <point x="534" y="0" type="line"/>
      <point x="534" y="358" type="line" smooth="yes"/>
      <point x="534" y="467"/>
      <point x="489" y="545"/>
      <point x="369" y="545" type="curve" smooth="yes"/>
      <point x="302" y="545"/>
      <point x="232" y="513"/>
      <point x="192" y="480" type="curve"/>
      <point x="192" y="763" type="line"/>
      <point x="62" y="763" type="line"/>
    </contour>
    <contour>
      <point x="127" y="869" type="move" name="top"/>
    </contour>
  </outline>
</glyph>
<glyph name="i" format="1">
  <advance width="254"/>
  <unicode hex="0069"/>
  <note>
    GF Latin Plus glyph
  </note>
  <outline>
    <contour>
      <point x="59" y="638" type="line" smooth="yes"/>
      <point x="59" y="627"/>
      <point x="67" y="619"/>
      <point x="78" y="619" type="curve" smooth="yes"/>
      <point x="177" y="619" type="line" smooth="yes"/>
      <point x="189" y="619"/>
      <point x="195" y="626"/>
      <point x="195" y="638" type="curve" smooth="yes"/>
      <point x="195" y="731" type="line" smooth="yes"/>
      <point x="195" y="742"/>
      <point x="190" y="751"/>
      <point x="177" y="751" type="curve" smooth="yes"/>
      <point x="78" y="751" type="line" smooth="yes"/>
      <point x="65" y="751"/>
      <point x="59" y="743"/>
      <point x="59" y="731" type="curve" smooth="yes"/>
    </contour>
    <component base="dotlessi"/>
    <contour>
      <point x="182" y="0" type="move" name="ogonek"/>
    </contour>
    <contour>
      <point x="127" y="-150" type="move" name="bottom"/>
    </contour>
  </outline>
</glyph>
<glyph name="j" format="1">
  <advance width="251"/>
  <unicode hex="006A"/>
  <note>
    GF Latin Plus glyph
  </note>
  <outline>
    <contour>
      <point x="60" y="639" type="line" smooth="yes"/>
      <point x="60" y="628"/>
      <point x="68" y="621"/>
      <point x="79" y="621" type="curve" smooth="yes"/>
      <point x="172" y="621" type="line" smooth="yes"/>
      <point x="184" y="621"/>
      <point x="190" y="627"/>
      <point x="190" y="639" type="curve" smooth="yes"/>
      <point x="190" y="730" type="line" smooth="yes"/>
      <point x="190" y="741"/>
      <point x="185" y="750"/>
      <point x="172" y="750" type="curve" smooth="yes"/>
      <point x="79" y="750" type="line" smooth="yes"/>
      <point x="66" y="750"/>
      <point x="60" y="742"/>
      <point x="60" y="730" type="curve" smooth="yes"/>
    </contour>
    <component base="jdotless"/>
  </outline>
</glyph>
<glyph name="l" format="1">
  <advance width="308"/>
  <unicode hex="006C"/>
  <note>
    GF Latin Plus glyph
  </note>
  <outline>
    <contour>
      <point x="62" y="160" type="line" smooth="yes"/>
      <point x="62" y="45"/>
      <point x="115" y="-2"/>
      <point x="223" y="-2" type="curve" smooth="yes"/>
      <point x="297" y="-2" type="line"/>
      <point x="297" y="92" type="line"/>
      <point x="253" y="98" type="line" smooth="yes"/>
      <point x="213" y="103"/>
      <point x="192" y="122"/>
      <point x="192" y="192" type="curve" smooth="yes"/>
      <point x="192" y="763" type="line"/>
      <point x="62" y="763" type="line"/>
    </contour>
    <contour>
      <point x="212" y="650" type="move" name="altcaron"/>
    </contour>
    <contour>
      <point x="127" y="869" type="move" name="top"/>
    </contour>
    <contour>
      <point x="180" y="-150" type="move" name="bottom"/>
    </contour>
  </outline>
</glyph>
<glyph name="m" format="1">
  <advance width="936"/>
  <unicode hex="006D"/>
  <note>
    GF Latin Plus glyph
  </note>
  <outline>
    <contour>
      <point x="62" y="0" type="line"/>
      <point x="192" y="0" type="line"/>
      <point x="192" y="385" type="line"/>
      <point x="230" y="411"/>
      <point x="269" y="428"/>
      <point x="319" y="428" type="curve" smooth="yes"/>
      <point x="371" y="428"/>
      <point x="404" y="396"/>
      <point x="404" y="340" type="curve" smooth="yes"/>
      <point x="404" y="0" type="line"/>
      <point x="534" y="0" type="line"/>
      <point x="534" y="338" type="line" smooth="yes"/>
      <point x="534" y="353"/>
      <point x="532" y="368"/>
      <point x="528" y="382" type="curve"/>
      <point x="566" y="407"/>
      <point x="615" y="428"/>
      <point x="661" y="428" type="curve" smooth="yes"/>
      <point x="713" y="428"/>
      <point x="747" y="396"/>
      <point x="747" y="340" type="curve" smooth="yes"/>
      <point x="747" y="0" type="line"/>
      <point x="877" y="0" type="line"/>
      <point x="877" y="351" type="line" smooth="yes"/>
      <point x="877" y="466"/>
      <point x="834" y="545"/>
      <point x="708" y="545" type="curve" smooth="yes"/>
      <point x="637" y="545"/>
      <point x="559" y="503"/>
      <point x="513" y="469" type="curve"/>
      <point x="489" y="513"/>
      <point x="444" y="545"/>
      <point x="377" y="545" type="curve" smooth="yes"/>
      <point x="296" y="545"/>
      <point x="241" y="515"/>
      <point x="192" y="480" type="curve"/>
      <point x="168" y="536" type="line"/>
      <point x="62" y="536" type="line"/>
    </contour>
    <contour>
      <point x="481" y="650" type="move" name="top"/>
    </contour>
    <contour>
      <point x="468" y="-150" type="move" name="bottom"/>
    </contour>
  </outline>
</glyph>
<glyph name="n" format="1">
  <advance width="593"/>
  <unicode hex="006E"/>
  <note>
    GF Latin Plus glyph
  </note>
  <outline>
    <contour>
      <point x="62" y="0" type="line"/>
      <point x="192" y="0" type="line"/>
      <point x="192" y="385" type="line"/>
      <point x="230" y="411"/>
      <point x="269" y="428"/>
      <point x="319" y="428" type="curve" smooth="yes"/>
      <point x="371" y="428"/>
      <point x="404" y="396"/>
      <point x="404" y="340" type="curve" smooth="yes"/>
      <point x="404" y="0" type="line"/>
      <point x="534" y="0" type="line"/>
      <point x="534" y="356" type="line" smooth="yes"/>
      <point x="534" y="459"/>
      <point x="495" y="545"/>
      <point x="368" y="545" type="curve" smooth="yes"/>
      <point x="302" y="545"/>
      <point x="234" y="513"/>
      <point x="192" y="480" type="curve"/>
      <point x="168" y="536" type="line"/>
      <point x="62" y="536" type="line"/>
    </contour>
    <contour>
      <point x="296" y="650" type="move" name="top"/>
    </contour>
    <contour>
      <point x="296" y="-150" type="move" name="bottom"/>
    </contour>
  </outline>
</glyph>
<glyph name="o" format="1">
  <advance width="576"/>
  <unicode hex="006F"/>
  <note>
    GF Latin Plus glyph
  </note>
  <outline>
    <contour>
      <point x="175" y="270" type="curve" smooth="yes"/>
      <point x="175" y="428"/>
      <point x="210" y="446"/>
      <point x="287" y="446" type="curve" smooth="yes"/>
      <point x="365" y="446"/>
      <point x="400" y="428"/>
      <point x="400" y="270" type="curve" smooth="yes"/>
      <point x="400" y="111"/>
      <point x="365" y="93"/>
      <point x="287" y="93" type="curve" smooth="yes"/>
      <point x="210" y="93"/>
      <point x="175" y="111"/>
    </contour>
    <contour>
      <point x="45" y="269" type="curve" smooth="yes"/>
      <point x="45" y="58"/>
      <point x="115" y="-5"/>
      <point x="287" y="-5" type="curve" smooth="yes"/>
      <point x="462" y="-5"/>
      <point x="531" y="54"/>
      <point x="531" y="269" type="curve" smooth="yes"/>
      <point x="531" y="487"/>
      <point x="459" y="544"/>
      <point x="287" y="544" type="curve" smooth="yes"/>
      <point x="117" y="544"/>
      <point x="45" y="491"/>
    </contour>
    <contour>
      <point x="287" y="650" type="move" name="top"/>
    </contour>
    <contour>
      <point x="338" y="0" type="move" name="ogonek"/>
    </contour>
    <contour>
      <point x="287" y="-150" type="move" name="bottom"/>
    </contour>
  </outline>
</glyph>
<glyph name="p" format="1">
  <advance width="583"/>
  <unicode hex="0070"/>
  <note>
    GF Latin Plus glyph
  </note>
  <outline>
    <contour>
      <point x="192" y="131" type="curve"/>
      <point x="192" y="405" type="line"/>
      <point x="220" y="421"/>
      <point x="260" y="439"/>
      <point x="307" y="439" type="curve" smooth="yes"/>
      <point x="363" y="439"/>
      <point x="408" y="395"/>
      <point x="408" y="262" type="curve" smooth="yes"/>
      <point x="408" y="135"/>
      <point x="361" y="100"/>
      <point x="306" y="100" type="curve" smooth="yes"/>
      <point x="266" y="100"/>
      <point x="223" y="113"/>
    </contour>
    <contour>
      <point x="62" y="-237" type="line"/>
      <point x="192" y="-237" type="line"/>
      <point x="192" y="32" type="line"/>
      <point x="237" y="7"/>
      <point x="295" y="-7"/>
      <point x="348" y="-7" type="curve" smooth="yes"/>
      <point x="490" y="-7"/>
      <point x="538" y="93"/>
      <point x="538" y="268" type="curve" smooth="yes"/>
      <point x="538" y="433"/>
      <point x="483" y="544"/>
      <point x="348" y="544" type="curve" smooth="yes"/>
      <point x="285" y="544"/>
      <point x="229" y="513"/>
      <point x="192" y="484" type="curve"/>
      <point x="170" y="536" type="line"/>
      <point x="62" y="536" type="line"/>
    </contour>
  </outline>
</glyph>
<glyph name="q" format="1">
  <advance width="580"/>
  <unicode hex="0071"/>
  <note>
    GF Latin Plus glyph
  </note>
  <outline>
    <contour>
      <point x="170" y="272" type="curve" smooth="yes"/>
      <point x="170" y="387"/>
      <point x="198" y="450"/>
      <point x="286" y="450" type="curve" smooth="yes"/>
      <point x="395" y="450" type="line"/>
      <point x="395" y="129" type="line"/>
      <point x="361" y="109"/>
      <point x="315" y="94"/>
      <point x="275" y="94" type="curve" smooth="yes"/>
      <point x="199" y="94"/>
      <point x="170" y="136"/>
    </contour>
    <contour>
      <point x="47" y="268" type="curve" smooth="yes"/>
      <point x="47" y="82"/>
      <point x="95" y="-6"/>
      <point x="240" y="-6" type="curve" smooth="yes"/>
      <point x="293" y="-6"/>
      <point x="352" y="20"/>
      <point x="395" y="52" type="curve"/>
      <point x="395" y="-237" type="line"/>
      <point x="519" y="-237" type="line"/>
      <point x="519" y="525" type="line"/>
      <point x="453" y="534"/>
      <point x="345" y="543"/>
      <point x="250" y="543" type="curve" smooth="yes"/>
      <point x="110" y="543"/>
      <point x="47" y="467"/>
    </contour>
  </outline>
</glyph>
<glyph name="r" format="1">
  <advance width="420"/>
  <unicode hex="0072"/>
  <note>
    GF Latin Plus glyph
  </note>
  <outline>
    <contour>
      <point x="62" y="0" type="line"/>
      <point x="192" y="0" type="line"/>
      <point x="192" y="346" type="line"/>
      <point x="233" y="388"/>
      <point x="274" y="409"/>
      <point x="336" y="409" type="curve" smooth="yes"/>
      <point x="355" y="409"/>
      <point x="378" y="407"/>
      <point x="398" y="405" type="curve"/>
      <point x="398" y="538" type="line"/>
      <point x="384" y="542"/>
      <point x="367" y="543"/>
      <point x="352" y="543" type="curve" smooth="yes"/>
      <point x="283" y="543"/>
      <point x="233" y="502"/>
      <point x="192" y="451" type="curve"/>
      <point x="162" y="536" type="line"/>
      <point x="62" y="536" type="line"/>
    </contour>
    <contour>
      <point x="219" y="650" type="move" name="top"/>
    </contour>
    <contour>
      <point x="127" y="-150" type="move" name="bottom"/>
    </contour>
  </outline>
</glyph>
<glyph name="s" format="1">
  <advance width="504"/>
  <unicode hex="0073"/>
  <note>
    GF Latin Plus glyph
  </note>
  <outline>
    <contour>
      <point x="39" y="357" type="line" smooth="yes"/>
      <point x="39" y="250"/>
      <point x="108" y="215"/>
      <point x="201" y="215" type="curve" smooth="yes"/>
      <point x="283" y="215" type="line" smooth="yes"/>
      <point x="335" y="215"/>
      <point x="353" y="196"/>
      <point x="353" y="164" type="curve" smooth="yes"/>
      <point x="353" y="145" type="line" smooth="yes"/>
      <point x="353" y="101"/>
      <point x="327" y="92"/>
      <point x="280" y="92" type="curve" smooth="yes"/>
      <point x="47" y="92" type="line"/>
      <point x="47" y="16" type="line"/>
      <point x="89" y="1"/>
      <point x="191" y="-6"/>
      <point x="254" y="-6" type="curve" smooth="yes"/>
      <point x="387" y="-6"/>
      <point x="465" y="27"/>
      <point x="465" y="136" type="curve" smooth="yes"/>
      <point x="465" y="181" type="line" smooth="yes"/>
      <point x="465" y="268"/>
      <point x="415" y="320"/>
      <point x="309" y="320" type="curve" smooth="yes"/>
      <point x="226" y="320" type="line" smooth="yes"/>
      <point x="177" y="320"/>
      <point x="150" y="327"/>
      <point x="150" y="369" type="curve" smooth="yes"/>
      <point x="150" y="387" type="line" smooth="yes"/>
      <point x="150" y="430"/>
      <point x="175" y="442"/>
      <point x="222" y="442" type="curve" smooth="yes"/>
      <point x="441" y="442" type="line"/>
      <point x="441" y="519" type="line"/>
      <point x="401" y="530"/>
      <point x="311" y="541"/>
      <point x="247" y="541" type="curve" smooth="yes"/>
      <point x="91" y="541"/>
      <point x="39" y="489"/>
      <point x="39" y="387" type="curve" smooth="yes"/>
    </contour>
    <contour>
      <point x="244" y="650" type="move" name="top"/>
    </contour>
    <contour>
      <point x="244" y="-150" type="move" name="bottom"/>
    </contour>
  </outline>
</glyph>
<glyph name="t" format="1">
  <advance width="383"/>
  <unicode hex="0074"/>
  <note>
    GF Latin Plus glyph
  </note>
  <outline>
    <contour>
      <point x="13" y="432" type="line"/>
      <point x="97" y="432" type="line"/>
      <point x="93" y="186" type="line" smooth="yes"/>
      <point x="89" y="48"/>
      <point x="141" y="0"/>
      <point x="259" y="0" type="curve" smooth="yes"/>
      <point x="350" y="0" type="line"/>
      <point x="350" y="96" type="line"/>
      <point x="283" y="103" type="line" smooth="yes"/>
      <point x="252" y="106"/>
      <point x="222" y="120"/>
      <point x="222" y="187" type="curve" smooth="yes"/>
      <point x="222" y="432" type="line"/>
      <point x="356" y="432" type="line"/>
      <point x="356" y="536" type="line"/>
      <point x="222" y="536" type="line"/>
      <point x="222" y="686" type="line"/>
      <point x="120" y="686" type="line"/>
      <point x="102" y="536" type="line"/>
      <point x="13" y="515" type="line"/>
    </contour>
    <contour>
      <point x="242" y="650" type="move" name="altcaron"/>
    </contour>
    <contour>
      <point x="205" y="-150" type="move" name="bottom"/>
    </contour>
  </outline>
</glyph>
<glyph name="x" format="1">
  <advance width="529"/>
  <unicode hex="0078"/>
  <note>
    GF Latin Plus glyph
  </note>
  <outline>
    <contour>
      <point x="13" y="0" type="line"/>
      <point x="145" y="0" type="line"/>
      <point x="269" y="192" type="line"/>
      <point x="217" y="308" type="line"/>
    </contour>
    <contour>
      <point x="254" y="330" type="line"/>
      <point x="312" y="225" type="line"/>
      <point x="516" y="536" type="line"/>
      <point x="384" y="535" type="line"/>
    </contour>
    <contour>
      <point x="13" y="536" type="line"/>
      <point x="381" y="0" type="line"/>
      <point x="516" y="0" type="line"/>
      <point x="148" y="536" type="line"/>
    </contour>
  </outline>
</glyph>
<glyph name="y" format="1">
  <advance width="562"/>
  <unicode hex="0079"/>
  <note>
    GF Latin Plus glyph
  </note>
  <outline>
    <contour>
      <point x="14" y="536" type="line"/>
      <point x="122" y="139" type="line" smooth="yes"/>
      <point x="147" y="45"/>
      <point x="203" y="0"/>
      <point x="284" y="0" type="curve"/>
      <point x="223" y="-237" type="line"/>
      <point x="330" y="-237" type="line"/>
      <point x="378" y="-138" type="line"/>
      <point x="548" y="536" type="line"/>
      <point x="415" y="536" type="line"/>
      <point x="308" y="107" type="line"/>
      <point x="298" y="108"/>
      <point x="260" y="107"/>
      <point x="243" y="165" type="curve" smooth="yes"/>
      <point x="149" y="536" type="line"/>
    </contour>
    <contour>
      <point x="273" y="650" type="move" name="top"/>
    </contour>
    <contour>
      <point x="504" y="-150" type="move" name="bottom"/>
    </contour>
  </outline>
</glyph>
<glyph name="braceleft" format="1">
  <advance width="315"/>
  <unicode hex="007B"/>
  <note>
    GF Latin Plus glyph
  </note>
  <outline>
    <contour>
      <point x="17" y="273" type="line"/>
      <point x="57" y="276"/>
      <point x="87" y="252"/>
      <point x="87" y="213" type="curve" smooth="yes"/>
      <point x="87" y="-38" type="line" smooth="yes"/>
      <point x="87" y="-145"/>
      <point x="132" y="-210"/>
      <point x="298" y="-210" type="curve"/>
      <point x="298" y="-111" type="line"/>
      <point x="235" y="-111"/>
      <point x="218" y="-78"/>
      <point x="218" y="6" type="curve" smooth="yes"/>
      <point x="218" y="239" type="line" smooth="yes"/>
      <point x="218" y="290"/>
      <point x="180" y="324"/>
      <point x="123" y="334" type="curve"/>
      <point x="180" y="339"/>
      <point x="219" y="368"/>
      <point x="219" y="433" type="curve" smooth="yes"/>
      <point x="219" y="606" type="line" smooth="yes"/>
      <point x="219" y="709"/>
      <point x="239" y="737"/>
      <point x="298" y="737" type="curve"/>
      <point x="298" y="842" type="line"/>
      <point x="146" y="842"/>
      <point x="88" y="767"/>
      <point x="88" y="656" type="curve" smooth="yes"/>
      <point x="88" y="454" type="line" smooth="yes"/>
      <point x="88" y="409"/>
      <point x="50" y="397"/>
      <point x="17" y="394" type="curve"/>
    </contour>
  </outline>
</glyph>
<glyph name="braceright" format="1">
  <advance width="315"/>
  <unicode hex="007D"/>
  <note>
    GF Latin Plus glyph
  </note>
  <outline>
    <contour>
      <point x="17" y="-111" type="curve"/>
      <point x="17" y="-210" type="line"/>
      <point x="183" y="-210"/>
      <point x="228" y="-145"/>
      <point x="228" y="-38" type="curve" smooth="yes"/>
      <point x="228" y="213" type="line" smooth="yes"/>
      <point x="228" y="252"/>
      <point x="258" y="276"/>
      <point x="298" y="273" type="curve"/>
      <point x="298" y="394" type="line"/>
      <point x="265" y="397"/>
      <point x="227" y="409"/>
      <point x="227" y="454" type="curve" smooth="yes"/>
      <point x="227" y="656" type="line" smooth="yes"/>
      <point x="227" y="767"/>
      <point x="169" y="842"/>
      <point x="17" y="842" type="curve"/>
      <point x="17" y="737" type="line"/>
      <point x="76" y="737"/>
      <point x="97" y="709"/>
      <point x="97" y="606" type="curve" smooth="yes"/>
      <point x="97" y="433" type="line" smooth="yes"/>
      <point x="97" y="368"/>
      <point x="136" y="339"/>
      <point x="192" y="334" type="curve"/>
      <point x="136" y="324"/>
      <point x="98" y="290"/>
      <point x="98" y="239" type="curve" smooth="yes"/>
      <point x="98" y="6" type="line" smooth="yes"/>
      <point x="98" y="-78"/>
      <point x="80" y="-111"/>
    </contour>
  </outline>
</glyph>
<glyph name="asciitilde" format="1">
  <advance width="432"/>
  <unicode hex="007E"/>
  <note>
    GF Latin Plus glyph
  </note>
  <outline>
    <contour>
      <point x="44" y="587" type="curve"/>
      <point x="62" y="545" type="line"/>
      <point x="95" y="569"/>
      <point x="120" y="586"/>
      <point x="153" y="586" type="curve" smooth="yes"/>
      <point x="184" y="586"/>
      <point x="235" y="535"/>
      <point x="279" y="535" type="curve" smooth="yes"/>
      <point x="326" y="535"/>
      <point x="362" y="570"/>
      <point x="388" y="603" type="curve"/>
      <point x="371" y="649" type="line"/>
      <point x="348" y="628"/>
      <point x="314" y="604"/>
      <point x="281" y="604" type="curve" smooth="yes"/>
      <point x="250" y="604"/>
      <point x="204" y="655"/>
      <point x="160" y="655" type="curve" smooth="yes"/>
      <point x="112" y="655"/>
      <point x="73" y="621"/>
    </contour>
  </outline>
</glyph>
<glyph name="cent" format="1">
  <advance width="486"/>
  <unicode hex="00A2"/>
  <note>
    GF Latin Plus glyph
  </note>
  <outline>
    <contour>
      <point x="34" y="266" type="curve" smooth="yes"/>
      <point x="34" y="49"/>
      <point x="119" y="-4"/>
      <point x="227" y="-5" type="curve"/>
      <point x="227" y="-90" type="line"/>
      <point x="301" y="-90" type="line"/>
      <point x="301" y="-5" type="line"/>
      <point x="355" y="-4"/>
      <point x="400" y="6"/>
      <point x="452" y="30" type="curve"/>
      <point x="452" y="107" type="line"/>
      <point x="426" y="102"/>
      <point x="370" y="93"/>
      <point x="284" y="93" type="curve" smooth="yes"/>
      <point x="201" y="93"/>
      <point x="164" y="122"/>
      <point x="164" y="263" type="curve" smooth="yes"/>
      <point x="164" y="413"/>
      <point x="201" y="438"/>
      <point x="281" y="438" type="curve" smooth="yes"/>
      <point x="365" y="438"/>
      <point x="424" y="431"/>
      <point x="445" y="427" type="curve"/>
      <point x="445" y="504" type="line"/>
      <point x="398" y="520"/>
      <point x="347" y="531"/>
      <point x="304" y="534" type="curve"/>
      <point x="304" y="628" type="line"/>
      <point x="230" y="628" type="line"/>
      <point x="230" y="536" type="line"/>
      <point x="115" y="536"/>
      <point x="34" y="485"/>
    </contour>
  </outline>
</glyph>
<glyph name="sterling" format="1">
  <advance width="609"/>
  <unicode hex="00A3"/>
  <note>
    GF Latin Plus glyph
  </note>
  <outline>
    <contour>
      <point x="59" y="0" type="line"/>
      <point x="555" y="0" type="line"/>
      <point x="555" y="117" type="line"/>
      <point x="287" y="117" type="line"/>
      <point x="287" y="321" type="line"/>
      <point x="477" y="330" type="line"/>
      <point x="477" y="401" type="line"/>
      <point x="287" y="413" type="line"/>
      <point x="287" y="516" type="line" smooth="yes"/>
      <point x="287" y="606"/>
      <point x="321" y="626"/>
      <point x="396" y="626" type="curve" smooth="yes"/>
      <point x="549" y="626" type="line"/>
      <point x="549" y="730" type="line"/>
      <point x="513" y="736"/>
      <point x="454" y="743"/>
      <point x="390" y="743" type="curve" smooth="yes"/>
      <point x="233" y="743"/>
      <point x="156" y="681"/>
      <point x="156" y="502" type="curve" smooth="yes"/>
      <point x="156" y="413" type="line"/>
      <point x="59" y="395" type="line"/>
      <point x="59" y="330" type="line"/>
      <point x="156" y="321" type="line"/>
      <point x="156" y="117" type="line"/>
      <point x="59" y="99" type="line"/>
    </contour>
  </outline>
</glyph>
<glyph name="currency" format="1">
  <advance width="609"/>
  <unicode hex="00A4"/>
  <note>
    GF Latin Plus glyph
  </note>
  <outline>
    <contour>
      <point x="304" y="530" type="curve" smooth="yes"/>
      <point x="209" y="530"/>
      <point x="131" y="451"/>
      <point x="131" y="356" type="curve" smooth="yes"/>
      <point x="131" y="261"/>
      <point x="209" y="182"/>
      <point x="304" y="182" type="curve" smooth="yes"/>
      <point x="399" y="182"/>
      <point x="478" y="261"/>
      <point x="478" y="356" type="curve" smooth="yes"/>
      <point x="478" y="451"/>
      <point x="399" y="530"/>
    </contour>
    <contour>
      <point x="227" y="488" type="line"/>
      <point x="123" y="592" type="line"/>
      <point x="68" y="537" type="line"/>
      <point x="172" y="433" type="line"/>
    </contour>
    <contour>
      <point x="434" y="431" type="line"/>
      <point x="540" y="537" type="line"/>
      <point x="485" y="592" type="line"/>
      <point x="379" y="486" type="line"/>
    </contour>
    <contour>
      <point x="540" y="175" type="line"/>
      <point x="434" y="281" type="line"/>
      <point x="379" y="226" type="line"/>
      <point x="485" y="120" type="line"/>
    </contour>
    <contour>
      <point x="123" y="120" type="line"/>
      <point x="231" y="228" type="line"/>
      <point x="176" y="283" type="line"/>
      <point x="68" y="175" type="line"/>
    </contour>
    <contour>
      <point x="304" y="462" type="curve" smooth="yes"/>
      <point x="362" y="462"/>
      <point x="410" y="414"/>
      <point x="410" y="356" type="curve" smooth="yes"/>
      <point x="410" y="299"/>
      <point x="362" y="250"/>
      <point x="304" y="250" type="curve" smooth="yes"/>
      <point x="247" y="250"/>
      <point x="200" y="299"/>
      <point x="200" y="356" type="curve" smooth="yes"/>
      <point x="200" y="414"/>
      <point x="247" y="462"/>
    </contour>
  </outline>
</glyph>
<glyph name="section" format="1">
  <advance width="542"/>
  <unicode hex="00A7"/>
  <note>
    GF Latin Plus glyph
  </note>
  <outline>
    <contour>
      <point x="172" y="366" type="curve" smooth="yes"/>
      <point x="172" y="406" type="line" smooth="yes"/>
      <point x="172" y="448"/>
      <point x="190" y="454"/>
      <point x="233" y="454" type="curve" smooth="yes"/>
      <point x="308" y="454" type="line" smooth="yes"/>
      <point x="358" y="454"/>
      <point x="372" y="444"/>
      <point x="372" y="408" type="curve" smooth="yes"/>
      <point x="372" y="367" type="line" smooth="yes"/>
      <point x="372" y="324"/>
      <point x="360" y="320"/>
      <point x="308" y="320" type="curve" smooth="yes"/>
      <point x="233" y="320" type="line" smooth="yes"/>
      <point x="191" y="320"/>
      <point x="172" y="325"/>
    </contour>
    <contour>
      <point x="48" y="334" type="line" smooth="yes"/>
      <point x="48" y="236"/>
      <point x="110" y="221"/>
      <point x="202" y="221" type="curve" smooth="yes"/>
      <point x="308" y="221" type="line" smooth="yes"/>
      <point x="358" y="221"/>
      <point x="366" y="211"/>
      <point x="366" y="181" type="curve" smooth="yes"/>
      <point x="366" y="146" type="line" smooth="yes"/>
      <point x="366" y="109"/>
      <point x="342" y="99"/>
      <point x="289" y="99" type="curve" smooth="yes"/>
      <point x="84" y="99" type="line"/>
      <point x="84" y="7" type="line"/>
      <point x="142" y="-3"/>
      <point x="249" y="-6"/>
      <point x="328" y="-6" type="curve" smooth="yes"/>
      <point x="406" y="-6"/>
      <point x="496" y="20"/>
      <point x="496" y="141" type="curve" smooth="yes"/>
      <point x="496" y="196" type="line" smooth="yes"/>
      <point x="496" y="229"/>
      <point x="489" y="287"/>
      <point x="432" y="297" type="curve"/>
      <point x="491" y="312"/>
      <point x="497" y="367"/>
      <point x="497" y="407" type="curve" smooth="yes"/>
      <point x="497" y="437" type="line" smooth="yes"/>
      <point x="497" y="522"/>
      <point x="452" y="554"/>
      <point x="339" y="554" type="curve" smooth="yes"/>
      <point x="235" y="554" type="line" smooth="yes"/>
      <point x="192" y="554"/>
      <point x="177" y="567"/>
      <point x="177" y="596" type="curve" smooth="yes"/>
      <point x="177" y="626" type="line" smooth="yes"/>
      <point x="177" y="657"/>
      <point x="193" y="680"/>
      <point x="247" y="680" type="curve" smooth="yes"/>
      <point x="459" y="680" type="line"/>
      <point x="459" y="769" type="line"/>
      <point x="408" y="780"/>
      <point x="288" y="784"/>
      <point x="216" y="784" type="curve" smooth="yes"/>
      <point x="110" y="784"/>
      <point x="47" y="733"/>
      <point x="47" y="635" type="curve" smooth="yes"/>
      <point x="47" y="590" type="line" smooth="yes"/>
      <point x="47" y="555"/>
      <point x="53" y="502"/>
      <point x="115" y="477" type="curve"/>
      <point x="49" y="458"/>
      <point x="48" y="411"/>
      <point x="48" y="378" type="curve" smooth="yes"/>
    </contour>
  </outline>
</glyph>
<glyph name="dieresis" format="1">
  <advance width="404"/>
  <unicode hex="00A8"/>
  <note>
    GF Latin Plus glyph
  </note>
  <outline>
    <contour>
      <point x="45" y="662" type="line" smooth="yes"/>
      <point x="45" y="650"/>
      <point x="52" y="643"/>
      <point x="64" y="643" type="curve" smooth="yes"/>
      <point x="121" y="643" type="line" smooth="yes"/>
      <point x="132" y="643"/>
      <point x="139" y="649"/>
      <point x="139" y="662" type="curve" smooth="yes"/>
      <point x="139" y="752" type="line" smooth="yes"/>
      <point x="139" y="763"/>
      <point x="133" y="772"/>
      <point x="121" y="772" type="curve" smooth="yes"/>
      <point x="64" y="772" type="line" smooth="yes"/>
      <point x="51" y="772"/>
      <point x="45" y="764"/>
      <point x="45" y="752" type="curve" smooth="yes"/>
    </contour>
    <contour>
      <point x="265" y="662" type="line" smooth="yes"/>
      <point x="265" y="650"/>
      <point x="273" y="643"/>
      <point x="284" y="643" type="curve" smooth="yes"/>
      <point x="341" y="643" type="line" smooth="yes"/>
      <point x="353" y="643"/>
      <point x="360" y="649"/>
      <point x="360" y="662" type="curve" smooth="yes"/>
      <point x="360" y="752" type="line" smooth="yes"/>
      <point x="360" y="763"/>
      <point x="354" y="772"/>
      <point x="341" y="772" type="curve" smooth="yes"/>
      <point x="284" y="772" type="line" smooth="yes"/>
      <point x="271" y="772"/>
      <point x="265" y="764"/>
      <point x="265" y="752" type="curve" smooth="yes"/>
    </contour>
  </outline>
</glyph>
<glyph name="copyright" format="1">
  <advance width="819"/>
  <unicode hex="00A9"/>
  <note>
    GF Latin Plus glyph
  </note>
  <outline>
    <contour>
      <point x="226" y="365" type="curve" smooth="yes"/>
      <point x="226" y="188"/>
      <point x="299" y="147"/>
      <point x="382" y="147" type="curve" smooth="yes"/>
      <point x="446" y="147"/>
      <point x="505" y="149"/>
      <point x="560" y="172" type="curve"/>
      <point x="560" y="233" type="line"/>
      <point x="519" y="225"/>
      <point x="466" y="217"/>
      <point x="405" y="217" type="curve" smooth="yes"/>
      <point x="332" y="217"/>
      <point x="302" y="262"/>
      <point x="302" y="362" type="curve" smooth="yes"/>
      <point x="302" y="477"/>
      <point x="335" y="513"/>
      <point x="407" y="513" type="curve" smooth="yes"/>
      <point x="438" y="513"/>
      <point x="496" y="509"/>
      <point x="554" y="501" type="curve"/>
      <point x="554" y="562" type="line"/>
      <point x="500" y="578"/>
      <point x="421" y="583"/>
      <point x="382" y="583" type="curve" smooth="yes"/>
      <point x="288" y="583"/>
      <point x="226" y="526"/>
    </contour>
    <contour>
      <point x="124" y="368" type="curve" smooth="yes"/>
      <point x="125" y="604"/>
      <point x="213" y="662"/>
      <point x="311" y="662" type="curve" smooth="yes"/>
      <point x="532" y="662" type="line" smooth="yes"/>
      <point x="670" y="662"/>
      <point x="696" y="515"/>
      <point x="696" y="368" type="curve" smooth="yes"/>
      <point x="696" y="154"/>
      <point x="624" y="70"/>
      <point x="525" y="70" type="curve" smooth="yes"/>
      <point x="311" y="70" type="line" smooth="yes"/>
      <point x="181" y="70"/>
      <point x="123" y="210"/>
    </contour>
    <contour>
      <point x="47" y="368" type="curve" smooth="yes"/>
      <point x="47" y="180"/>
      <point x="121" y="0"/>
      <point x="311" y="0" type="curve" smooth="yes"/>
      <point x="532" y="0" type="line" smooth="yes"/>
      <point x="683" y="0"/>
      <point x="773" y="134"/>
      <point x="773" y="368" type="curve" smooth="yes"/>
      <point x="773" y="549"/>
      <point x="732" y="732"/>
      <point x="532" y="732" type="curve" smooth="yes"/>
      <point x="311" y="732" type="line" smooth="yes"/>
      <point x="96" y="732"/>
      <point x="47" y="551"/>
    </contour>
  </outline>
</glyph>
<glyph name="registered" format="1">
  <advance width="822"/>
  <unicode hex="00AE"/>
  <note>
    GF Latin Plus glyph
  </note>
  <outline>
    <contour>
      <point x="330" y="383" type="line"/>
      <point x="330" y="513" type="line"/>
      <point x="440" y="513" type="line" smooth="yes"/>
      <point x="474" y="513"/>
      <point x="497" y="498"/>
      <point x="497" y="446" type="curve" smooth="yes"/>
      <point x="497" y="391"/>
      <point x="476" y="383"/>
      <point x="440" y="383" type="curve" smooth="yes"/>
    </contour>
    <contour>
      <point x="257" y="153" type="line"/>
      <point x="330" y="153" type="line"/>
      <point x="330" y="329" type="line"/>
      <point x="416" y="327" type="line"/>
      <point x="507" y="153" type="line"/>
      <point x="581" y="153" type="line"/>
      <point x="486" y="325" type="line"/>
      <point x="526" y="336"/>
      <point x="570" y="354"/>
      <point x="570" y="447" type="curve" smooth="yes"/>
      <point x="570" y="556"/>
      <point x="506" y="580"/>
      <point x="440" y="580" type="curve" smooth="yes"/>
      <point x="257" y="580" type="line"/>
    </contour>
    <contour>
      <point x="121" y="368" type="curve" smooth="yes"/>
      <point x="123" y="606"/>
      <point x="213" y="665"/>
      <point x="311" y="665" type="curve" smooth="yes"/>
      <point x="534" y="665" type="line" smooth="yes"/>
      <point x="673" y="665"/>
      <point x="701" y="517"/>
      <point x="701" y="368" type="curve" smooth="yes"/>
      <point x="701" y="153"/>
      <point x="628" y="67"/>
      <point x="528" y="67" type="curve" smooth="yes"/>
      <point x="311" y="67" type="line" smooth="yes"/>
      <point x="180" y="67"/>
      <point x="121" y="210"/>
    </contour>
    <contour>
      <point x="49" y="368" type="curve" smooth="yes"/>
      <point x="49" y="183"/>
      <point x="122" y="0"/>
      <point x="311" y="0" type="curve" smooth="yes"/>
      <point x="534" y="0" type="line" smooth="yes"/>
      <point x="685" y="0"/>
      <point x="774" y="136"/>
      <point x="774" y="368" type="curve" smooth="yes"/>
      <point x="774" y="545"/>
      <point x="734" y="732"/>
      <point x="534" y="732" type="curve" smooth="yes"/>
      <point x="311" y="732" type="line" smooth="yes"/>
      <point x="97" y="732"/>
      <point x="49" y="550"/>
    </contour>
  </outline>
</glyph>
<glyph name="degree" format="1">
  <advance width="321"/>
  <unicode hex="00B0"/>
  <note>
    GF Latin Plus glyph
  </note>
  <outline>
    <contour>
      <point x="80" y="626" type="curve" smooth="yes"/>
      <point x="80" y="674"/>
      <point x="114" y="708"/>
      <point x="161" y="708" type="curve" smooth="yes"/>
      <point x="209" y="708"/>
      <point x="241" y="674"/>
      <point x="241" y="626" type="curve" smooth="yes"/>
      <point x="241" y="578"/>
      <point x="208" y="545"/>
      <point x="161" y="545" type="curve" smooth="yes"/>
      <point x="114" y="545"/>
      <point x="80" y="578"/>
    </contour>
    <contour>
      <point x="21" y="626" type="curve" smooth="yes"/>
      <point x="21" y="542"/>
      <point x="81" y="485"/>
      <point x="161" y="485" type="curve" smooth="yes"/>
      <point x="244" y="485"/>
      <point x="301" y="542"/>
      <point x="301" y="626" type="curve" smooth="yes"/>
      <point x="301" y="709"/>
      <point x="244" y="768"/>
      <point x="161" y="768" type="curve" smooth="yes"/>
      <point x="81" y="768"/>
      <point x="21" y="709"/>
    </contour>
  </outline>
</glyph>
<glyph name="twosuperior" format="1">
  <advance width="453"/>
  <unicode hex="00B2"/>
  <note>
    GF Latin Plus glyph
  </note>
  <outline>
    <contour>
      <point x="58" y="725" type="line"/>
      <point x="207" y="725" type="line" smooth="yes"/>
      <point x="268" y="725"/>
      <point x="288" y="701"/>
      <point x="288" y="664" type="curve" smooth="yes"/>
      <point x="288" y="623"/>
      <point x="266" y="589"/>
      <point x="222" y="545" type="curve" smooth="yes"/>
      <point x="45" y="365" type="line"/>
      <point x="45" y="280" type="line"/>
      <point x="415" y="280" type="line"/>
      <point x="415" y="375" type="line"/>
      <point x="190" y="375" type="line"/>
      <point x="305" y="491" type="line" smooth="yes"/>
      <point x="372" y="561"/>
      <point x="398" y="605"/>
      <point x="398" y="678" type="curve" smooth="yes"/>
      <point x="398" y="769"/>
      <point x="357" y="824"/>
      <point x="228" y="824" type="curve" smooth="yes"/>
      <point x="160" y="824"/>
      <point x="104" y="815"/>
      <point x="58" y="807" type="curve"/>
    </contour>
  </outline>
</glyph>
<glyph name="threesuperior" format="1">
  <advance width="453"/>
  <unicode hex="00B3"/>
  <note>
    GF Latin Plus glyph
  </note>
  <outline>
    <contour>
      <point x="51" y="720" type="line"/>
      <point x="204" y="720" type="line" smooth="yes"/>
      <point x="265" y="720"/>
      <point x="287" y="702"/>
      <point x="287" y="667" type="curve" smooth="yes"/>
      <point x="287" y="646" type="line" smooth="yes"/>
      <point x="287" y="614"/>
      <point x="263" y="603"/>
      <point x="219" y="601" type="curve" smooth="yes"/>
      <point x="89" y="594" type="line"/>
      <point x="89" y="509" type="line"/>
      <point x="224" y="504" type="line" smooth="yes"/>
      <point x="263" y="502"/>
      <point x="294" y="489"/>
      <point x="294" y="451" type="curve" smooth="yes"/>
      <point x="294" y="431" type="line" smooth="yes"/>
      <point x="294" y="393"/>
      <point x="266" y="380"/>
      <point x="208" y="380" type="curve" smooth="yes"/>
      <point x="39" y="380" type="line"/>
      <point x="39" y="292" type="line"/>
      <point x="98" y="281"/>
      <point x="172" y="276"/>
      <point x="251" y="276" type="curve" smooth="yes"/>
      <point x="349" y="276"/>
      <point x="409" y="323"/>
      <point x="409" y="408" type="curve" smooth="yes"/>
      <point x="409" y="436" type="line" smooth="yes"/>
      <point x="409" y="499"/>
      <point x="375" y="540"/>
      <point x="333" y="552" type="curve"/>
      <point x="373" y="564"/>
      <point x="401" y="595"/>
      <point x="401" y="651" type="curve" smooth="yes"/>
      <point x="401" y="691" type="line" smooth="yes"/>
      <point x="401" y="778"/>
      <point x="346" y="823"/>
      <point x="251" y="824" type="curve" smooth="yes"/>
      <point x="177" y="825"/>
      <point x="108" y="817"/>
      <point x="51" y="808" type="curve"/>
    </contour>
  </outline>
</glyph>
<glyph name="paragraph" format="1">
  <advance width="573"/>
  <unicode hex="00B6"/>
  <note>
    GF Latin Plus glyph
  </note>
  <outline>
    <contour>
      <point x="117" y="468" type="curve" smooth="yes"/>
      <point x="117" y="577" type="line" smooth="yes"/>
      <point x="117" y="628"/>
      <point x="137" y="652"/>
      <point x="196" y="652" type="curve" smooth="yes"/>
      <point x="255" y="652" type="line"/>
      <point x="255" y="393" type="line"/>
      <point x="196" y="393" type="line" smooth="yes"/>
      <point x="168" y="393"/>
      <point x="117" y="399"/>
    </contour>
    <contour>
      <point x="30" y="455" type="line" smooth="yes"/>
      <point x="30" y="374"/>
      <point x="78" y="307"/>
      <point x="181" y="307" type="curve"/>
      <point x="220" y="306"/>
      <point x="245" y="314"/>
      <point x="255" y="321" type="curve"/>
      <point x="255" y="-270" type="line"/>
      <point x="342" y="-270" type="line"/>
      <point x="342" y="652" type="line"/>
      <point x="418" y="652" type="line"/>
      <point x="418" y="0" type="line"/>
      <point x="505" y="0" type="line"/>
      <point x="505" y="650" type="line"/>
      <point x="569" y="650" type="line"/>
      <point x="569" y="739" type="line"/>
      <point x="190" y="739" type="line" smooth="yes"/>
      <point x="101" y="739"/>
      <point x="30" y="694"/>
      <point x="30" y="599" type="curve" smooth="yes"/>
    </contour>
  </outline>
</glyph>
<glyph name="periodcentered" format="1">
  <advance width="260"/>
  <unicode hex="00B7"/>
  <note>
    GF Latin Plus glyph
  </note>
  <outline>
    <contour>
      <point x="73" y="321" type="line" smooth="yes"/>
      <point x="73" y="310"/>
      <point x="81" y="302"/>
      <point x="93" y="302" type="curve" smooth="yes"/>
      <point x="167" y="302" type="line" smooth="yes"/>
      <point x="179" y="302"/>
      <point x="188" y="307"/>
      <point x="188" y="321" type="curve" smooth="yes"/>
      <point x="188" y="399" type="line" smooth="yes"/>
      <point x="188" y="411"/>
      <point x="182" y="419"/>
      <point x="167" y="419" type="curve" smooth="yes"/>
      <point x="93" y="419" type="line" smooth="yes"/>
      <point x="80" y="419"/>
      <point x="73" y="411"/>
      <point x="73" y="399" type="curve" smooth="yes"/>
    </contour>
  </outline>
</glyph>
<glyph name="cedilla" format="1">
  <advance width="250"/>
  <unicode hex="00B8"/>
  <note>
    GF Latin Plus glyph
  </note>
  <outline>
    <contour>
      <point x="45" y="-144" type="line"/>
      <point x="45" y="-195" type="line"/>
      <point x="87" y="-195" type="line" smooth="yes"/>
      <point x="156" y="-195"/>
      <point x="190" y="-166"/>
      <point x="190" y="-118" type="curve" smooth="yes"/>
      <point x="190" y="-73"/>
      <point x="157" y="-52"/>
      <point x="107" y="-52" type="curve"/>
      <point x="57" y="-64" type="line"/>
      <point x="100" y="-69"/>
      <point x="110" y="-85"/>
      <point x="110" y="-103" type="curve" smooth="yes"/>
      <point x="110" y="-126"/>
      <point x="95" y="-138"/>
      <point x="64" y="-142" type="curve" smooth="yes"/>
    </contour>
    <contour>
      <point x="165" y="16" type="line"/>
      <point x="109" y="16" type="line"/>
      <point x="57" y="-64" type="line"/>
      <point x="114" y="-64" type="line"/>
    </contour>
  </outline>
</glyph>
<glyph name="onesuperior" format="1">
  <advance width="453"/>
  <unicode hex="00B9"/>
  <note>
    GF Latin Plus glyph
  </note>
  <outline>
    <contour>
      <point x="60" y="280" type="line"/>
      <point x="411" y="280" type="line"/>
      <point x="411" y="375" type="line"/>
      <point x="60" y="375" type="line"/>
    </contour>
    <contour>
      <point x="68" y="705" type="line"/>
      <point x="181" y="723" type="line"/>
      <point x="181" y="280" type="line"/>
      <point x="290" y="280" type="line"/>
      <point x="290" y="825" type="line"/>
      <point x="193" y="825" type="line"/>
      <point x="68" y="782" type="line"/>
    </contour>
  </outline>
</glyph>
<glyph name="AE" format="1">
  <advance width="976"/>
  <unicode hex="00C6"/>
  <note>
    GF Latin Plus glyph
  </note>
  <outline>
    <contour>
      <point x="314" y="279" type="line"/>
      <point x="472" y="560" type="line"/>
      <point x="472" y="279" type="line"/>
    </contour>
    <contour>
      <point x="21" y="0" type="line"/>
      <point x="149" y="0" type="line"/>
      <point x="251" y="169" type="line"/>
      <point x="472" y="169" type="line"/>
      <point x="473" y="115" type="line" smooth="yes"/>
      <point x="481" y="22"/>
      <point x="539" y="-6"/>
      <point x="646" y="-5" type="curve" smooth="yes"/>
      <point x="721" y="-5"/>
      <point x="876" y="3"/>
      <point x="928" y="10" type="curve"/>
      <point x="928" y="117" type="line"/>
      <point x="671" y="117" type="line" smooth="yes"/>
      <point x="625" y="117"/>
      <point x="590" y="129"/>
      <point x="590" y="189" type="curve" smooth="yes"/>
      <point x="590" y="310" type="line"/>
      <point x="882" y="317" type="line"/>
      <point x="882" y="419" type="line"/>
      <point x="590" y="427" type="line"/>
      <point x="590" y="561" type="line" smooth="yes"/>
      <point x="590" y="599"/>
      <point x="606" y="619"/>
      <point x="653" y="619" type="curve" smooth="yes"/>
      <point x="928" y="619" type="line"/>
      <point x="928" y="727" type="line"/>
      <point x="888" y="731"/>
      <point x="709" y="739"/>
      <point x="631" y="739" type="curve" smooth="yes"/>
      <point x="487" y="740"/>
      <point x="413" y="708"/>
      <point x="348" y="586" type="curve" smooth="yes"/>
    </contour>
    <contour>
      <point x="532" y="810" type="move" name="top"/>
    </contour>
  </outline>
</glyph>
<glyph name="multiply" format="1">
  <advance width="609"/>
  <unicode hex="00D7"/>
  <note>
    GF Latin Plus glyph
  </note>
  <outline>
    <contour>
      <point x="181" y="162" type="line"/>
      <point x="498" y="479" type="line"/>
      <point x="427" y="550" type="line"/>
      <point x="110" y="233" type="line"/>
    </contour>
    <contour>
      <point x="498" y="233" type="line"/>
      <point x="181" y="550" type="line"/>
      <point x="110" y="479" type="line"/>
      <point x="427" y="162" type="line"/>
    </contour>
  </outline>
</glyph>
<glyph name="Thorn" format="1">
  <advance width="579"/>
  <unicode hex="00DE"/>
  <note>
    GF Latin Plus glyph
  </note>
  <outline>
    <contour>
      <point x="67" y="0" type="line"/>
      <point x="198" y="0" type="line"/>
      <point x="198" y="153" type="line"/>
      <point x="226" y="149"/>
      <point x="304" y="138"/>
      <point x="340" y="138" type="curve" smooth="yes"/>
      <point x="429" y="138"/>
      <point x="544" y="171"/>
      <point x="544" y="380" type="curve" smooth="yes"/>
      <point x="544" y="587"/>
      <point x="431" y="615"/>
      <point x="337" y="615" type="curve" smooth="yes"/>
      <point x="198" y="615" type="line"/>
      <point x="198" y="739" type="line"/>
      <point x="67" y="739" type="line"/>
    </contour>
    <contour>
      <point x="198" y="255" type="line"/>
      <point x="198" y="498" type="line"/>
      <point x="325" y="498" type="line" smooth="yes"/>
      <point x="376" y="498"/>
      <point x="414" y="468"/>
      <point x="414" y="379" type="curve" smooth="yes"/>
      <point x="414" y="287"/>
      <point x="377" y="255"/>
      <point x="321" y="255" type="curve" smooth="yes"/>
    </contour>
  </outline>
</glyph>
<glyph name="germandbls" format="1">
  <advance width="600"/>
  <unicode hex="00DF"/>
  <note>
    GF Latin Plus glyph
  </note>
  <outline>
    <contour>
      <point x="52" y="0" type="line"/>
      <point x="182" y="0" type="line"/>
      <point x="182" y="526" type="line" smooth="yes"/>
      <point x="182" y="617"/>
      <point x="219" y="661"/>
      <point x="300" y="661" type="curve" smooth="yes"/>
      <point x="370" y="661"/>
      <point x="409" y="636"/>
      <point x="409" y="572" type="curve" smooth="yes"/>
      <point x="409" y="488"/>
      <point x="292" y="441"/>
      <point x="292" y="339" type="curve" smooth="yes"/>
      <point x="292" y="219"/>
      <point x="456" y="229"/>
      <point x="456" y="162" type="curve" smooth="yes"/>
      <point x="456" y="147" type="line" smooth="yes"/>
      <point x="456" y="125"/>
      <point x="438" y="92"/>
      <point x="368" y="92" type="curve" smooth="yes"/>
      <point x="324" y="92"/>
      <point x="279" y="94"/>
      <point x="248" y="96" type="curve"/>
      <point x="248" y="9" type="line"/>
      <point x="279" y="0"/>
      <point x="339" y="-7"/>
      <point x="401" y="-7" type="curve" smooth="yes"/>
      <point x="480" y="-7"/>
      <point x="580" y="30"/>
      <point x="580" y="145" type="curve" smooth="yes"/>
      <point x="580" y="173" type="line" smooth="yes"/>
      <point x="580" y="302"/>
      <point x="416" y="295"/>
      <point x="416" y="362" type="curve" smooth="yes"/>
      <point x="416" y="421"/>
      <point x="533" y="465"/>
      <point x="533" y="580" type="curve" smooth="yes"/>
      <point x="533" y="686"/>
      <point x="468" y="766"/>
      <point x="300" y="766" type="curve" smooth="yes"/>
      <point x="127" y="766"/>
      <point x="52" y="667"/>
      <point x="52" y="539" type="curve" smooth="yes"/>
    </contour>
  </outline>
</glyph>
<glyph name="ae" format="1">
  <advance width="859"/>
  <unicode hex="00E6"/>
  <note>
    GF Latin Plus glyph
  </note>
  <outline>
    <contour>
      <point x="489" y="310" type="line"/>
      <point x="490" y="416"/>
      <point x="510" y="446"/>
      <point x="591" y="446" type="curve" smooth="yes"/>
      <point x="661" y="446"/>
      <point x="691" y="425"/>
      <point x="691" y="360" type="curve" smooth="yes"/>
      <point x="691" y="323"/>
      <point x="670" y="310"/>
      <point x="629" y="310" type="curve" smooth="yes"/>
    </contour>
    <contour>
      <point x="169" y="153" type="curve" smooth="yes"/>
      <point x="169" y="174" type="line" smooth="yes"/>
      <point x="169" y="207"/>
      <point x="188" y="238"/>
      <point x="238" y="241" type="curve" smooth="yes"/>
      <point x="360" y="248" type="line"/>
      <point x="361" y="202"/>
      <point x="367" y="164"/>
      <point x="372" y="144" type="curve"/>
      <point x="336" y="109"/>
      <point x="288" y="86"/>
      <point x="240" y="86" type="curve" smooth="yes"/>
      <point x="203" y="86"/>
      <point x="169" y="100"/>
    </contour>
    <contour>
      <point x="39" y="132" type="line" smooth="yes"/>
      <point x="39" y="57"/>
      <point x="79" y="-6"/>
      <point x="180" y="-6" type="curve" smooth="yes"/>
      <point x="268" y="-6"/>
      <point x="354" y="41"/>
      <point x="398" y="88" type="curve"/>
      <point x="427" y="37"/>
      <point x="491" y="-6"/>
      <point x="581" y="-6" type="curve" smooth="yes"/>
      <point x="651" y="-6"/>
      <point x="726" y="-1"/>
      <point x="792" y="16" type="curve"/>
      <point x="792" y="92" type="line"/>
      <point x="644" y="92" type="line" smooth="yes"/>
      <point x="550" y="92"/>
      <point x="490" y="113"/>
      <point x="489" y="227" type="curve"/>
      <point x="633" y="227" type="line" smooth="yes"/>
      <point x="746" y="227"/>
      <point x="808" y="258"/>
      <point x="808" y="357" type="curve" smooth="yes"/>
      <point x="808" y="503"/>
      <point x="744" y="544"/>
      <point x="600" y="544" type="curve" smooth="yes"/>
      <point x="519" y="544"/>
      <point x="463" y="520"/>
      <point x="432" y="473" type="curve"/>
      <point x="403" y="518"/>
      <point x="340" y="544"/>
      <point x="263" y="544" type="curve" smooth="yes"/>
      <point x="184" y="543"/>
      <point x="134" y="534"/>
      <point x="78" y="517" type="curve"/>
      <point x="78" y="442" type="line"/>
      <point x="250" y="442" type="line" smooth="yes"/>
      <point x="334" y="442"/>
      <point x="362" y="413"/>
      <point x="362" y="362" type="curve" smooth="yes"/>
      <point x="362" y="313" type="line"/>
      <point x="213" y="313" type="line" smooth="yes"/>
      <point x="90" y="313"/>
      <point x="39" y="252"/>
      <point x="39" y="173" type="curve" smooth="yes"/>
    </contour>
    <contour>
      <point x="431" y="650" type="move" name="top"/>
    </contour>
  </outline>
</glyph>
<glyph name="divide" format="1">
  <advance width="609"/>
  <unicode hex="00F7"/>
  <note>
    GF Latin Plus glyph
  </note>
  <outline>
    <contour>
      <point x="243" y="524" type="line" smooth="yes"/>
      <point x="243" y="510"/>
      <point x="253" y="501"/>
      <point x="267" y="501" type="curve" smooth="yes"/>
      <point x="341" y="501" type="line" smooth="yes"/>
      <point x="355" y="501"/>
      <point x="366" y="506"/>
      <point x="366" y="524" type="curve" smooth="yes"/>
      <point x="366" y="594" type="line" smooth="yes"/>
      <point x="366" y="610"/>
      <point x="359" y="619"/>
      <point x="341" y="619" type="curve" smooth="yes"/>
      <point x="267" y="619" type="line" smooth="yes"/>
      <point x="251" y="619"/>
      <point x="243" y="609"/>
      <point x="243" y="594" type="curve" smooth="yes"/>
    </contour>
    <contour>
      <point x="243" y="116" type="line" smooth="yes"/>
      <point x="243" y="102"/>
      <point x="253" y="93"/>
      <point x="267" y="93" type="curve" smooth="yes"/>
      <point x="341" y="93" type="line" smooth="yes"/>
      <point x="355" y="93"/>
      <point x="366" y="98"/>
      <point x="366" y="116" type="curve" smooth="yes"/>
      <point x="366" y="187" type="line" smooth="yes"/>
      <point x="366" y="203"/>
      <point x="359" y="212"/>
      <point x="341" y="212" type="curve" smooth="yes"/>
      <point x="267" y="212" type="line" smooth="yes"/>
      <point x="251" y="212"/>
      <point x="243" y="202"/>
      <point x="243" y="187" type="curve" smooth="yes"/>
    </contour>
    <component base="minus"/>
  </outline>
</glyph>
<glyph name="thorn" format="1">
  <advance width="583"/>
  <unicode hex="00FE"/>
  <note>
    GF Latin Plus glyph
  </note>
  <outline>
    <contour>
      <point x="192" y="131" type="curve"/>
      <point x="192" y="405" type="line"/>
      <point x="220" y="421"/>
      <point x="260" y="439"/>
      <point x="307" y="439" type="curve" smooth="yes"/>
      <point x="363" y="439"/>
      <point x="408" y="395"/>
      <point x="408" y="262" type="curve" smooth="yes"/>
      <point x="408" y="135"/>
      <point x="361" y="100"/>
      <point x="306" y="100" type="curve" smooth="yes"/>
      <point x="266" y="100"/>
      <point x="223" y="113"/>
    </contour>
    <contour>
      <point x="62" y="-237" type="line"/>
      <point x="192" y="-237" type="line"/>
      <point x="192" y="32" type="line"/>
      <point x="237" y="7"/>
      <point x="295" y="-7"/>
      <point x="348" y="-7" type="curve" smooth="yes"/>
      <point x="484" y="-7"/>
      <point x="538" y="93"/>
      <point x="538" y="268" type="curve" smooth="yes"/>
      <point x="538" y="433"/>
      <point x="476" y="544"/>
      <point x="348" y="544" type="curve" smooth="yes"/>
      <point x="285" y="544"/>
      <point x="229" y="513"/>
      <point x="192" y="484" type="curve"/>
      <point x="192" y="763" type="line"/>
      <point x="62" y="763" type="line"/>
    </contour>
  </outline>
</glyph>
<glyph name="kgreenlandic" format="1">
  <advance width="542"/>
  <unicode hex="0138"/>
  <note>
    GF Latin Plus glyph
  </note>
  <outline>
    <contour>
      <point x="62" y="0" type="line"/>
      <point x="192" y="0" type="line"/>
      <point x="192" y="217" type="line"/>
      <point x="248" y="217" type="line"/>
      <point x="400" y="0" type="line"/>
      <point x="536" y="0" type="line"/>
      <point x="355" y="275" type="line"/>
      <point x="521" y="536" type="line"/>
      <point x="384" y="536" type="line"/>
      <point x="255" y="334" type="line"/>
      <point x="192" y="334" type="line"/>
      <point x="192" y="540" type="line"/>
      <point x="62" y="540" type="line"/>
    </contour>
  </outline>
</glyph>
<glyph name="Lslash" format="1">
  <advance width="534"/>
  <unicode hex="0141"/>
  <note>
    GF Latin Plus glyph
  </note>
  <outline>
    <contour>
      <point x="-2" y="306" type="line"/>
      <point x="82" y="343" type="line"/>
      <point x="183" y="371" type="line"/>
      <point x="328" y="434" type="line"/>
      <point x="328" y="505" type="line"/>
      <point x="183" y="442" type="line"/>
      <point x="82" y="414" type="line"/>
      <point x="-2" y="377" type="line"/>
    </contour>
    <component base="L"/>
  </outline>
</glyph>
<glyph name="eng" format="1">
  <advance width="593"/>
  <unicode hex="014B"/>
  <note>
    GF Latin Plus glyph
  </note>
  <outline>
    <contour>
      <point x="313" y="-237" type="curve"/>
      <point x="417" y="-237" type="line"/>
      <point x="481" y="-202"/>
      <point x="534" y="-136"/>
      <point x="534" y="-21" type="curve" smooth="yes"/>
      <point x="534" y="166" type="line"/>
      <point x="404" y="166" type="line"/>
      <point x="404" y="-24" type="line" smooth="yes"/>
      <point x="404" y="-138"/>
      <point x="360" y="-197"/>
    </contour>
    <component base="n"/>
  </outline>
</glyph>
<glyph name="oe" format="1">
  <advance width="888"/>
  <unicode hex="0153"/>
  <note>
    GF Latin Plus glyph
  </note>
  <outline>
    <contour>
      <point x="522" y="300" type="line"/>
      <point x="522" y="406"/>
      <point x="547" y="449"/>
      <point x="625" y="449" type="curve" smooth="yes"/>
      <point x="696" y="449"/>
      <point x="728" y="431"/>
      <point x="728" y="362" type="curve" smooth="yes"/>
      <point x="728" y="314"/>
      <point x="704" y="300"/>
      <point x="664" y="300" type="curve" smooth="yes"/>
    </contour>
    <contour>
      <point x="415" y="268" type="curve" smooth="yes"/>
      <point x="415" y="74"/>
      <point x="480" y="-5"/>
      <point x="622" y="-5" type="curve" smooth="yes"/>
      <point x="705" y="-5"/>
      <point x="770" y="4"/>
      <point x="827" y="16" type="curve"/>
      <point x="827" y="92" type="line"/>
      <point x="660" y="92" type="line" smooth="yes"/>
      <point x="564" y="92"/>
      <point x="525" y="128"/>
      <point x="524" y="221" type="curve"/>
      <point x="689" y="221" type="line" smooth="yes"/>
      <point x="776" y="221"/>
      <point x="843" y="259"/>
      <point x="843" y="348" type="curve" smooth="yes"/>
      <point x="843" y="507"/>
      <point x="778" y="544"/>
      <point x="624" y="544" type="curve" smooth="yes"/>
      <point x="468" y="544"/>
      <point x="415" y="460"/>
    </contour>
    <contour>
      <point x="175" y="270" type="curve" smooth="yes"/>
      <point x="175" y="428"/>
      <point x="210" y="446"/>
      <point x="287" y="446" type="curve" smooth="yes"/>
      <point x="365" y="446"/>
      <point x="400" y="428"/>
      <point x="400" y="270" type="curve" smooth="yes"/>
      <point x="400" y="111"/>
      <point x="365" y="93"/>
      <point x="287" y="93" type="curve" smooth="yes"/>
      <point x="210" y="93"/>
      <point x="175" y="111"/>
    </contour>
    <contour>
      <point x="45" y="269" type="curve" smooth="yes"/>
      <point x="45" y="58"/>
      <point x="115" y="-5"/>
      <point x="286" y="-5" type="curve" smooth="yes"/>
      <point x="446" y="-5"/>
      <point x="510" y="54"/>
      <point x="510" y="269" type="curve" smooth="yes"/>
      <point x="510" y="487"/>
      <point x="444" y="544"/>
      <point x="287" y="544" type="curve" smooth="yes"/>
      <point x="117" y="544"/>
      <point x="45" y="490"/>
    </contour>
  </outline>
</glyph>
<glyph name="Tbar" format="1">
  <advance width="581"/>
  <unicode hex="0166"/>
  <note>
    GF Latin Plus glyph
  </note>
  <outline>
    <contour>
      <point x="54" y="351" type="line"/>
      <point x="527" y="351" type="line"/>
      <point x="527" y="418" type="line"/>
      <point x="54" y="418" type="line"/>
    </contour>
    <component base="T"/>
  </outline>
</glyph>
<glyph name="Schwa" format="1">
  <advance width="622"/>
  <unicode hex="018F"/>
  <note>
    GF Latin Plus glyph
  </note>
  <outline>
    <contour>
      <point x="303" y="-6" type="curve" smooth="yes"/>
      <point x="461" y="-6"/>
      <point x="573" y="64"/>
      <point x="573" y="370" type="curve" smooth="yes"/>
      <point x="573" y="686"/>
      <point x="461" y="746"/>
      <point x="273" y="746" type="curve" smooth="yes"/>
      <point x="181" y="746"/>
      <point x="121" y="733"/>
      <point x="77" y="718" type="curve"/>
      <point x="77" y="618" type="line"/>
      <point x="108" y="622"/>
      <point x="157" y="629"/>
      <point x="240" y="629" type="curve" smooth="yes"/>
      <point x="382" y="629"/>
      <point x="438" y="588"/>
      <point x="442" y="414" type="curve"/>
      <point x="45" y="414" type="line"/>
      <point x="45" y="329" type="line" smooth="yes"/>
      <point x="45" y="85"/>
      <point x="139" y="-6"/>
    </contour>
    <contour>
      <point x="300" y="111" type="curve" smooth="yes"/>
      <point x="204" y="111"/>
      <point x="179" y="175"/>
      <point x="177" y="310" type="curve"/>
      <point x="439" y="310" type="line"/>
      <point x="435" y="150"/>
      <point x="382" y="111"/>
    </contour>
  </outline>
</glyph>
<glyph name="florin" format="1">
  <advance width="609"/>
  <unicode hex="0192"/>
  <note>
    GF Latin Plus glyph
  </note>
  <outline>
    <contour>
      <point x="17" y="-186" type="line"/>
      <point x="36" y="-195"/>
      <point x="75" y="-204"/>
      <point x="123" y="-204" type="curve" smooth="yes"/>
      <point x="245" y="-204"/>
      <point x="298" y="-109"/>
      <point x="331" y="88" type="curve" smooth="yes"/>
      <point x="380" y="382" type="line"/>
      <point x="490" y="382" type="line"/>
      <point x="504" y="474" type="line"/>
      <point x="391" y="474" type="line"/>
      <point x="409" y="570" type="line" smooth="yes"/>
      <point x="424" y="659"/>
      <point x="446" y="701"/>
      <point x="514" y="701" type="curve" smooth="yes"/>
      <point x="567" y="701" type="line"/>
      <point x="580" y="781" type="line"/>
      <point x="565" y="788"/>
      <point x="533" y="799"/>
      <point x="470" y="799" type="curve" smooth="yes"/>
      <point x="354" y="799"/>
      <point x="306" y="723"/>
      <point x="285" y="604" type="curve" smooth="yes"/>
      <point x="261" y="474" type="line"/>
      <point x="176" y="474" type="line"/>
      <point x="162" y="382" type="line"/>
      <point x="250" y="382" type="line"/>
      <point x="195" y="56" type="line" smooth="yes"/>
      <point x="176" y="-65"/>
      <point x="147" y="-106"/>
      <point x="83" y="-106" type="curve" smooth="yes"/>
      <point x="30" y="-106" type="line"/>
    </contour>
  </outline>
</glyph>
<glyph name="Ohorn" format="1">
  <advance width="695"/>
  <unicode hex="01A0"/>
  <note>
    GF Latin Plus glyph
  </note>
  <outline>
    <contour>
      <point x="376" y="671" type="line"/>
      <point x="522" y="671" type="line" smooth="yes"/>
      <point x="602" y="671"/>
      <point x="661" y="726"/>
      <point x="661" y="850" type="curve"/>
      <point x="574" y="850" type="line"/>
      <point x="574" y="766"/>
      <point x="546" y="738"/>
      <point x="500" y="738" type="curve" smooth="yes"/>
      <point x="376" y="738" type="line"/>
    </contour>
    <component base="O"/>
  </outline>
</glyph>
<glyph name="Uhorn" format="1">
  <advance width="682"/>
  <unicode hex="01AF"/>
  <note>
    GF Latin Plus glyph
  </note>
  <outline>
    <contour>
      <point x="513" y="671" type="line"/>
      <point x="576" y="671" type="line" smooth="yes"/>
      <point x="656" y="671"/>
      <point x="715" y="726"/>
      <point x="715" y="850" type="curve"/>
      <point x="629" y="850" type="line"/>
      <point x="629" y="766"/>
      <point x="600" y="738"/>
      <point x="555" y="738" type="curve" smooth="yes"/>
      <point x="513" y="738" type="line"/>
    </contour>
    <component base="U"/>
    <contour>
      <point x="334" y="810" type="move" name="top"/>
    </contour>
    <contour>
      <point x="334" y="-150" type="move" name="bottom"/>
    </contour>
  </outline>
</glyph>
<glyph name="uhorn" format="1">
  <advance width="593"/>
  <unicode hex="01B0"/>
  <note>
    GF Latin Plus glyph
  </note>
  <outline>
    <contour>
      <point x="424" y="465" type="line"/>
      <point x="482" y="465" type="line" smooth="yes"/>
      <point x="564" y="465"/>
      <point x="623" y="523"/>
      <point x="623" y="647" type="curve"/>
      <point x="532" y="647" type="line"/>
      <point x="532" y="564"/>
      <point x="505" y="536"/>
      <point x="459" y="536" type="curve" smooth="yes"/>
      <point x="424" y="536" type="line"/>
    </contour>
    <component base="u"/>
  </outline>
</glyph>
<glyph name="verticallinemod" format="1">
  <advance width="158"/>
  <unicode hex="02C8"/>
  <outline>
    <contour>
      <point x="30" y="503" type="line"/>
      <point x="128" y="503" type="line"/>
      <point x="128" y="763" type="line"/>
      <point x="30" y="763" type="line"/>
    </contour>
  </outline>
</glyph>
<glyph name="breve" format="1">
  <advance width="352"/>
  <unicode hex="02D8"/>
  <note>
    GF Latin Plus glyph
  </note>
  <outline>
    <contour>
      <point x="39" y="773" type="line"/>
      <point x="39" y="669"/>
      <point x="94" y="625"/>
      <point x="176" y="625" type="curve" smooth="yes"/>
      <point x="259" y="625"/>
      <point x="314" y="667"/>
      <point x="314" y="773" type="curve"/>
      <point x="252" y="773" type="line"/>
      <point x="252" y="707"/>
      <point x="221" y="685"/>
      <point x="176" y="685" type="curve" smooth="yes"/>
      <point x="137" y="684"/>
      <point x="100" y="707"/>
      <point x="100" y="773" type="curve"/>
    </contour>
  </outline>
</glyph>
<glyph name="ring" format="1">
  <advance width="326"/>
  <unicode hex="02DA"/>
  <note>
    GF Latin Plus glyph
  </note>
  <outline>
    <contour>
      <point x="104" y="699" type="curve" smooth="yes"/>
      <point x="104" y="747"/>
      <point x="123" y="762"/>
      <point x="164" y="762" type="curve" smooth="yes"/>
      <point x="204" y="762"/>
      <point x="222" y="747"/>
      <point x="222" y="699" type="curve" smooth="yes"/>
      <point x="222" y="651"/>
      <point x="204" y="637"/>
      <point x="164" y="637" type="curve" smooth="yes"/>
      <point x="123" y="637"/>
      <point x="104" y="651"/>
    </contour>
    <contour>
      <point x="43" y="699" type="curve" smooth="yes"/>
      <point x="43" y="615"/>
      <point x="86" y="588"/>
      <point x="164" y="588" type="curve" smooth="yes"/>
      <point x="242" y="588"/>
      <point x="283" y="615"/>
      <point x="283" y="699" type="curve" smooth="yes"/>
      <point x="283" y="783"/>
      <point x="242" y="811"/>
      <point x="164" y="811" type="curve" smooth="yes"/>
      <point x="86" y="811"/>
      <point x="43" y="783"/>
    </contour>
  </outline>
</glyph>
<glyph name="ogonek" format="1">
  <advance width="220"/>
  <unicode hex="02DB"/>
  <note>
    GF Latin Plus glyph
  </note>
  <outline>
    <contour>
      <point x="110" y="0" type="line"/>
      <point x="66" y="-22"/>
      <point x="41" y="-57"/>
      <point x="41" y="-101" type="curve" smooth="yes"/>
      <point x="41" y="-147"/>
      <point x="73" y="-191"/>
      <point x="148" y="-191" type="curve" smooth="yes"/>
      <point x="160" y="-191"/>
      <point x="171" y="-190"/>
      <point x="178" y="-187" type="curve"/>
      <point x="178" y="-126" type="line"/>
      <point x="170" y="-126" type="line" smooth="yes"/>
      <point x="131" y="-126"/>
      <point x="105" y="-105"/>
      <point x="105" y="-71" type="curve" smooth="yes"/>
      <point x="105" y="-44"/>
      <point x="122" y="-22"/>
      <point x="158" y="0" type="curve"/>
    </contour>
  </outline>
</glyph>
<glyph name="tilde" format="1">
  <advance width="430"/>
  <unicode hex="02DC"/>
  <note>
    GF Latin Plus glyph
  </note>
  <outline>
    <contour>
      <point x="36" y="634" type="curve"/>
      <point x="102" y="634" type="line"/>
      <point x="104" y="667"/>
      <point x="122" y="685"/>
      <point x="149" y="685" type="curve" smooth="yes"/>
      <point x="194" y="685"/>
      <point x="235" y="635"/>
      <point x="299" y="635" type="curve" smooth="yes"/>
      <point x="361" y="635"/>
      <point x="397" y="678"/>
      <point x="400" y="762" type="curve"/>
      <point x="335" y="762" type="line"/>
      <point x="334" y="726"/>
      <point x="315" y="707"/>
      <point x="287" y="707" type="curve" smooth="yes"/>
      <point x="239" y="707"/>
      <point x="206" y="758"/>
      <point x="139" y="758" type="curve" smooth="yes"/>
      <point x="88" y="758"/>
      <point x="41" y="726"/>
    </contour>
  </outline>
</glyph>
<glyph name="hungarumlaut" format="1">
  <advance width="391"/>
  <unicode hex="02DD"/>
  <note>
    GF Latin Plus glyph
  </note>
  <outline>
    <contour>
      <point x="259" y="770" type="line"/>
      <point x="177" y="631" type="line"/>
      <point x="254" y="631" type="line"/>
      <point x="359" y="770" type="line"/>
    </contour>
    <contour>
      <point x="99" y="770" type="line"/>
      <point x="17" y="631" type="line"/>
      <point x="94" y="631" type="line"/>
      <point x="198" y="770" type="line"/>
    </contour>
  </outline>
</glyph>
<glyph name="pi" format="1">
  <advance width="632"/>
  <unicode hex="03C0"/>
  <outline>
    <contour>
      <point x="17" y="418" type="line"/>
      <point x="102" y="418" type="line"/>
      <point x="102" y="0" type="line"/>
      <point x="232" y="0" type="line"/>
      <point x="232" y="418" type="line"/>
      <point x="352" y="418" type="line"/>
      <point x="352" y="147" type="line" smooth="yes"/>
      <point x="352" y="43"/>
      <point x="397" y="-6"/>
      <point x="484" y="-6" type="curve" smooth="yes"/>
      <point x="531" y="-6"/>
      <point x="561" y="6"/>
      <point x="581" y="19" type="curve"/>
      <point x="581" y="95" type="line"/>
      <point x="534" y="95" type="line" smooth="yes"/>
      <point x="498" y="95"/>
      <point x="482" y="108"/>
      <point x="482" y="154" type="curve" smooth="yes"/>
      <point x="482" y="418" type="line"/>
      <point x="573" y="418" type="line"/>
      <point x="573" y="536" type="line"/>
      <point x="17" y="536" type="line"/>
    </contour>
  </outline>
</glyph>
<glyph name="Germandbls" format="1">
  <advance width="704"/>
  <unicode hex="1E9E"/>
  <note>
    GF Latin Plus glyph
  </note>
  <outline>
    <contour>
      <point x="310" y="406" type="line"/>
      <point x="423" y="378" type="line"/>
      <point x="611" y="633" type="line"/>
      <point x="611" y="729" type="line"/>
      <point x="473" y="630" type="line"/>
    </contour>
    <contour>
      <point x="268" y="11" type="line"/>
      <point x="308" y="2"/>
      <point x="375" y="-6"/>
      <point x="423" y="-6" type="curve" smooth="yes"/>
      <point x="556" y="-6"/>
      <point x="654" y="29"/>
      <point x="654" y="185" type="curve" smooth="yes"/>
      <point x="654" y="233" type="line" smooth="yes"/>
      <point x="654" y="348"/>
      <point x="584" y="406"/>
      <point x="464" y="406" type="curve" smooth="yes"/>
      <point x="310" y="406" type="line"/>
      <point x="310" y="306" type="line"/>
      <point x="431" y="306" type="line" smooth="yes"/>
      <point x="501" y="306"/>
      <point x="530" y="281"/>
      <point x="530" y="225" type="curve" smooth="yes"/>
      <point x="530" y="193" type="line" smooth="yes"/>
      <point x="530" y="122"/>
      <point x="478" y="106"/>
      <point x="406" y="106" type="curve" smooth="yes"/>
      <point x="384" y="106"/>
      <point x="278" y="107"/>
      <point x="268" y="108" type="curve"/>
    </contour>
    <contour>
      <point x="69" y="0" type="line"/>
      <point x="192" y="0" type="line"/>
      <point x="192" y="547" type="line" smooth="yes"/>
      <point x="192" y="599"/>
      <point x="222" y="627"/>
      <point x="276" y="627" type="curve" smooth="yes"/>
      <point x="555" y="627" type="line"/>
      <point x="611" y="729" type="line"/>
      <point x="545" y="734"/>
      <point x="369" y="738"/>
      <point x="272" y="738" type="curve" smooth="yes"/>
      <point x="163" y="739"/>
      <point x="69" y="688"/>
      <point x="69" y="545" type="curve" smooth="yes"/>
    </contour>
  </outline>
</glyph>
<glyph name="quoteleft" format="1">
  <advance width="214"/>
  <unicode hex="2018"/>
  <note>
    GF Latin Plus glyph
  </note>
  <outline>
    <contour>
      <point x="51" y="530" type="line" smooth="yes"/>
      <point x="51" y="517"/>
      <point x="55" y="507"/>
      <point x="69" y="507" type="curve" smooth="yes"/>
      <point x="149" y="507" type="line" smooth="yes"/>
      <point x="163" y="507"/>
      <point x="170" y="514"/>
      <point x="170" y="530" type="curve" smooth="yes"/>
      <point x="170" y="624" type="line" smooth="yes"/>
      <point x="170" y="639"/>
      <point x="161" y="646"/>
      <point x="149" y="646" type="curve" smooth="yes"/>
      <point x="140" y="646" type="line"/>
      <point x="140" y="681" type="line" smooth="yes"/>
      <point x="140" y="692"/>
      <point x="143" y="707"/>
      <point x="166" y="707" type="curve"/>
      <point x="166" y="755" type="line"/>
      <point x="160" y="756"/>
      <point x="152" y="758"/>
      <point x="136" y="758" type="curve" smooth="yes"/>
      <point x="102" y="758"/>
      <point x="51" y="746"/>
      <point x="51" y="680" type="curve" smooth="yes"/>
    </contour>
  </outline>
</glyph>
<glyph name="quoteright" format="1">
  <advance width="214"/>
  <unicode hex="2019"/>
  <note>
    GF Latin Plus glyph
  </note>
  <outline>
    <contour>
      <point x="44" y="635" type="line" smooth="yes"/>
      <point x="44" y="620"/>
      <point x="54" y="613"/>
      <point x="65" y="613" type="curve" smooth="yes"/>
      <point x="75" y="613" type="line"/>
      <point x="75" y="579" type="line" smooth="yes"/>
      <point x="75" y="567"/>
      <point x="72" y="552"/>
      <point x="48" y="552" type="curve"/>
      <point x="48" y="505" type="line"/>
      <point x="56" y="502"/>
      <point x="62" y="502"/>
      <point x="78" y="502" type="curve" smooth="yes"/>
      <point x="113" y="502"/>
      <point x="164" y="513"/>
      <point x="164" y="579" type="curve" smooth="yes"/>
      <point x="164" y="730" type="line" smooth="yes"/>
      <point x="164" y="742"/>
      <point x="159" y="753"/>
      <point x="145" y="753" type="curve" smooth="yes"/>
      <point x="65" y="753" type="line" smooth="yes"/>
      <point x="52" y="753"/>
      <point x="44" y="745"/>
      <point x="44" y="730" type="curve" smooth="yes"/>
    </contour>
  </outline>
</glyph>
<glyph name="quotesinglbase" format="1">
  <advance width="211"/>
  <unicode hex="201A"/>
  <note>
    GF Latin Plus glyph
  </note>
  <outline>
    <contour>
      <point x="45" y="15" type="line" smooth="yes"/>
      <point x="45" y="1"/>
      <point x="54" y="-6"/>
      <point x="66" y="-6" type="curve" smooth="yes"/>
      <point x="75" y="-6" type="line"/>
      <point x="75" y="-42" type="line" smooth="yes"/>
      <point x="75" y="-54"/>
      <point x="72" y="-69"/>
      <point x="49" y="-69" type="curve"/>
      <point x="49" y="-114" type="line"/>
      <point x="51" y="-114"/>
      <point x="63" y="-116"/>
      <point x="78" y="-116" type="curve" smooth="yes"/>
      <point x="111" y="-116"/>
      <point x="160" y="-106"/>
      <point x="160" y="-41" type="curve" smooth="yes"/>
      <point x="160" y="108" type="line" smooth="yes"/>
      <point x="160" y="121"/>
      <point x="155" y="131"/>
      <point x="142" y="131" type="curve" smooth="yes"/>
      <point x="66" y="131" type="line" smooth="yes"/>
      <point x="52" y="131"/>
      <point x="45" y="123"/>
      <point x="45" y="108" type="curve" smooth="yes"/>
    </contour>
  </outline>
</glyph>
<glyph name="ellipsis" format="1">
  <advance width="816"/>
  <unicode hex="2026"/>
  <note>
    GF Latin Plus glyph
  </note>
  <outline>
    <contour>
      <point x="79" y="19" type="line" smooth="yes"/>
      <point x="79" y="8"/>
      <point x="87" y="0"/>
      <point x="99" y="0" type="curve" smooth="yes"/>
      <point x="173" y="0" type="line" smooth="yes"/>
      <point x="184" y="0"/>
      <point x="193" y="5"/>
      <point x="193" y="19" type="curve" smooth="yes"/>
      <point x="193" y="115" type="line" smooth="yes"/>
      <point x="193" y="128"/>
      <point x="187" y="135"/>
      <point x="173" y="135" type="curve" smooth="yes"/>
      <point x="99" y="135" type="line" smooth="yes"/>
      <point x="86" y="135"/>
      <point x="79" y="128"/>
      <point x="79" y="115" type="curve" smooth="yes"/>
    </contour>
    <contour>
      <point x="351" y="19" type="line" smooth="yes"/>
      <point x="351" y="8"/>
      <point x="359" y="0"/>
      <point x="371" y="0" type="curve" smooth="yes"/>
      <point x="445" y="0" type="line" smooth="yes"/>
      <point x="456" y="0"/>
      <point x="465" y="5"/>
      <point x="465" y="19" type="curve" smooth="yes"/>
      <point x="465" y="115" type="line" smooth="yes"/>
      <point x="465" y="128"/>
      <point x="459" y="135"/>
      <point x="445" y="135" type="curve" smooth="yes"/>
      <point x="371" y="135" type="line" smooth="yes"/>
      <point x="358" y="135"/>
      <point x="351" y="128"/>
      <point x="351" y="115" type="curve" smooth="yes"/>
    </contour>
    <contour>
      <point x="623" y="19" type="line" smooth="yes"/>
      <point x="623" y="8"/>
      <point x="631" y="0"/>
      <point x="643" y="0" type="curve" smooth="yes"/>
      <point x="717" y="0" type="line" smooth="yes"/>
      <point x="728" y="0"/>
      <point x="737" y="5"/>
      <point x="737" y="19" type="curve" smooth="yes"/>
      <point x="737" y="115" type="line" smooth="yes"/>
      <point x="737" y="128"/>
      <point x="731" y="135"/>
      <point x="717" y="135" type="curve" smooth="yes"/>
      <point x="643" y="135" type="line" smooth="yes"/>
      <point x="630" y="135"/>
      <point x="623" y="128"/>
      <point x="623" y="115" type="curve" smooth="yes"/>
    </contour>
  </outline>
</glyph>
<glyph name="guilsinglleft" format="1">
  <advance width="367"/>
  <unicode hex="2039"/>
  <note>
    GF Latin Plus glyph
  </note>
  <outline>
    <contour>
      <point x="45" y="282" type="line"/>
      <point x="267" y="62" type="line"/>
      <point x="329" y="126" type="line"/>
      <point x="171" y="282" type="line"/>
      <point x="326" y="434" type="line"/>
      <point x="262" y="496" type="line"/>
    </contour>
  </outline>
</glyph>
<glyph name="guilsinglright" format="1">
  <advance width="368"/>
  <unicode hex="203A"/>
  <note>
    GF Latin Plus glyph
  </note>
  <outline>
    <contour>
      <point x="327" y="280" type="line"/>
      <point x="107" y="497" type="line"/>
      <point x="40" y="432" type="line"/>
      <point x="195" y="280" type="line"/>
      <point x="42" y="129" type="line"/>
      <point x="106" y="61" type="line"/>
    </contour>
  </outline>
</glyph>
<glyph name="zerosuperior" format="1">
  <advance width="453"/>
  <unicode hex="2070"/>
  <outline>
    <contour>
      <point x="147" y="433" type="curve" smooth="yes"/>
      <point x="147" y="668" type="line" smooth="yes"/>
      <point x="147" y="708"/>
      <point x="170" y="725"/>
      <point x="201" y="725" type="curve" smooth="yes"/>
      <point x="253" y="725" type="line" smooth="yes"/>
      <point x="286" y="725"/>
      <point x="307" y="708"/>
      <point x="307" y="668" type="curve" smooth="yes"/>
      <point x="307" y="433" type="line" smooth="yes"/>
      <point x="307" y="394"/>
      <point x="288" y="376"/>
      <point x="253" y="376" type="curve" smooth="yes"/>
      <point x="201" y="376" type="line" smooth="yes"/>
      <point x="170" y="376"/>
      <point x="147" y="393"/>
    </contour>
    <contour>
      <point x="32" y="417" type="line" smooth="yes"/>
      <point x="32" y="326"/>
      <point x="84" y="277"/>
      <point x="178" y="277" type="curve" smooth="yes"/>
      <point x="281" y="277" type="line" smooth="yes"/>
      <point x="369" y="277"/>
      <point x="421" y="326"/>
      <point x="421" y="417" type="curve" smooth="yes"/>
      <point x="421" y="679" type="line" smooth="yes"/>
      <point x="421" y="770"/>
      <point x="374" y="824"/>
      <point x="281" y="824" type="curve" smooth="yes"/>
      <point x="178" y="824" type="line" smooth="yes"/>
      <point x="87" y="824"/>
      <point x="32" y="773"/>
      <point x="32" y="679" type="curve" smooth="yes"/>
    </contour>
  </outline>
</glyph>
<glyph name="i.superior" format="1">
  <advance width="196"/>
  <unicode hex="2071"/>
  <outline>
    <contour>
      <point x="39" y="744" type="line" smooth="yes"/>
      <point x="39" y="734"/>
      <point x="46" y="729"/>
      <point x="55" y="729" type="curve" smooth="yes"/>
      <point x="143" y="729" type="line" smooth="yes"/>
      <point x="153" y="729"/>
      <point x="157" y="734"/>
      <point x="157" y="744" type="curve" smooth="yes"/>
      <point x="157" y="816" type="line" smooth="yes"/>
      <point x="157" y="825"/>
      <point x="153" y="832"/>
      <point x="143" y="832" type="curve" smooth="yes"/>
      <point x="55" y="832" type="line" smooth="yes"/>
      <point x="45" y="832"/>
      <point x="39" y="826"/>
      <point x="39" y="816" type="curve" smooth="yes"/>
    </contour>
    <contour>
      <point x="41" y="280" type="line"/>
      <point x="155" y="280" type="line"/>
      <point x="155" y="672" type="line"/>
      <point x="41" y="672" type="line"/>
    </contour>
    <contour>
      <point x="148" y="280" type="move" name="ogonek"/>
    </contour>
    <contour>
      <point x="98" y="170" type="move" name="bottom"/>
    </contour>
  </outline>
</glyph>
<glyph name="foursuperior" format="1">
  <advance width="453"/>
  <unicode hex="2074"/>
  <note>
    GF Latin Plus glyph
  </note>
  <outline>
    <contour>
      <point x="13" y="446" type="line"/>
      <point x="34" y="393" type="line"/>
      <point x="274" y="393" type="line"/>
      <point x="274" y="280" type="line"/>
      <point x="382" y="280" type="line"/>
      <point x="382" y="393" type="line"/>
      <point x="438" y="411" type="line"/>
      <point x="438" y="487" type="line"/>
      <point x="382" y="487" type="line"/>
      <point x="382" y="654" type="line"/>
      <point x="301" y="654" type="line"/>
      <point x="274" y="572" type="line"/>
      <point x="274" y="487" type="line"/>
      <point x="146" y="487" type="line"/>
      <point x="304" y="820" type="line"/>
      <point x="190" y="820" type="line"/>
    </contour>
  </outline>
</glyph>
<glyph name="fivesuperior" format="1">
  <advance width="453"/>
  <unicode hex="2075"/>
  <outline>
    <contour>
      <point x="52" y="288" type="line"/>
      <point x="112" y="282"/>
      <point x="182" y="276"/>
      <point x="242" y="276" type="curve" smooth="yes"/>
      <point x="363" y="276"/>
      <point x="428" y="317"/>
      <point x="428" y="412" type="curve" smooth="yes"/>
      <point x="428" y="492" type="line" smooth="yes"/>
      <point x="428" y="564"/>
      <point x="387" y="619"/>
      <point x="301" y="619" type="curve" smooth="yes"/>
      <point x="241" y="619" type="line" smooth="yes"/>
      <point x="210" y="619"/>
      <point x="183" y="611"/>
      <point x="168" y="596" type="curve"/>
      <point x="173" y="721" type="line"/>
      <point x="407" y="721" type="line"/>
      <point x="407" y="820" type="line"/>
      <point x="75" y="820" type="line"/>
      <point x="59" y="487" type="line"/>
      <point x="168" y="487" type="line"/>
      <point x="172" y="513"/>
      <point x="188" y="525"/>
      <point x="218" y="525" type="curve" smooth="yes"/>
      <point x="260" y="525" type="line" smooth="yes"/>
      <point x="295" y="525"/>
      <point x="314" y="505"/>
      <point x="314" y="474" type="curve" smooth="yes"/>
      <point x="314" y="429" type="line" smooth="yes"/>
      <point x="314" y="395"/>
      <point x="286" y="375"/>
      <point x="247" y="375" type="curve" smooth="yes"/>
      <point x="52" y="375" type="line"/>
    </contour>
  </outline>
</glyph>
<glyph name="sixsuperior" format="1">
  <advance width="453"/>
  <unicode hex="2076"/>
  <outline>
    <contour>
      <point x="155" y="513" type="curve"/>
      <point x="245" y="513" type="line" smooth="yes"/>
      <point x="289" y="513"/>
      <point x="308" y="503"/>
      <point x="308" y="461" type="curve" smooth="yes"/>
      <point x="308" y="424" type="line" smooth="yes"/>
      <point x="308" y="390"/>
      <point x="288" y="376"/>
      <point x="259" y="376" type="curve" smooth="yes"/>
      <point x="222" y="376" type="line" smooth="yes"/>
      <point x="177" y="376"/>
      <point x="155" y="404"/>
    </contour>
    <contour>
      <point x="41" y="543" type="curve" smooth="yes"/>
      <point x="41" y="331"/>
      <point x="98" y="277"/>
      <point x="207" y="277" type="curve" smooth="yes"/>
      <point x="286" y="277" type="line" smooth="yes"/>
      <point x="367" y="277"/>
      <point x="423" y="313"/>
      <point x="423" y="404" type="curve" smooth="yes"/>
      <point x="423" y="482" type="line" smooth="yes"/>
      <point x="423" y="558"/>
      <point x="387" y="606"/>
      <point x="277" y="606" type="curve" smooth="yes"/>
      <point x="227" y="606"/>
      <point x="189" y="604"/>
      <point x="155" y="594" type="curve"/>
      <point x="155" y="680"/>
      <point x="187" y="725"/>
      <point x="261" y="725" type="curve" smooth="yes"/>
      <point x="390" y="725" type="line"/>
      <point x="390" y="813" type="line"/>
      <point x="350" y="820"/>
      <point x="299" y="824"/>
      <point x="250" y="824" type="curve" smooth="yes"/>
      <point x="118" y="824"/>
      <point x="41" y="755"/>
    </contour>
  </outline>
</glyph>
<glyph name="sevensuperior" format="1">
  <advance width="453"/>
  <unicode hex="2077"/>
  <outline>
    <contour>
      <point x="37" y="715" type="line"/>
      <point x="272" y="715" type="line"/>
      <point x="108" y="280" type="line"/>
      <point x="230" y="280" type="line"/>
      <point x="413" y="775" type="line"/>
      <point x="384" y="820" type="line"/>
      <point x="37" y="820" type="line"/>
    </contour>
  </outline>
</glyph>
<glyph name="eightsuperior" format="1">
  <advance width="453"/>
  <unicode hex="2078"/>
  <outline>
    <contour>
      <point x="154" y="651" type="curve" smooth="yes"/>
      <point x="154" y="686" type="line" smooth="yes"/>
      <point x="154" y="724"/>
      <point x="169" y="735"/>
      <point x="200" y="735" type="curve" smooth="yes"/>
      <point x="257" y="735" type="line" smooth="yes"/>
      <point x="283" y="735"/>
      <point x="300" y="726"/>
      <point x="300" y="686" type="curve" smooth="yes"/>
      <point x="300" y="651" type="line" smooth="yes"/>
      <point x="300" y="623"/>
      <point x="292" y="601"/>
      <point x="255" y="601" type="curve" smooth="yes"/>
      <point x="200" y="601" type="line" smooth="yes"/>
      <point x="168" y="601"/>
      <point x="154" y="615"/>
    </contour>
    <contour>
      <point x="146" y="413" type="curve" smooth="yes"/>
      <point x="146" y="463" type="line" smooth="yes"/>
      <point x="146" y="495"/>
      <point x="173" y="511"/>
      <point x="200" y="511" type="curve" smooth="yes"/>
      <point x="256" y="511" type="line" smooth="yes"/>
      <point x="292" y="511"/>
      <point x="309" y="494"/>
      <point x="309" y="463" type="curve" smooth="yes"/>
      <point x="309" y="413" type="line" smooth="yes"/>
      <point x="309" y="384"/>
      <point x="297" y="366"/>
      <point x="256" y="366" type="curve" smooth="yes"/>
      <point x="200" y="366" type="line" smooth="yes"/>
      <point x="165" y="366"/>
      <point x="146" y="379"/>
    </contour>
    <contour>
      <point x="37" y="394" type="line" smooth="yes"/>
      <point x="37" y="311"/>
      <point x="93" y="277"/>
      <point x="182" y="277" type="curve" smooth="yes"/>
      <point x="282" y="277" type="line" smooth="yes"/>
      <point x="369" y="277"/>
      <point x="417" y="312"/>
      <point x="417" y="394" type="curve" smooth="yes"/>
      <point x="417" y="470" type="line" smooth="yes"/>
      <point x="417" y="503"/>
      <point x="399" y="550"/>
      <point x="357" y="564" type="curve"/>
      <point x="389" y="576"/>
      <point x="406" y="611"/>
      <point x="406" y="650" type="curve" smooth="yes"/>
      <point x="406" y="712" type="line" smooth="yes"/>
      <point x="406" y="793"/>
      <point x="350" y="824"/>
      <point x="281" y="824" type="curve" smooth="yes"/>
      <point x="176" y="824" type="line" smooth="yes"/>
      <point x="107" y="824"/>
      <point x="47" y="793"/>
      <point x="47" y="712" type="curve" smooth="yes"/>
      <point x="47" y="650" type="line" smooth="yes"/>
      <point x="47" y="611"/>
      <point x="62" y="575"/>
      <point x="98" y="555" type="curve"/>
      <point x="65" y="545"/>
      <point x="37" y="510"/>
      <point x="37" y="468" type="curve" smooth="yes"/>
    </contour>
  </outline>
</glyph>
<glyph name="ninesuperior" format="1">
  <advance width="453"/>
  <unicode hex="2079"/>
  <outline>
    <contour>
      <point x="308" y="586" type="curve"/>
      <point x="217" y="586" type="line" smooth="yes"/>
      <point x="167" y="586"/>
      <point x="142" y="596"/>
      <point x="142" y="640" type="curve" smooth="yes"/>
      <point x="142" y="676" type="line" smooth="yes"/>
      <point x="142" y="718"/>
      <point x="167" y="729"/>
      <point x="198" y="729" type="curve" smooth="yes"/>
      <point x="238" y="729" type="line" smooth="yes"/>
      <point x="288" y="729"/>
      <point x="308" y="700"/>
    </contour>
    <contour>
      <point x="417" y="557" type="curve" smooth="yes"/>
      <point x="417" y="770"/>
      <point x="359" y="824"/>
      <point x="253" y="824" type="curve" smooth="yes"/>
      <point x="173" y="824" type="line" smooth="yes"/>
      <point x="93" y="824"/>
      <point x="36" y="788"/>
      <point x="36" y="697" type="curve" smooth="yes"/>
      <point x="36" y="619" type="line" smooth="yes"/>
      <point x="36" y="542"/>
      <point x="74" y="496"/>
      <point x="183" y="496" type="curve" smooth="yes"/>
      <point x="233" y="496"/>
      <point x="274" y="499"/>
      <point x="308" y="508" type="curve"/>
      <point x="308" y="417"/>
      <point x="275" y="370"/>
      <point x="199" y="370" type="curve" smooth="yes"/>
      <point x="70" y="370" type="line"/>
      <point x="70" y="288" type="line"/>
      <point x="109" y="280"/>
      <point x="161" y="276"/>
      <point x="210" y="276" type="curve" smooth="yes"/>
      <point x="340" y="276"/>
      <point x="417" y="347"/>
    </contour>
  </outline>
</glyph>
<glyph name="franc" format="1">
  <advance width="609"/>
  <unicode hex="20A3"/>
  <note>
    GF Latin Plus glyph
  </note>
  <outline>
    <contour>
      <point x="137" y="0" type="line"/>
      <point x="268" y="0" type="line"/>
      <point x="268" y="332" type="line"/>
      <point x="498" y="339" type="line"/>
      <point x="498" y="441" type="line"/>
      <point x="268" y="449" type="line"/>
      <point x="268" y="552" type="line" smooth="yes"/>
      <point x="268" y="593"/>
      <point x="291" y="619"/>
      <point x="335" y="619" type="curve" smooth="yes"/>
      <point x="544" y="619" type="line"/>
      <point x="544" y="727" type="line"/>
      <point x="489" y="734"/>
      <point x="329" y="739"/>
      <point x="300" y="739" type="curve" smooth="yes"/>
      <point x="224" y="740"/>
      <point x="137" y="704"/>
      <point x="137" y="581" type="curve" smooth="yes"/>
    </contour>
    <contour>
      <point x="59" y="126" type="line"/>
      <point x="137" y="119" type="line"/>
      <point x="268" y="119" type="line"/>
      <point x="482" y="126" type="line"/>
      <point x="482" y="216" type="line"/>
      <point x="268" y="223" type="line"/>
      <point x="137" y="223" type="line"/>
      <point x="59" y="216" type="line"/>
    </contour>
  </outline>
</glyph>
<glyph name="lira" format="1">
  <advance width="609"/>
  <unicode hex="20A4"/>
  <note>
    GF Latin Plus glyph
  </note>
  <outline>
    <contour>
      <point x="59" y="0" type="line"/>
      <point x="555" y="0" type="line"/>
      <point x="555" y="117" type="line"/>
      <point x="287" y="117" type="line"/>
      <point x="287" y="241" type="line"/>
      <point x="477" y="244" type="line"/>
      <point x="477" y="303" type="line"/>
      <point x="287" y="308" type="line"/>
      <point x="287" y="376" type="line"/>
      <point x="477" y="379" type="line"/>
      <point x="477" y="438" type="line"/>
      <point x="287" y="443" type="line"/>
      <point x="287" y="516" type="line" smooth="yes"/>
      <point x="287" y="606"/>
      <point x="321" y="626"/>
      <point x="396" y="626" type="curve" smooth="yes"/>
      <point x="549" y="626" type="line"/>
      <point x="549" y="730" type="line"/>
      <point x="513" y="736"/>
      <point x="454" y="743"/>
      <point x="390" y="743" type="curve" smooth="yes"/>
      <point x="233" y="743"/>
      <point x="156" y="685"/>
      <point x="156" y="514" type="curve" smooth="yes"/>
      <point x="156" y="443" type="line"/>
      <point x="59" y="438" type="line"/>
      <point x="59" y="379" type="line"/>
      <point x="156" y="376" type="line"/>
      <point x="156" y="314" type="line"/>
      <point x="61" y="308" type="line"/>
      <point x="61" y="249" type="line"/>
      <point x="156" y="246" type="line"/>
      <point x="156" y="117" type="line"/>
      <point x="59" y="99" type="line"/>
    </contour>
  </outline>
</glyph>
<glyph name="dong" format="1">
  <advance width="609"/>
  <unicode hex="20AB"/>
  <note>
    GF Latin Plus glyph
  </note>
  <outline>
    <contour>
      <point x="68" y="-42" type="line"/>
      <point x="554" y="-42" type="line"/>
      <point x="554" y="64" type="line"/>
      <point x="68" y="64" type="line"/>
    </contour>
    <contour>
      <point x="276" y="659" type="line"/>
      <point x="591" y="659" type="line"/>
      <point x="591" y="711" type="line"/>
      <point x="276" y="711" type="line"/>
    </contour>
    <contour>
      <point x="183" y="362" type="curve" smooth="yes"/>
      <point x="183" y="459"/>
      <point x="216" y="486"/>
      <point x="296" y="486" type="curve" smooth="yes"/>
      <point x="335" y="486"/>
      <point x="367" y="475"/>
      <point x="399" y="464" type="curve"/>
      <point x="399" y="278" type="line"/>
      <point x="372" y="262"/>
      <point x="335" y="244"/>
      <point x="289" y="244" type="curve" smooth="yes"/>
      <point x="215" y="244"/>
      <point x="183" y="273"/>
    </contour>
    <contour>
      <point x="53" y="356" type="curve" smooth="yes"/>
      <point x="53" y="201"/>
      <point x="117" y="139"/>
      <point x="245" y="139" type="curve" smooth="yes"/>
      <point x="300" y="139"/>
      <point x="365" y="167"/>
      <point x="399" y="197" type="curve"/>
      <point x="421" y="145" type="line"/>
      <point x="529" y="145" type="line"/>
      <point x="529" y="783" type="line"/>
      <point x="399" y="783" type="line"/>
      <point x="399" y="557" type="line"/>
      <point x="360" y="571"/>
      <point x="306" y="584"/>
      <point x="255" y="584" type="curve" smooth="yes"/>
      <point x="103" y="584"/>
      <point x="53" y="517"/>
    </contour>
  </outline>
</glyph>
<glyph name="kip" format="1">
  <advance width="609"/>
  <unicode hex="20AD"/>
  <note>
    GF Latin Plus glyph
  </note>
  <outline>
    <contour>
      <point x="18" y="305" type="line"/>
      <point x="564" y="305" type="line"/>
      <point x="564" y="429" type="line"/>
      <point x="18" y="429" type="line"/>
    </contour>
    <contour>
      <point x="75" y="0" type="line"/>
      <point x="205" y="0" type="line"/>
      <point x="205" y="309" type="line"/>
      <point x="297" y="309" type="line"/>
      <point x="448" y="0" type="line"/>
      <point x="585" y="0" type="line"/>
      <point x="399" y="368" type="line"/>
      <point x="580" y="739" type="line"/>
      <point x="443" y="739" type="line"/>
      <point x="297" y="426" type="line"/>
      <point x="205" y="426" type="line"/>
      <point x="205" y="739" type="line"/>
      <point x="75" y="739" type="line"/>
    </contour>
  </outline>
</glyph>
<glyph name="peso" format="1">
  <advance width="609"/>
  <unicode hex="20B1"/>
  <note>
    GF Latin Plus glyph
  </note>
  <outline>
    <contour>
      <point x="474" y="524" type="line"/>
      <point x="599" y="524" type="line"/>
      <point x="599" y="588" type="line"/>
      <point x="474" y="588" type="line"/>
    </contour>
    <contour>
      <point x="10" y="524" type="line"/>
      <point x="154" y="524" type="line"/>
      <point x="154" y="588" type="line"/>
      <point x="10" y="588" type="line"/>
    </contour>
    <contour>
      <point x="450" y="350" type="line"/>
      <point x="599" y="350" type="line"/>
      <point x="599" y="414" type="line"/>
      <point x="472" y="414" type="line"/>
    </contour>
    <contour>
      <point x="10" y="350" type="line"/>
      <point x="158" y="350" type="line"/>
      <point x="158" y="414" type="line"/>
      <point x="10" y="414" type="line"/>
    </contour>
    <contour>
      <point x="213" y="349" type="line"/>
      <point x="213" y="627" type="line"/>
      <point x="320" y="627" type="line" smooth="yes"/>
      <point x="374" y="627"/>
      <point x="413" y="594"/>
      <point x="413" y="490" type="curve" smooth="yes"/>
      <point x="413" y="385"/>
      <point x="375" y="349"/>
      <point x="316" y="349" type="curve" smooth="yes"/>
    </contour>
    <contour>
      <point x="101" y="0" type="line"/>
      <point x="213" y="0" type="line"/>
      <point x="213" y="252" type="line"/>
      <point x="243" y="248"/>
      <point x="299" y="237"/>
      <point x="335" y="237" type="curve" smooth="yes"/>
      <point x="417" y="237"/>
      <point x="526" y="272"/>
      <point x="526" y="491" type="curve" smooth="yes"/>
      <point x="526" y="708"/>
      <point x="419" y="738"/>
      <point x="332" y="738" type="curve" smooth="yes"/>
      <point x="101" y="738" type="line"/>
    </contour>
  </outline>
</glyph>
<glyph name="guarani" format="1">
  <advance width="609"/>
  <unicode hex="20B2"/>
  <note>
    GF Latin Plus glyph
  </note>
  <outline>
    <contour>
      <point x="360" y="-91" type="line"/>
      <point x="360" y="793" type="line"/>
      <point x="299" y="793" type="line"/>
      <point x="299" y="-91" type="line"/>
    </contour>
    <contour>
      <point x="36" y="366" type="curve" smooth="yes"/>
      <point x="36" y="134"/>
      <point x="81" y="-6"/>
      <point x="267" y="-5" type="curve" smooth="yes"/>
      <point x="353" y="-5"/>
      <point x="432" y="26"/>
      <point x="473" y="51" type="curve"/>
      <point x="492" y="0" type="line"/>
      <point x="577" y="0" type="line"/>
      <point x="577" y="412" type="line"/>
      <point x="459" y="412" type="line"/>
      <point x="459" y="140" type="line"/>
      <point x="424" y="128"/>
      <point x="366" y="115"/>
      <point x="307" y="115" type="curve" smooth="yes"/>
      <point x="191" y="115"/>
      <point x="154" y="165"/>
      <point x="154" y="366" type="curve" smooth="yes"/>
      <point x="154" y="556"/>
      <point x="185" y="621"/>
      <point x="334" y="621" type="curve" smooth="yes"/>
      <point x="425" y="621"/>
      <point x="515" y="613"/>
      <point x="557" y="607" type="curve"/>
      <point x="557" y="707" type="line"/>
      <point x="483" y="725"/>
      <point x="406" y="738"/>
      <point x="311" y="738" type="curve" smooth="yes"/>
      <point x="88" y="738"/>
      <point x="36" y="604"/>
    </contour>
  </outline>
</glyph>
<glyph name="cedi" format="1">
  <advance width="609"/>
  <unicode hex="20B5"/>
  <note>
    GF Latin Plus glyph
  </note>
  <outline>
    <contour>
      <point x="397" y="-91" type="line"/>
      <point x="397" y="793" type="line"/>
      <point x="335" y="793" type="line"/>
      <point x="335" y="-91" type="line"/>
    </contour>
    <contour>
      <point x="56" y="364" type="curve" smooth="yes"/>
      <point x="56" y="57"/>
      <point x="156" y="-6"/>
      <point x="332" y="-6" type="curve" smooth="yes"/>
      <point x="438" y="-6"/>
      <point x="512" y="7"/>
      <point x="558" y="26" type="curve"/>
      <point x="558" y="120" type="line"/>
      <point x="507" y="110"/>
      <point x="454" y="105"/>
      <point x="362" y="105" type="curve" smooth="yes"/>
      <point x="214" y="105"/>
      <point x="174" y="151"/>
      <point x="174" y="362" type="curve" smooth="yes"/>
      <point x="174" y="593"/>
      <point x="236" y="625"/>
      <point x="373" y="625" type="curve" smooth="yes"/>
      <point x="430" y="625"/>
      <point x="505" y="617"/>
      <point x="558" y="610" type="curve"/>
      <point x="558" y="704" type="line"/>
      <point x="523" y="717"/>
      <point x="444" y="736"/>
      <point x="345" y="736" type="curve" smooth="yes"/>
      <point x="174" y="736"/>
      <point x="56" y="669"/>
    </contour>
  </outline>
</glyph>
<glyph name="ruble" format="1">
  <advance width="609"/>
  <unicode hex="20BD"/>
  <note>
    GF Latin Plus glyph
  </note>
  <outline>
    <contour>
      <point x="174" y="106" type="line"/>
      <point x="485" y="106" type="line"/>
      <point x="485" y="173" type="line"/>
      <point x="180" y="173" type="line"/>
    </contour>
    <contour>
      <point x="14" y="106" type="line"/>
      <point x="166" y="106" type="line"/>
      <point x="166" y="173" type="line"/>
      <point x="14" y="173" type="line"/>
    </contour>
    <contour>
      <point x="225" y="380" type="line"/>
      <point x="225" y="622" type="line"/>
      <point x="325" y="622" type="line" smooth="yes"/>
      <point x="396" y="622"/>
      <point x="426" y="588"/>
      <point x="426" y="503" type="curve" smooth="yes"/>
      <point x="426" y="421"/>
      <point x="399" y="380"/>
      <point x="325" y="380" type="curve" smooth="yes"/>
    </contour>
    <contour>
      <point x="101" y="0" type="line"/>
      <point x="225" y="0" type="line"/>
      <point x="225" y="275" type="line"/>
      <point x="237" y="273"/>
      <point x="325" y="267"/>
      <point x="345" y="267" type="curve" smooth="yes"/>
      <point x="453" y="267"/>
      <point x="550" y="314"/>
      <point x="550" y="504" type="curve" smooth="yes"/>
      <point x="550" y="703"/>
      <point x="446" y="739"/>
      <point x="345" y="739" type="curve" smooth="yes"/>
      <point x="101" y="739" type="line"/>
    </contour>
    <contour>
      <point x="14" y="313" type="line"/>
      <point x="164" y="313" type="line"/>
      <point x="164" y="380" type="line"/>
      <point x="14" y="380" type="line"/>
    </contour>
  </outline>
</glyph>
<glyph name="afii61289" format="1">
  <advance width="484"/>
  <unicode hex="2113"/>
  <outline>
    <contour>
      <point x="213" y="393" type="curve"/>
      <point x="213" y="581" type="line" smooth="yes"/>
      <point x="213" y="622"/>
      <point x="237" y="640"/>
      <point x="265" y="640" type="curve" smooth="yes"/>
      <point x="302" y="640"/>
      <point x="323" y="614"/>
      <point x="323" y="576" type="curve" smooth="yes"/>
      <point x="323" y="513"/>
      <point x="278" y="460"/>
    </contour>
    <contour>
      <point x="26" y="254" type="curve"/>
      <point x="43" y="192" type="line"/>
      <point x="54" y="197"/>
      <point x="72" y="209"/>
      <point x="83" y="218" type="curve"/>
      <point x="83" y="181" type="line" smooth="yes"/>
      <point x="83" y="44"/>
      <point x="139" y="0"/>
      <point x="239" y="0" type="curve" smooth="yes"/>
      <point x="386" y="0" type="line"/>
      <point x="386" y="77" type="line"/>
      <point x="320" y="87" type="line" smooth="yes"/>
      <point x="229" y="102"/>
      <point x="213" y="142"/>
      <point x="213" y="227" type="curve" smooth="yes"/>
      <point x="213" y="269" type="line"/>
      <point x="302" y="333"/>
      <point x="432" y="438"/>
      <point x="432" y="569" type="curve" smooth="yes"/>
      <point x="432" y="686"/>
      <point x="362" y="739"/>
      <point x="268" y="739" type="curve" smooth="yes"/>
      <point x="150" y="739"/>
      <point x="83" y="683"/>
      <point x="83" y="560" type="curve" smooth="yes"/>
      <point x="83" y="310" type="line"/>
      <point x="64" y="290"/>
      <point x="45" y="271"/>
    </contour>
  </outline>
</glyph>
<glyph name="numero" format="1">
  <advance width="1127"/>
  <unicode hex="2116"/>
  <note>
    GF Latin Plus glyph
  </note>
  <outline>
    <contour>
      <point x="75" y="0" type="line"/>
      <point x="75" y="599" type="line" smooth="yes"/>
      <point x="75" y="695"/>
      <point x="134" y="745"/>
      <point x="214" y="745" type="curve" smooth="yes"/>
      <point x="300" y="745"/>
      <point x="345" y="706"/>
      <point x="371" y="626" type="curve" smooth="yes"/>
      <point x="531" y="146" type="line" smooth="yes"/>
      <point x="536" y="132"/>
      <point x="547" y="124"/>
      <point x="558" y="124" type="curve" smooth="yes"/>
      <point x="576" y="124"/>
      <point x="585" y="136"/>
      <point x="585" y="157" type="curve" smooth="yes"/>
      <point x="585" y="538" type="line" smooth="yes"/>
      <point x="585" y="706"/>
      <point x="677" y="753"/>
      <point x="796" y="753" type="curve" smooth="yes"/>
      <point x="968" y="753" type="line" smooth="yes"/>
      <point x="1076" y="753"/>
      <point x="1133" y="687"/>
      <point x="1133" y="548" type="curve" smooth="yes"/>
      <point x="1133" y="430"/>
      <point x="1083" y="369"/>
      <point x="979" y="369" type="curve" smooth="yes"/>
      <point x="949" y="369" type="line" smooth="yes"/>
      <point x="846" y="369"/>
      <point x="793" y="416"/>
      <point x="793" y="582" type="curve"/>
      <point x="890" y="582" type="line"/>
      <point x="890" y="488"/>
      <point x="913" y="460"/>
      <point x="955" y="460" type="curve" smooth="yes"/>
      <point x="973" y="460" type="line" smooth="yes"/>
      <point x="1017" y="460"/>
      <point x="1036" y="487"/>
      <point x="1036" y="548" type="curve" smooth="yes"/>
      <point x="1036" y="625"/>
      <point x="1007" y="648"/>
      <point x="964" y="648" type="curve" smooth="yes"/>
      <point x="815" y="648" type="line" smooth="yes"/>
      <point x="755" y="648"/>
      <point x="716" y="627"/>
      <point x="716" y="530" type="curve" smooth="yes"/>
      <point x="716" y="127" type="line" smooth="yes"/>
      <point x="716" y="40"/>
      <point x="653" y="-6"/>
      <point x="580" y="-6" type="curve" smooth="yes"/>
      <point x="497" y="-6"/>
      <point x="447" y="33"/>
      <point x="420" y="114" type="curve" smooth="yes"/>
      <point x="260" y="589" type="line" smooth="yes"/>
      <point x="254" y="607"/>
      <point x="244" y="616"/>
      <point x="231" y="616" type="curve" smooth="yes"/>
      <point x="216" y="616"/>
      <point x="205" y="605"/>
      <point x="205" y="581" type="curve" smooth="yes"/>
      <point x="205" y="0" type="line"/>
    </contour>
  </outline>
</glyph>
<glyph name="estimated" format="1">
  <advance width="708"/>
  <unicode hex="212E"/>
  <outline>
    <contour>
      <point x="164" y="284" type="curve" smooth="yes"/>
      <point x="164" y="421" type="line" smooth="yes"/>
      <point x="164" y="444"/>
      <point x="245" y="514"/>
      <point x="353" y="514" type="curve" smooth="yes"/>
      <point x="439" y="514"/>
      <point x="543" y="457"/>
      <point x="543" y="415" type="curve" smooth="yes"/>
      <point x="543" y="282" type="line" smooth="yes"/>
      <point x="543" y="272"/>
      <point x="542" y="275"/>
      <point x="530" y="275" type="curve" smooth="yes"/>
      <point x="173" y="275" type="line" smooth="yes"/>
      <point x="168" y="275"/>
      <point x="164" y="275"/>
    </contour>
    <contour>
      <point x="53" y="266" type="curve" smooth="yes"/>
      <point x="53" y="188"/>
      <point x="81" y="125"/>
      <point x="136" y="74" type="curve" smooth="yes"/>
      <point x="191" y="23"/>
      <point x="258" y="0"/>
      <point x="354" y="0" type="curve" smooth="yes"/>
      <point x="416" y="0"/>
      <point x="446" y="6"/>
      <point x="488" y="22" type="curve" smooth="yes"/>
      <point x="528" y="38"/>
      <point x="563" y="65"/>
      <point x="601" y="105" type="curve"/>
      <point x="545" y="105" type="line"/>
      <point x="502" y="57"/>
      <point x="430" y="21"/>
      <point x="354" y="21" type="curve" smooth="yes"/>
      <point x="240" y="21"/>
      <point x="164" y="87"/>
      <point x="164" y="114" type="curve" smooth="yes"/>
      <point x="164" y="247" type="line" smooth="yes"/>
      <point x="164" y="260"/>
      <point x="169" y="258"/>
      <point x="176" y="258" type="curve" smooth="yes"/>
      <point x="655" y="258" type="line"/>
      <point x="651" y="347"/>
      <point x="620" y="422"/>
      <point x="562" y="467" type="curve" smooth="yes"/>
      <point x="504" y="512"/>
      <point x="443" y="533"/>
      <point x="354" y="533" type="curve" smooth="yes"/>
      <point x="257" y="533"/>
      <point x="193" y="508"/>
      <point x="137" y="458" type="curve"/>
      <point x="82" y="406"/>
      <point x="53" y="344"/>
    </contour>
  </outline>
</glyph>
<glyph name="emptyset" format="1">
  <advance width="609"/>
  <unicode hex="2205"/>
  <outline>
    <contour>
      <point x="562" y="613" type="line"/>
      <point x="9" y="-30" type="line"/>
      <point x="48" y="-69" type="line"/>
      <point x="600" y="575" type="line"/>
    </contour>
    <contour>
      <point x="184" y="224" type="curve" smooth="yes"/>
      <point x="184" y="310" type="line" smooth="yes"/>
      <point x="184" y="401"/>
      <point x="225" y="434"/>
      <point x="278" y="434" type="curve" smooth="yes"/>
      <point x="331" y="434" type="line" smooth="yes"/>
      <point x="384" y="434"/>
      <point x="425" y="401"/>
      <point x="425" y="310" type="curve" smooth="yes"/>
      <point x="425" y="224" type="line" smooth="yes"/>
      <point x="425" y="134"/>
      <point x="384" y="100"/>
      <point x="331" y="100" type="curve" smooth="yes"/>
      <point x="278" y="100" type="line" smooth="yes"/>
      <point x="225" y="100"/>
      <point x="184" y="134"/>
    </contour>
    <contour>
      <point x="60" y="226" type="line" smooth="yes"/>
      <point x="60" y="100"/>
      <point x="125" y="-6"/>
      <point x="270" y="-6" type="curve" smooth="yes"/>
      <point x="339" y="-6" type="line" smooth="yes"/>
      <point x="484" y="-6"/>
      <point x="548" y="100"/>
      <point x="548" y="226" type="curve" smooth="yes"/>
      <point x="548" y="309" type="line" smooth="yes"/>
      <point x="548" y="435"/>
      <point x="483" y="541"/>
      <point x="339" y="541" type="curve" smooth="yes"/>
      <point x="270" y="541" type="line" smooth="yes"/>
      <point x="126" y="541"/>
      <point x="60" y="435"/>
      <point x="60" y="309" type="curve" smooth="yes"/>
    </contour>
  </outline>
</glyph>
<glyph name="increment" format="1">
  <advance width="706"/>
  <unicode hex="2206"/>
  <outline>
    <contour>
      <point x="181" y="111" type="line"/>
      <point x="339" y="605" type="line"/>
      <point x="500" y="111" type="line"/>
    </contour>
    <contour>
      <point x="23" y="0" type="line"/>
      <point x="659" y="0" type="line"/>
      <point x="413" y="738" type="line"/>
      <point x="268" y="738" type="line"/>
    </contour>
  </outline>
</glyph>
<glyph name="product" format="1">
  <advance width="631"/>
  <unicode hex="220F"/>
  <outline>
    <contour>
      <point x="17" y="622" type="line"/>
      <point x="91" y="622" type="line"/>
      <point x="91" y="0" type="line"/>
      <point x="221" y="0" type="line"/>
      <point x="221" y="622" type="line"/>
      <point x="409" y="622" type="line"/>
      <point x="409" y="0" type="line"/>
      <point x="539" y="0" type="line"/>
      <point x="539" y="622" type="line"/>
      <point x="614" y="622" type="line"/>
      <point x="614" y="739" type="line"/>
      <point x="17" y="739" type="line"/>
    </contour>
  </outline>
</glyph>
<glyph name="summation" format="1">
  <advance width="562"/>
  <unicode hex="2211"/>
  <outline>
    <contour>
      <point x="34" y="-79" type="line"/>
      <point x="34" y="-199" type="line"/>
      <point x="545" y="-199" type="line"/>
      <point x="545" y="-80" type="line"/>
      <point x="194" y="-80" type="line"/>
      <point x="407" y="274" type="line"/>
      <point x="194" y="621" type="line"/>
      <point x="545" y="621" type="line"/>
      <point x="545" y="739" type="line"/>
      <point x="34" y="739" type="line"/>
      <point x="34" y="621" type="line"/>
      <point x="248" y="274" type="line"/>
    </contour>
  </outline>
</glyph>
<glyph name="divisionslash" format="1">
  <advance width="609"/>
  <unicode hex="2215"/>
  <note>
    GF Latin Plus glyph
  </note>
  <outline>
    <contour>
      <point x="456" y="712" type="line"/>
      <point x="65" y="0" type="line"/>
      <point x="153" y="0" type="line"/>
      <point x="544" y="712" type="line"/>
    </contour>
  </outline>
</glyph>
<glyph name="radical" format="1">
  <advance width="650"/>
  <unicode hex="221A"/>
  <outline>
    <contour>
      <point x="17" y="253" type="line"/>
      <point x="83" y="253" type="line"/>
      <point x="202" y="0" type="line"/>
      <point x="329" y="0" type="line"/>
      <point x="633" y="800" type="line"/>
      <point x="491" y="800" type="line"/>
      <point x="256" y="180" type="line"/>
      <point x="174" y="371" type="line"/>
      <point x="17" y="371" type="line"/>
    </contour>
  </outline>
</glyph>
<glyph name="infinity" format="1">
  <advance width="775"/>
  <unicode hex="221E"/>
  <outline>
    <contour>
      <point x="443" y="341" type="curve"/>
      <point x="469" y="382"/>
      <point x="517" y="432"/>
      <point x="568" y="432" type="curve" smooth="yes"/>
      <point x="633" y="432"/>
      <point x="642" y="394"/>
      <point x="642" y="341" type="curve" smooth="yes"/>
      <point x="642" y="289"/>
      <point x="628" y="251"/>
      <point x="564" y="251" type="curve" smooth="yes"/>
      <point x="514" y="251"/>
      <point x="470" y="296"/>
    </contour>
    <contour>
      <point x="133" y="341" type="curve" smooth="yes"/>
      <point x="133" y="402"/>
      <point x="144" y="432"/>
      <point x="208" y="432" type="curve" smooth="yes"/>
      <point x="251" y="432"/>
      <point x="299" y="386"/>
      <point x="329" y="342" type="curve"/>
      <point x="308" y="308"/>
      <point x="266" y="251"/>
      <point x="207" y="251" type="curve" smooth="yes"/>
      <point x="150" y="251"/>
      <point x="133" y="282"/>
    </contour>
    <contour>
      <point x="45" y="341" type="curve" smooth="yes"/>
      <point x="45" y="249"/>
      <point x="75" y="169"/>
      <point x="200" y="169" type="curve" smooth="yes"/>
      <point x="283" y="169"/>
      <point x="341" y="209"/>
      <point x="384" y="283" type="curve"/>
      <point x="432" y="213"/>
      <point x="499" y="169"/>
      <point x="573" y="169" type="curve" smooth="yes"/>
      <point x="700" y="169"/>
      <point x="731" y="249"/>
      <point x="731" y="341" type="curve" smooth="yes"/>
      <point x="731" y="424"/>
      <point x="711" y="514"/>
      <point x="579" y="514" type="curve" smooth="yes"/>
      <point x="497" y="514"/>
      <point x="421" y="462"/>
      <point x="385" y="401" type="curve"/>
      <point x="341" y="460"/>
      <point x="278" y="514"/>
      <point x="200" y="514" type="curve" smooth="yes"/>
      <point x="64" y="514"/>
      <point x="45" y="428"/>
    </contour>
  </outline>
</glyph>
<glyph name="integral" format="1">
  <advance width="448"/>
  <unicode hex="222B"/>
  <outline>
    <contour>
      <point x="17" y="-105" type="line"/>
      <point x="17" y="-185" type="line"/>
      <point x="37" y="-195"/>
      <point x="80" y="-203"/>
      <point x="117" y="-203" type="curve" smooth="yes"/>
      <point x="243" y="-203"/>
      <point x="288" y="-108"/>
      <point x="288" y="21" type="curve" smooth="yes"/>
      <point x="288" y="590" type="line" smooth="yes"/>
      <point x="288" y="653"/>
      <point x="307" y="701"/>
      <point x="374" y="701" type="curve" smooth="yes"/>
      <point x="431" y="701" type="line"/>
      <point x="431" y="781" type="line"/>
      <point x="414" y="786"/>
      <point x="388" y="799"/>
      <point x="323" y="799" type="curve" smooth="yes"/>
      <point x="205" y="799"/>
      <point x="158" y="712"/>
      <point x="158" y="596" type="curve" smooth="yes"/>
      <point x="158" y="12" type="line" smooth="yes"/>
      <point x="158" y="-73"/>
      <point x="125" y="-105"/>
      <point x="74" y="-105" type="curve" smooth="yes"/>
    </contour>
  </outline>
</glyph>
<glyph name="f_f" format="1">
  <advance width="784"/>
  <unicode hex="FB00"/>
  <note>
    GF Latin Plus glyph
  </note>
  <outline>
    <contour>
      <point x="13" y="432" type="line"/>
      <point x="91" y="432" type="line"/>
      <point x="91" y="0" type="line"/>
      <point x="221" y="0" type="line"/>
      <point x="221" y="432" type="line"/>
      <point x="553" y="432" type="line"/>
      <point x="553" y="536" type="line"/>
      <point x="221" y="536" type="line"/>
      <point x="221" y="579" type="line" smooth="yes"/>
      <point x="221" y="635"/>
      <point x="237" y="663"/>
      <point x="294" y="663" type="curve" smooth="yes"/>
      <point x="321" y="663"/>
      <point x="356" y="661"/>
      <point x="379" y="659" type="curve"/>
      <point x="379" y="753" type="line"/>
      <point x="350" y="762"/>
      <point x="304" y="769"/>
      <point x="250" y="769" type="curve" smooth="yes"/>
      <point x="140" y="769"/>
      <point x="91" y="724"/>
      <point x="91" y="597" type="curve" smooth="yes"/>
      <point x="91" y="536" type="line"/>
      <point x="13" y="515" type="line"/>
    </contour>
    <component base="f" xOffset="392"/>
  </outline>
</glyph>
<glyph name="fl" format="1">
  <advance width="700"/>
  <unicode hex="FB02"/>
  <note>
    GF Latin Plus glyph
  </note>
  <outline>
    <contour>
      <point x="13" y="432" type="line"/>
      <point x="91" y="432" type="line"/>
      <point x="91" y="0" type="line"/>
      <point x="221" y="0" type="line"/>
      <point x="221" y="432" type="line"/>
      <point x="365" y="432" type="line"/>
      <point x="365" y="536" type="line"/>
      <point x="221" y="536" type="line"/>
      <point x="221" y="579" type="line" smooth="yes"/>
      <point x="221" y="635"/>
      <point x="245" y="663"/>
      <point x="324" y="663" type="curve" smooth="yes"/>
      <point x="407" y="663"/>
      <point x="519" y="659"/>
      <point x="584" y="655" type="curve"/>
      <point x="584" y="744" type="line"/>
      <point x="523" y="755"/>
      <point x="417" y="769"/>
      <point x="305" y="769" type="curve" smooth="yes"/>
      <point x="158" y="769"/>
      <point x="91" y="721"/>
      <point x="91" y="585" type="curve" smooth="yes"/>
      <point x="91" y="536" type="line"/>
      <point x="13" y="515" type="line"/>
    </contour>
    <contour>
      <point x="454" y="175" type="line" smooth="yes"/>
      <point x="454" y="51"/>
      <point x="507" y="0"/>
      <point x="615" y="0" type="curve" smooth="yes"/>
      <point x="689" y="0" type="line"/>
      <point x="689" y="94" type="line"/>
      <point x="645" y="100" type="line" smooth="yes"/>
      <point x="605" y="105"/>
      <point x="584" y="124"/>
      <point x="584" y="193" type="curve" smooth="yes"/>
      <point x="584" y="722" type="line"/>
      <point x="454" y="722" type="line"/>
    </contour>
  </outline>
</glyph>
<glyph name="f_f_i" format="1">
  <advance width="1038"/>
  <unicode hex="FB03"/>
  <note>
    GF Latin Plus glyph
  </note>
  <outline>
    <contour>
      <point x="13" y="432" type="line"/>
      <point x="91" y="432" type="line"/>
      <point x="91" y="0" type="line"/>
      <point x="221" y="0" type="line"/>
      <point x="221" y="432" type="line"/>
      <point x="547" y="432" type="line"/>
      <point x="547" y="536" type="line"/>
      <point x="221" y="536" type="line"/>
      <point x="221" y="579" type="line" smooth="yes"/>
      <point x="221" y="635"/>
      <point x="237" y="663"/>
      <point x="294" y="663" type="curve" smooth="yes"/>
      <point x="321" y="663"/>
      <point x="356" y="661"/>
      <point x="379" y="659" type="curve"/>
      <point x="379" y="753" type="line"/>
      <point x="350" y="762"/>
      <point x="304" y="769"/>
      <point x="250" y="769" type="curve" smooth="yes"/>
      <point x="140" y="769"/>
      <point x="91" y="724"/>
      <point x="91" y="597" type="curve" smooth="yes"/>
      <point x="91" y="536" type="line"/>
      <point x="13" y="515" type="line"/>
    </contour>
    <component base="fi" xOffset="392"/>
  </outline>
</glyph>
<glyph name="f_f_l" format="1">
  <advance width="1092"/>
  <unicode hex="FB04"/>
  <note>
    GF Latin Plus glyph
  </note>
  <outline>
    <contour>
      <point x="13" y="432" type="line"/>
      <point x="91" y="432" type="line"/>
      <point x="91" y="0" type="line"/>
      <point x="221" y="0" type="line"/>
      <point x="221" y="432" type="line"/>
      <point x="549" y="432" type="line"/>
      <point x="549" y="536" type="line"/>
      <point x="221" y="536" type="line"/>
      <point x="221" y="579" type="line" smooth="yes"/>
      <point x="221" y="635"/>
      <point x="237" y="663"/>
      <point x="294" y="663" type="curve" smooth="yes"/>
      <point x="321" y="663"/>
      <point x="356" y="661"/>
      <point x="379" y="659" type="curve"/>
      <point x="379" y="753" type="line"/>
      <point x="350" y="762"/>
      <point x="304" y="769"/>
      <point x="250" y="769" type="curve" smooth="yes"/>
      <point x="140" y="769"/>
      <point x="91" y="724"/>
      <point x="91" y="597" type="curve" smooth="yes"/>
      <point x="91" y="536" type="line"/>
      <point x="13" y="515" type="line"/>
    </contour>
    <component base="fl" xOffset="392"/>
  </outline>
</glyph>
<glyph name="ffl" format="1">
  <advance width="1086"/>
  <unicode hex="FB04"/>
  <outline>
    <contour>
      <point x="20" y="432" type="line"/>
      <point x="97" y="432" type="line"/>
      <point x="97" y="0" type="line"/>
      <point x="227" y="0" type="line"/>
      <point x="227" y="432" type="line"/>
      <point x="545" y="432" type="line"/>
      <point x="545" y="536" type="line"/>
      <point x="227" y="536" type="line"/>
      <point x="227" y="586" type="line" smooth="yes"/>
      <point x="227" y="638"/>
      <point x="242" y="663"/>
      <point x="294" y="663" type="curve" smooth="yes"/>
      <point x="378" y="663" type="line"/>
      <point x="378" y="756" type="line"/>
      <point x="353" y="762"/>
      <point x="315" y="769"/>
      <point x="269" y="769" type="curve" smooth="yes"/>
      <point x="144" y="769"/>
      <point x="97" y="709"/>
      <point x="97" y="579" type="curve" smooth="yes"/>
      <point x="97" y="536" type="line"/>
      <point x="20" y="515" type="line"/>
    </contour>
    <component base="fl" xOffset="386"/>
  </outline>
</glyph>
<glyph name="s_t" format="1">
  <advance width="868"/>
  <unicode hex="FB06"/>
  <outline>
    <contour>
      <point x="463" y="135" type="curve" smooth="yes"/>
      <point x="463" y="179" type="line" smooth="yes"/>
      <point x="463" y="266"/>
      <point x="413" y="317"/>
      <point x="308" y="317" type="curve" smooth="yes"/>
      <point x="225" y="317" type="line" smooth="yes"/>
      <point x="175" y="317"/>
      <point x="146" y="325"/>
      <point x="146" y="369" type="curve" smooth="yes"/>
      <point x="146" y="388" type="line" smooth="yes"/>
      <point x="146" y="433"/>
      <point x="175" y="447"/>
      <point x="230" y="447" type="curve" smooth="yes"/>
      <point x="584" y="447" type="line"/>
      <point x="579" y="184" type="line" smooth="yes"/>
      <point x="576" y="48"/>
      <point x="627" y="0"/>
      <point x="744" y="0" type="curve" smooth="yes"/>
      <point x="832" y="0" type="line"/>
      <point x="832" y="91" type="line"/>
      <point x="765" y="98" type="line" smooth="yes"/>
      <point x="735" y="101"/>
      <point x="702" y="115"/>
      <point x="702" y="185" type="curve" smooth="yes"/>
      <point x="702" y="436" type="line"/>
      <point x="838" y="436" type="line"/>
      <point x="838" y="536" type="line"/>
      <point x="702" y="536" type="line"/>
      <point x="702" y="686" type="line"/>
      <point x="605" y="686" type="line"/>
      <point x="587" y="527" type="line"/>
      <point x="517" y="534"/>
      <point x="380" y="541"/>
      <point x="284" y="541" type="curve" smooth="yes"/>
      <point x="102" y="541"/>
      <point x="40" y="491"/>
      <point x="40" y="393" type="curve" smooth="yes"/>
      <point x="40" y="358" type="line" smooth="yes"/>
      <point x="40" y="251"/>
      <point x="109" y="217"/>
      <point x="202" y="217" type="curve" smooth="yes"/>
      <point x="283" y="217" type="line" smooth="yes"/>
      <point x="337" y="217"/>
      <point x="357" y="197"/>
      <point x="357" y="163" type="curve" smooth="yes"/>
      <point x="357" y="144" type="line" smooth="yes"/>
      <point x="357" y="96"/>
      <point x="328" y="88"/>
      <point x="279" y="88" type="curve" smooth="yes"/>
      <point x="48" y="88" type="line"/>
      <point x="48" y="15" type="line"/>
      <point x="89" y="1"/>
      <point x="193" y="-6"/>
      <point x="255" y="-6" type="curve" smooth="yes"/>
      <point x="386" y="-6"/>
      <point x="463" y="27"/>
    </contour>
  </outline>
</glyph>
<glyph name="A.smcp" format="1">
  <advance width="574"/>
  <outline>
    <contour>
      <point x="215" y="218" type="line"/>
      <point x="286" y="460" type="line"/>
      <point x="356" y="218" type="line"/>
    </contour>
    <contour>
      <point x="24" y="0" type="line"/>
      <point x="151" y="0" type="line"/>
      <point x="187" y="113" type="line"/>
      <point x="386" y="113" type="line"/>
      <point x="422" y="0" type="line"/>
      <point x="550" y="0" type="line"/>
      <point x="371" y="560" type="line"/>
      <point x="203" y="560" type="line"/>
    </contour>
    <contour>
      <point x="286" y="650" type="move" name="top"/>
    </contour>
    <contour>
      <point x="540" y="0" type="move" name="ogonek"/>
    </contour>
    <contour>
      <point x="286" y="-144" type="move" name="bottom"/>
    </contour>
  </outline>
</glyph>
<glyph name="AE.smcp" format="1">
  <advance width="811"/>
  <outline>
    <contour>
      <point x="276" y="212" type="line"/>
      <point x="388" y="407" type="line"/>
      <point x="388" y="212" type="line"/>
    </contour>
    <contour>
      <point x="24" y="0" type="line"/>
      <point x="145" y="0" type="line"/>
      <point x="216" y="113" type="line"/>
      <point x="388" y="113" type="line"/>
      <point x="388" y="86" type="line" smooth="yes"/>
      <point x="396" y="16"/>
      <point x="444" y="-5"/>
      <point x="534" y="-4" type="curve" smooth="yes"/>
      <point x="608" y="-4"/>
      <point x="713" y="2"/>
      <point x="765" y="9" type="curve"/>
      <point x="765" y="106" type="line"/>
      <point x="559" y="106" type="line" smooth="yes"/>
      <point x="527" y="106"/>
      <point x="499" y="111"/>
      <point x="499" y="154" type="curve" smooth="yes"/>
      <point x="499" y="226" type="line"/>
      <point x="727" y="233" type="line"/>
      <point x="727" y="325" type="line"/>
      <point x="499" y="332" type="line"/>
      <point x="499" y="411" type="line" smooth="yes"/>
      <point x="499" y="438"/>
      <point x="511" y="452"/>
      <point x="547" y="452" type="curve" smooth="yes"/>
      <point x="765" y="452" type="line"/>
      <point x="765" y="549" type="line"/>
      <point x="725" y="554"/>
      <point x="601" y="560"/>
      <point x="523" y="560" type="curve" smooth="yes"/>
      <point x="395" y="560"/>
      <point x="331" y="538"/>
      <point x="273" y="433" type="curve" smooth="yes"/>
    </contour>
    <contour>
      <point x="439" y="654" type="move" name="top"/>
    </contour>
  </outline>
</glyph>
<glyph name="B.smcp" format="1">
  <advance width="528"/>
  <outline>
    <contour>
      <point x="186" y="328" type="line"/>
      <point x="186" y="455" type="line"/>
      <point x="297" y="455" type="line" smooth="yes"/>
      <point x="329" y="455"/>
      <point x="354" y="440"/>
      <point x="353" y="391" type="curve" smooth="yes"/>
      <point x="353" y="354"/>
      <point x="332" y="328"/>
      <point x="298" y="328" type="curve" smooth="yes"/>
    </contour>
    <contour>
      <point x="186" y="105" type="line"/>
      <point x="186" y="241" type="line"/>
      <point x="305" y="241" type="line" smooth="yes"/>
      <point x="343" y="241"/>
      <point x="370" y="217"/>
      <point x="370" y="175" type="curve" smooth="yes"/>
      <point x="370" y="125"/>
      <point x="344" y="105"/>
      <point x="305" y="105" type="curve" smooth="yes"/>
    </contour>
    <contour>
      <point x="62" y="0" type="line"/>
      <point x="308" y="0" type="line" smooth="yes"/>
      <point x="424" y="0"/>
      <point x="488" y="40"/>
      <point x="488" y="154" type="curve" smooth="yes"/>
      <point x="488" y="237"/>
      <point x="437" y="279"/>
      <point x="386" y="291" type="curve"/>
      <point x="438" y="303"/>
      <point x="468" y="346"/>
      <point x="468" y="413" type="curve" smooth="yes"/>
      <point x="468" y="507"/>
      <point x="417" y="560"/>
      <point x="297" y="560" type="curve" smooth="yes"/>
      <point x="62" y="560" type="line"/>
    </contour>
    <contour>
      <point x="248" y="650" type="move" name="top"/>
    </contour>
  </outline>
</glyph>
<glyph name="C.smcp" format="1">
  <advance width="494"/>
  <outline>
    <contour>
      <point x="47" y="282" type="curve" smooth="yes"/>
      <point x="47" y="40"/>
      <point x="125" y="-5"/>
      <point x="262" y="-5" type="curve" smooth="yes"/>
      <point x="347" y="-5"/>
      <point x="407" y="4"/>
      <point x="451" y="17" type="curve"/>
      <point x="451" y="108" type="line"/>
      <point x="420" y="104"/>
      <point x="371" y="100"/>
      <point x="290" y="100" type="curve" smooth="yes"/>
      <point x="195" y="100"/>
      <point x="171" y="134"/>
      <point x="171" y="280" type="curve" smooth="yes"/>
      <point x="171" y="434"/>
      <point x="202" y="460"/>
      <point x="290" y="460" type="curve" smooth="yes"/>
      <point x="359" y="460"/>
      <point x="421" y="453"/>
      <point x="451" y="448" type="curve"/>
      <point x="451" y="538" type="line"/>
      <point x="413" y="551"/>
      <point x="346" y="565"/>
      <point x="264" y="565" type="curve" smooth="yes"/>
      <point x="129" y="565"/>
      <point x="47" y="513"/>
    </contour>
    <contour>
      <point x="264" y="654" type="move" name="top"/>
    </contour>
    <contour>
      <point x="283" y="-150" type="move" name="bottom"/>
    </contour>
  </outline>
</glyph>
<glyph name="D.smcp" format="1">
  <advance width="571"/>
  <outline>
    <contour>
      <point x="186" y="105" type="line"/>
      <point x="186" y="455" type="line"/>
      <point x="303" y="455" type="line" smooth="yes"/>
      <point x="366" y="455"/>
      <point x="399" y="424"/>
      <point x="399" y="280" type="curve" smooth="yes"/>
      <point x="399" y="164"/>
      <point x="374" y="105"/>
      <point x="303" y="105" type="curve" smooth="yes"/>
    </contour>
    <contour>
      <point x="62" y="0" type="line"/>
      <point x="315" y="0" type="line" smooth="yes"/>
      <point x="454" y="0"/>
      <point x="523" y="90"/>
      <point x="523" y="280" type="curve" smooth="yes"/>
      <point x="523" y="445"/>
      <point x="477" y="560"/>
      <point x="315" y="560" type="curve" smooth="yes"/>
      <point x="62" y="560" type="line"/>
    </contour>
    <contour>
      <point x="275" y="650" type="move" name="top"/>
    </contour>
    <contour>
      <point x="248" y="-150" type="move" name="bottom"/>
    </contour>
  </outline>
</glyph>
<glyph name="E.smcp" format="1">
  <advance width="503"/>
  <outline>
    <contour>
      <point x="62" y="115" type="line" smooth="yes"/>
      <point x="62" y="5"/>
      <point x="156" y="-4"/>
      <point x="208" y="-4" type="curve" smooth="yes"/>
      <point x="270" y="-4"/>
      <point x="403" y="1"/>
      <point x="457" y="7" type="curve"/>
      <point x="457" y="106" type="line"/>
      <point x="233" y="106" type="line" smooth="yes"/>
      <point x="208" y="106"/>
      <point x="186" y="117"/>
      <point x="186" y="154" type="curve" smooth="yes"/>
      <point x="186" y="226" type="line"/>
      <point x="419" y="233" type="line"/>
      <point x="419" y="325" type="line"/>
      <point x="186" y="332" type="line"/>
      <point x="186" y="407" type="line" smooth="yes"/>
      <point x="186" y="438"/>
      <point x="205" y="452"/>
      <point x="237" y="452" type="curve" smooth="yes"/>
      <point x="457" y="452" type="line"/>
      <point x="457" y="550" type="line"/>
      <point x="414" y="554"/>
      <point x="304" y="560"/>
      <point x="200" y="560" type="curve" smooth="yes"/>
      <point x="136" y="560"/>
      <point x="62" y="533"/>
      <point x="62" y="436" type="curve" smooth="yes"/>
    </contour>
    <contour>
      <point x="263" y="650" type="move" name="top"/>
    </contour>
    <contour>
      <point x="447" y="7" type="move" name="ogonek"/>
    </contour>
    <contour>
      <point x="280" y="-150" type="move" name="bottom"/>
    </contour>
  </outline>
</glyph>
<glyph name="Eng.smcp" format="1">
  <advance width="584"/>
  <outline>
    <contour>
      <point x="278" y="-181" type="line"/>
      <point x="302" y="-189"/>
      <point x="340" y="-196"/>
      <point x="376" y="-196" type="curve" smooth="yes"/>
      <point x="487" y="-196"/>
      <point x="532" y="-148"/>
      <point x="532" y="-53" type="curve" smooth="yes"/>
      <point x="532" y="50" type="line"/>
      <point x="408" y="50" type="line"/>
      <point x="408" y="-35" type="line" smooth="yes"/>
      <point x="408" y="-75"/>
      <point x="389" y="-91"/>
      <point x="352" y="-91" type="curve" smooth="yes"/>
      <point x="346" y="-91"/>
      <point x="283" y="-89"/>
      <point x="278" y="-88" type="curve"/>
    </contour>
    <component base="N.smcp"/>
  </outline>
</glyph>
<glyph name="Eth.smcp" format="1">
  <advance width="570"/>
  <outline>
    <contour>
      <point x="22" y="246" type="line"/>
      <point x="277" y="246" type="line"/>
      <point x="277" y="318" type="line"/>
      <point x="22" y="318" type="line"/>
    </contour>
    <component base="D.smcp"/>
  </outline>
</glyph>
<glyph name="F.smcp" format="1">
  <advance width="493"/>
  <outline>
    <contour>
      <point x="62" y="0" type="line"/>
      <point x="186" y="0" type="line"/>
      <point x="186" y="213" type="line"/>
      <point x="419" y="219" type="line"/>
      <point x="419" y="311" type="line"/>
      <point x="186" y="318" type="line"/>
      <point x="186" y="409" type="line" smooth="yes"/>
      <point x="186" y="433"/>
      <point x="202" y="452"/>
      <point x="234" y="452" type="curve" smooth="yes"/>
      <point x="457" y="452" type="line"/>
      <point x="457" y="549" type="line"/>
      <point x="385" y="559"/>
      <point x="237" y="560"/>
      <point x="200" y="560" type="curve" smooth="yes"/>
      <point x="136" y="560"/>
      <point x="62" y="533"/>
      <point x="62" y="436" type="curve" smooth="yes"/>
    </contour>
    <contour>
      <point x="263" y="650" type="move" name="top"/>
    </contour>
  </outline>
</glyph>
<glyph name="G.smcp" format="1">
  <advance width="559"/>
  <outline>
    <contour>
      <point x="47" y="280" type="curve" smooth="yes"/>
      <point x="47" y="111"/>
      <point x="81" y="-4"/>
      <point x="230" y="-4" type="curve" smooth="yes"/>
      <point x="297" y="-4"/>
      <point x="357" y="20"/>
      <point x="387" y="38" type="curve"/>
      <point x="404" y="0" type="line"/>
      <point x="497" y="0" type="line"/>
      <point x="497" y="320" type="line"/>
      <point x="474" y="321"/>
      <point x="447" y="322"/>
      <point x="412" y="322" type="curve" smooth="yes"/>
      <point x="366" y="322"/>
      <point x="308" y="319"/>
      <point x="275" y="315" type="curve"/>
      <point x="275" y="222" type="line"/>
      <point x="378" y="222" type="line"/>
      <point x="378" y="119" type="line"/>
      <point x="355" y="111"/>
      <point x="314" y="104"/>
      <point x="270" y="104" type="curve" smooth="yes"/>
      <point x="195" y="104"/>
      <point x="171" y="137"/>
      <point x="171" y="279" type="curve" smooth="yes"/>
      <point x="171" y="416"/>
      <point x="190" y="460"/>
      <point x="291" y="460" type="curve" smooth="yes"/>
      <point x="365" y="460"/>
      <point x="434" y="454"/>
      <point x="469" y="449" type="curve"/>
      <point x="469" y="540" type="line"/>
      <point x="407" y="555"/>
      <point x="351" y="565"/>
      <point x="268" y="565" type="curve" smooth="yes"/>
      <point x="86" y="565"/>
      <point x="47" y="458"/>
    </contour>
    <contour>
      <point x="273" y="650" type="move" name="top"/>
    </contour>
    <contour>
      <point x="295" y="-150" type="move" name="bottom"/>
    </contour>
  </outline>
</glyph>
<glyph name="Germandbls.smcp" format="1">
  <advance width="607"/>
  <outline>
    <contour>
      <point x="368" y="285" type="line"/>
      <point x="522" y="461" type="line"/>
      <point x="522" y="552" type="line"/>
      <point x="397" y="458" type="line"/>
      <point x="268" y="313" type="line"/>
    </contour>
    <contour>
      <point x="268" y="220" type="line"/>
      <point x="366" y="220" type="line" smooth="yes"/>
      <point x="418" y="220"/>
      <point x="436" y="204"/>
      <point x="436" y="172" type="curve" smooth="yes"/>
      <point x="436" y="150" type="line" smooth="yes"/>
      <point x="436" y="109"/>
      <point x="404" y="100"/>
      <point x="352" y="100" type="curve" smooth="yes"/>
      <point x="337" y="100"/>
      <point x="248" y="101"/>
      <point x="241" y="102" type="curve"/>
      <point x="241" y="10" type="line"/>
      <point x="276" y="2"/>
      <point x="330" y="-5"/>
      <point x="375" y="-5" type="curve" smooth="yes"/>
      <point x="484" y="-5"/>
      <point x="560" y="22"/>
      <point x="560" y="147" type="curve" smooth="yes"/>
      <point x="560" y="178" type="line" smooth="yes"/>
      <point x="560" y="270"/>
      <point x="498" y="313"/>
      <point x="401" y="313" type="curve" smooth="yes"/>
      <point x="268" y="313" type="line"/>
    </contour>
    <contour>
      <point x="62" y="0" type="line"/>
      <point x="186" y="0" type="line"/>
      <point x="186" y="405" type="line" smooth="yes"/>
      <point x="186" y="436"/>
      <point x="205" y="455"/>
      <point x="244" y="455" type="curve" smooth="yes"/>
      <point x="463" y="455" type="line"/>
      <point x="522" y="552" type="line"/>
      <point x="452" y="557"/>
      <point x="341" y="560"/>
      <point x="239" y="560" type="curve" smooth="yes"/>
      <point x="144" y="560"/>
      <point x="62" y="519"/>
      <point x="62" y="404" type="curve" smooth="yes"/>
    </contour>
  </outline>
</glyph>
<glyph name="H.smcp" format="1">
  <advance width="590"/>
  <outline>
    <contour>
      <point x="62" y="0" type="line"/>
      <point x="186" y="0" type="line"/>
      <point x="186" y="225" type="line"/>
      <point x="403" y="225" type="line"/>
      <point x="403" y="0" type="line"/>
      <point x="527" y="0" type="line"/>
      <point x="527" y="560" type="line"/>
      <point x="403" y="560" type="line"/>
      <point x="403" y="329" type="line"/>
      <point x="186" y="329" type="line"/>
      <point x="186" y="560" type="line"/>
      <point x="62" y="560" type="line"/>
    </contour>
    <contour>
      <point x="295" y="650" type="move" name="top"/>
    </contour>
  </outline>
</glyph>
<glyph name="Hbar.smcp" format="1">
  <advance width="590"/>
  <outline>
    <contour>
      <point x="22" y="391" type="line"/>
      <point x="568" y="391" type="line"/>
      <point x="568" y="450" type="line"/>
      <point x="22" y="450" type="line"/>
    </contour>
    <component base="H.smcp"/>
  </outline>
</glyph>
